<svg width="25" height="25" viewBox="0 0 25 25" fill="none" xmlns="http://www.w3.org/2000/svg">
<path d="M24.1455 12.5C24.1455 19.2013 19.2013 24.5849 12.5 24.5849C12.088 24.5849 11.6808 24.6132 11.2792 24.5731C5.15122 23.9609 0.366211 18.7892 0.366211 12.5C0.366211 6.2175 5.14087 1.05021 11.2594 0.428828C11.6673 0.387422 12.0812 0.41501 12.5 0.41501C19.2013 0.41501 24.1455 5.79865 24.1455 12.5Z" fill="#FFF0AF"/>
<path d="M16.6166 14.7526L8.19219 15.0433C7.90591 15.0433 7.67383 15.2754 7.67383 15.5616V15.5841C7.67383 15.9059 7.4062 15.9301 7.46299 16.2355C7.86138 18.379 9.59443 20.0537 11.7674 20.3648C12.0066 20.399 12.2512 20.3679 12.4999 20.3679C15.3294 20.3679 17.1349 18.1229 17.1349 15.2934V15.2709C17.1349 14.9846 16.9028 14.7526 16.6166 14.7526Z" fill="#FD8087"/>
<path d="M16.6167 14.8014H15.6401C15.9264 14.8014 16.1585 14.9846 16.1585 15.2709V15.2934C16.1585 17.8742 14.2501 20.009 11.7676 20.3643C12.0068 20.3986 12.2513 20.4167 12.5 20.4167C15.0077 20.4167 17.0946 18.615 17.5369 16.2354C17.5936 15.9301 17.135 15.6152 17.135 15.2933V15.2709C17.1351 14.9846 16.903 14.8014 16.6167 14.8014Z" fill="#EE6161"/>
<path d="M16.6165 14.7526H7.89482C7.60854 14.7526 7.37646 14.9846 7.37646 15.2709V15.2934C7.37646 15.6152 7.40644 15.93 7.46323 16.2354C9.06894 16.6687 10.7571 16.901 12.4998 16.901C13.6932 16.901 14.861 16.7921 15.9942 16.5843C16.5159 16.4886 16.5419 16.3719 17.0481 16.2354C17.1049 15.93 17.1349 15.6152 17.1349 15.2934V15.2709C17.1349 14.9846 16.9028 14.7526 16.6165 14.7526Z" fill="#F3F0F3"/>
<path d="M16.1585 15.2709V15.2934C16.1585 15.7393 16.1015 16.1718 15.9944 16.5842C16.5161 16.4885 17.0305 16.372 17.5366 16.2354C17.5934 15.93 17.6233 15.6152 17.6233 15.2934V15.2709C17.6233 14.9846 17.3913 14.7526 17.105 14.7526H15.6401C15.9264 14.7526 16.1585 14.9846 16.1585 15.2709Z" fill="#E2DEE2"/>
<path d="M12.5 0.366211C12.0879 0.366211 11.6808 0.386963 11.2793 0.4271C17.4074 1.03931 22.1924 6.21074 22.1924 12.5C22.1924 18.7893 17.4074 23.9607 11.2793 24.5729C11.6808 24.613 12.0879 24.6338 12.5 24.6338C19.2013 24.6338 24.6338 19.2013 24.6338 12.5C24.6338 5.79868 19.2013 0.366211 12.5 0.366211Z" fill="#FFE07D"/>
<path d="M17.6193 12.2234L15.9517 13.1C15.7404 13.2111 15.4934 13.0317 15.5338 12.7964L15.8522 10.9395C15.8682 10.8461 15.8373 10.7507 15.7694 10.6845L14.4203 9.36949C14.2494 9.20284 14.3437 8.91251 14.58 8.87819L16.4443 8.60729C16.5382 8.59366 16.6193 8.53473 16.6612 8.44972L17.495 6.76031C17.6007 6.5462 17.9059 6.5462 18.0116 6.76031L18.8454 8.44972C18.8873 8.53473 18.9684 8.59366 19.0623 8.60729L20.1923 8.7715L20.7313 8.87819C20.9676 8.91251 21.0619 9.20284 20.891 9.36949L19.6884 10.6845C19.6205 10.7507 19.5895 10.8461 19.6056 10.9395L19.924 12.7475C19.9643 12.9828 19.7174 13.1623 19.506 13.0512L18.8732 12.7416L17.8873 12.2233C17.8035 12.1792 17.7032 12.1792 17.6193 12.2234Z" fill="#FFE07D"/>
<path d="M21.0859 9.3696C21.2569 9.20295 21.1625 8.91262 20.9263 8.8783L20.192 8.77161C20.2078 8.85959 20.1837 8.9554 20.1094 9.02786L18.7603 10.3429C18.6925 10.4091 18.6615 10.5044 18.6775 10.5979L18.9959 12.4547C19.0168 12.5762 18.9608 12.6824 18.8729 12.7418L19.5546 13.1002C19.7659 13.2113 20.0129 13.0318 19.9726 12.7965L19.6541 10.9397C19.6381 10.8462 19.669 10.7509 19.737 10.6847L21.0859 9.3696Z" fill="#FFC250"/>
<path d="M7.11293 12.2234L5.4454 13.1C5.23407 13.2111 4.9871 13.0317 5.02743 12.7964L5.34589 10.9395C5.3619 10.8461 5.33094 10.7507 5.26302 10.6845L3.91395 9.36949C3.743 9.20284 3.83734 8.91251 4.07362 8.87819L5.93798 8.60729C6.03182 8.59366 6.11288 8.53473 6.15487 8.44972L6.98866 6.76031C7.09432 6.5462 7.3996 6.5462 7.50526 6.76031L8.33905 8.44972C8.38099 8.53473 8.4621 8.59366 8.55594 8.60729L9.68597 8.7715L10.225 8.87819C10.4613 8.91251 10.5556 9.20284 10.3847 9.36949L9.18207 10.6845C9.1142 10.7507 9.08319 10.8461 9.09921 10.9395L9.41766 12.7475C9.45804 12.9828 9.21102 13.1623 8.99969 13.0512L8.36683 12.7416L7.38094 12.2233C7.29711 12.1792 7.19686 12.1792 7.11293 12.2234Z" fill="#FFE07D"/>
<path d="M10.5801 9.3696C10.751 9.20295 10.6567 8.91262 10.4205 8.8783L9.68613 8.77161C9.70195 8.85959 9.67787 8.9554 9.60356 9.02786L8.25448 10.3429C8.18661 10.4091 8.15561 10.5044 8.17162 10.5979L8.49008 12.4547C8.51093 12.5762 8.45492 12.6824 8.36703 12.7418L9.04872 13.1002C9.26005 13.2113 9.50702 13.0318 9.46669 12.7965L9.14823 10.9397C9.13222 10.8462 9.16318 10.7509 9.2311 10.6847L10.5801 9.3696Z" fill="#FFC250"/>
<path d="M0.732422 12.5C0.732422 9.35674 1.95645 6.40161 4.17905 4.17905C6.40161 1.95645 9.35674 0.732422 12.5 0.732422C15.2812 0.732422 17.9799 1.72051 20.0992 3.5147C20.2535 3.64541 20.4846 3.62622 20.6152 3.47183C20.7459 3.31748 20.7268 3.08638 20.5724 2.95576C18.321 1.04971 15.4542 0 12.5 0C9.16113 0 6.02207 1.30024 3.66113 3.66113C1.30024 6.02207 0 9.16113 0 12.5C0 15.444 1.04326 18.3032 2.93755 20.5509C3.01001 20.6369 3.11353 20.6811 3.21777 20.6811C3.30107 20.6811 3.38491 20.6528 3.45356 20.5949C3.60825 20.4646 3.62793 20.2335 3.49761 20.0789C1.71445 17.9631 0.732422 15.2715 0.732422 12.5Z" fill="black"/>
<path d="M21.7567 4.09984C21.6207 3.95013 21.3891 3.93905 21.2394 4.07489C21.0897 4.21083 21.0785 4.44242 21.2144 4.59222C23.1832 6.76048 24.2674 9.56888 24.2674 12.5C24.2674 15.6432 23.0434 18.5984 20.8208 20.8209C18.5982 23.0435 15.6431 24.2676 12.4998 24.2676C9.56604 24.2676 6.75574 23.1816 4.5867 21.2098C4.43709 21.0737 4.20549 21.0848 4.06936 21.2345C3.93333 21.3841 3.94431 21.6158 4.09402 21.7518C6.39817 23.8464 9.38342 25 12.4998 25C15.8387 25 18.9778 23.6997 21.3387 21.3389C23.6996 18.9779 24.9998 15.8389 24.9998 12.5C24.9998 9.38641 23.8481 6.40321 21.7567 4.09984Z" fill="black"/>
<path d="M17.1048 14.3864H7.89482C7.40708 14.3864 7.01025 14.7832 7.01025 15.2709V15.2934C7.01025 18.3203 9.47285 20.7829 12.4998 20.7829C15.5268 20.7829 17.9894 18.3203 17.9894 15.2934V15.2709C17.9894 14.7832 17.5925 14.3864 17.1048 14.3864ZM7.74268 15.2709C7.74268 15.187 7.81089 15.1188 7.89482 15.1188H17.1048C17.1887 15.1188 17.2569 15.187 17.2569 15.2709V15.2934C17.2569 15.5132 17.2416 15.7294 17.2126 15.9413C15.6781 16.3348 14.0937 16.5348 12.4998 16.5348C10.9061 16.5348 9.32139 16.3348 7.78701 15.9413C7.75801 15.7294 7.74272 15.5132 7.74272 15.2934L7.74268 15.2709ZM12.4998 20.0505C10.381 20.0505 8.58149 18.658 7.96787 16.7401C9.4481 17.0897 10.97 17.2673 12.4998 17.2673C14.0297 17.2673 15.5514 17.0898 17.0317 16.7403C16.418 18.658 14.6186 20.0505 12.4998 20.0505Z" fill="black"/>
<path d="M21.5072 8.96111C21.4297 8.72249 21.2273 8.55183 20.979 8.5158L19.1553 8.25081L18.3397 6.59822C18.2287 6.37327 18.0039 6.23352 17.753 6.23352C17.5021 6.23352 17.2773 6.37322 17.1663 6.59822L16.3507 8.25081L14.527 8.5158C14.2787 8.55183 14.0763 8.72249 13.9988 8.96111C13.9213 9.19968 13.9848 9.45667 14.1644 9.63176L15.484 10.9181L15.1725 12.7344C15.1301 12.9817 15.2299 13.2269 15.4328 13.3743C15.5475 13.4576 15.6817 13.5 15.8167 13.5C15.9207 13.5 16.0252 13.4749 16.1218 13.4241L17.7529 12.5666L19.3841 13.4241C19.606 13.5408 19.8701 13.5218 20.0731 13.3743C20.276 13.2268 20.3758 12.9817 20.3334 12.7344L20.0219 10.918L21.3414 9.63171C21.5212 9.45671 21.5847 9.19968 21.5072 8.96111ZM19.4812 10.4223C19.327 10.5726 19.2567 10.7891 19.2932 11.0014L19.5849 12.7022L18.0576 11.8992C17.8669 11.799 17.6393 11.7989 17.4484 11.8992L15.9212 12.7022L16.2129 11.0014C16.2493 10.7891 16.179 10.5726 16.0248 10.4223L14.7891 9.21785L16.4968 8.9697C16.7099 8.93874 16.8941 8.80496 16.9894 8.61179L17.7531 7.06438L18.5168 8.61179C18.6121 8.80496 18.7963 8.93874 19.0095 8.9697L20.7171 9.21785L19.4812 10.4223Z" fill="black"/>
<path d="M4.6662 12.7345C4.62382 12.9818 4.72363 13.227 4.92656 13.3744C5.04125 13.4577 5.17543 13.5 5.31044 13.5C5.41445 13.5 5.51899 13.4749 5.61552 13.4241L7.24672 12.5666L8.87787 13.4241C9.0998 13.5409 9.36386 13.5219 9.56684 13.3743C9.76977 13.2269 9.86957 12.9817 9.82714 12.7344L9.51562 10.9181L10.8352 9.63176C11.0149 9.45667 11.0784 9.19963 11.0008 8.96111C10.9233 8.72249 10.7209 8.55183 10.4726 8.5158L8.64897 8.25081L7.83339 6.59822C7.72236 6.37327 7.49755 6.23352 7.24662 6.23352C6.99575 6.23352 6.77099 6.37322 6.65991 6.59822L5.84433 8.25081L4.02065 8.5158C3.77236 8.55183 3.56996 8.72249 3.49247 8.96111C3.41493 9.19968 3.47841 9.45667 3.65805 9.63176L4.97768 10.9181L4.6662 12.7345ZM4.28281 9.21785L5.99042 8.9697C6.20361 8.93874 6.38779 8.80496 6.4831 8.61179L7.24677 7.06438L8.01049 8.61179C8.1058 8.80496 8.28998 8.93874 8.50317 8.9697L10.2108 9.21785L8.97509 10.4223C8.82089 10.5726 8.75053 10.7891 8.78696 11.0014L9.07866 12.7022L7.55141 11.8992C7.36069 11.7989 7.133 11.799 6.94233 11.8992L5.41498 12.7022L5.70673 11.0014C5.74311 10.7891 5.6728 10.5726 5.51855 10.4223L4.28281 9.21785Z" fill="black"/>
</svg>
