<svg width="25" height="25" viewBox="0 0 25 25" fill="none" xmlns="http://www.w3.org/2000/svg">
<path d="M24.1455 12.5C24.1455 19.2013 19.2013 24.5849 12.5 24.5849C12.088 24.5849 11.6808 24.6132 11.2792 24.5731C5.15122 23.9609 0.366211 18.7892 0.366211 12.5C0.366211 6.2175 5.14087 1.05021 11.2594 0.428828C11.6673 0.387422 12.0812 0.41501 12.5 0.41501C19.2013 0.41501 24.1455 5.79865 24.1455 12.5Z" fill="#FD8087"/>
<path d="M12.5 0.366211C12.0879 0.366211 11.6808 0.386963 11.2793 0.4271C17.4074 1.03931 22.1924 6.21074 22.1924 12.5C22.1924 18.7893 17.4074 23.9607 11.2793 24.5729C11.6808 24.613 12.0879 24.6338 12.5 24.6338C19.2013 24.6338 24.6338 19.2013 24.6338 12.5C24.6338 5.79868 19.2013 0.366211 12.5 0.366211Z" fill="#EE6161"/>
<path d="M7.67383 11.7639C7.2019 11.7639 6.81934 11.3813 6.81934 10.9094V9.35535C6.81934 8.88342 7.2019 8.50085 7.67383 8.50085C8.14575 8.50085 8.52832 8.88342 8.52832 9.35535V10.9094C8.52832 11.3813 8.14575 11.7639 7.67383 11.7639Z" fill="#685E68"/>
<path d="M17.3262 11.7639C16.8542 11.7639 16.4717 11.3813 16.4717 10.9094V9.35535C16.4717 8.88342 16.8542 8.50085 17.3262 8.50085C17.7981 8.50085 18.1807 8.88342 18.1807 9.35535V10.9094C18.1807 11.3813 17.7981 11.7639 17.3262 11.7639Z" fill="#685E68"/>
<path d="M17.165 18.4551C17.0713 18.4551 16.9776 18.4193 16.9061 18.3478C14.4767 15.9184 10.5238 15.9184 8.09437 18.3478C7.95136 18.4908 7.71947 18.4908 7.5765 18.3478C7.43348 18.2048 7.43348 17.9729 7.5765 17.8299C10.2915 15.115 14.709 15.115 17.424 17.8299C17.567 17.973 17.567 18.2048 17.424 18.3478C17.3525 18.4193 17.2588 18.4551 17.165 18.4551Z" fill="black"/>
<path d="M3.21777 20.6811C3.11353 20.6811 3.01001 20.6369 2.93755 20.5509C1.04326 18.3032 0 15.444 0 12.5C0 9.16113 1.3002 6.02207 3.66113 3.66113C6.02207 1.3002 9.16113 0 12.5 0C15.4542 0 18.321 1.04971 20.5724 2.95576C20.7268 3.08643 20.7459 3.31753 20.6153 3.47187C20.4846 3.62622 20.2536 3.64541 20.0992 3.51475C17.9799 1.72051 15.2811 0.732422 12.5 0.732422C9.35674 0.732422 6.40166 1.95645 4.17905 4.17905C1.95644 6.40166 0.732422 9.35674 0.732422 12.5C0.732422 15.2715 1.71445 17.963 3.49761 20.0789C3.62793 20.2335 3.60825 20.4646 3.45356 20.5949C3.38486 20.6528 3.30107 20.6811 3.21777 20.6811Z" fill="black"/>
<path d="M12.4998 24.9999C9.38335 24.9999 6.39815 23.8464 4.094 21.7517C3.94434 21.6157 3.9333 21.3841 4.06939 21.2344C4.20537 21.0848 4.43701 21.0737 4.58667 21.2098C6.75567 23.1816 9.56592 24.2675 12.4998 24.2675C15.643 24.2675 18.5981 23.0435 20.8207 20.8209C23.0433 18.5983 24.2673 15.6432 24.2673 12.4999C24.2673 9.56879 23.1831 6.76039 21.2144 4.59213C21.0785 4.44242 21.0896 4.21078 21.2394 4.07484C21.3891 3.93886 21.6207 3.95004 21.7566 4.09979C23.848 6.40311 24.9998 9.38632 24.9998 12.4999C24.9998 15.8388 23.6995 18.9779 21.3386 21.3388C18.9777 23.6997 15.8386 24.9999 12.4998 24.9999Z" fill="black"/>
<path d="M8.77224 7.65295C8.72366 7.65295 8.67434 7.64324 8.62688 7.62268L6.3033 6.61643C6.1177 6.53606 6.0324 6.32043 6.11277 6.13484C6.19314 5.94924 6.40867 5.86394 6.59436 5.94431L8.91794 6.95056C9.10354 7.03093 9.18884 7.24656 9.10847 7.43215C9.04866 7.57039 8.91384 7.65295 8.77224 7.65295Z" fill="black"/>
<path d="M16.2278 7.65303C16.0862 7.65303 15.9514 7.57046 15.8916 7.43228C15.8112 7.24668 15.8965 7.03105 16.0821 6.95068L18.4057 5.94443C18.5913 5.86406 18.8069 5.94937 18.8873 6.13496C18.9677 6.32056 18.8823 6.53618 18.6968 6.61655L16.3732 7.6228C16.3258 7.64331 16.2763 7.65303 16.2278 7.65303Z" fill="black"/>
<path d="M7.67383 12.1301C7.00073 12.1301 6.45312 11.5825 6.45312 10.9094V9.35535C6.45312 8.68225 7.00073 8.13464 7.67383 8.13464C8.34692 8.13464 8.89453 8.68225 8.89453 9.35535V10.9094C8.89453 11.5825 8.34692 12.1301 7.67383 12.1301ZM7.67383 8.86707C7.40459 8.86707 7.18555 9.08611 7.18555 9.35535V10.9094C7.18555 11.1786 7.40459 11.3977 7.67383 11.3977C7.94307 11.3977 8.16211 11.1786 8.16211 10.9094V9.35535C8.16211 9.08611 7.94307 8.86707 7.67383 8.86707Z" fill="black"/>
<path d="M17.3262 12.1301C16.6531 12.1301 16.1055 11.5825 16.1055 10.9094V9.35535C16.1055 8.68225 16.6531 8.13464 17.3262 8.13464C17.9993 8.13464 18.5469 8.68225 18.5469 9.35535V10.9094C18.5469 11.5825 17.9993 12.1301 17.3262 12.1301ZM17.3262 8.86707C17.0569 8.86707 16.8379 9.08611 16.8379 9.35535V10.9094C16.8379 11.1786 17.0569 11.3977 17.3262 11.3977C17.5954 11.3977 17.8145 11.1786 17.8145 10.9094V9.35535C17.8145 9.08611 17.5954 8.86707 17.3262 8.86707Z" fill="black"/>
</svg>
