<svg width="25" height="25" viewBox="0 0 25 25" fill="none" xmlns="http://www.w3.org/2000/svg">
<path d="M24.1455 12.5C24.1455 19.2013 19.2013 24.5849 12.5 24.5849C12.088 24.5849 11.6808 24.6132 11.2792 24.5731C5.83433 24.0292 1.44971 19.8856 0.539795 14.5569C0.425684 13.8883 0.366211 13.2011 0.366211 12.5C0.366211 6.2175 5.14087 2.51506 11.2594 1.89367C11.6673 1.85227 12.0812 1.87985 12.5 1.87985C19.2013 1.87985 24.1455 5.79865 24.1455 12.5Z" fill="#FFF0AF"/>
<path d="M12.5 0.854492C12.0879 0.854492 11.6808 0.875244 11.2793 0.915381C16.8231 1.46919 21.2677 5.26606 22.0649 10.7345C22.1489 11.3108 22.1924 11.9003 22.1924 12.5C22.1924 18.7893 17.4073 23.9607 11.2793 24.5729C11.6808 24.613 12.0879 24.6338 12.5 24.6338C18.5002 24.6338 23.4832 20.2786 24.4602 14.5569C24.5743 13.8883 24.5361 13.2011 24.5361 12.5C24.5361 5.79868 19.2013 0.854492 12.5 0.854492Z" fill="#FFE07D"/>
<path d="M22.0651 10.7343C19.8445 8.72635 16.3857 7.43549 12.5 7.43549C6.49985 7.43549 1.51768 10.5134 0.540625 14.5568C0.426465 13.8882 0.366211 13.2012 0.366211 12.5C0.366211 6.21078 5.15122 1.03905 11.2793 0.426892C11.6808 0.386804 12.088 0.415075 12.5 0.415075C19.2013 0.415075 24.4385 5.79872 24.4385 12.5L22.0651 10.7343Z" fill="#8AC9FE"/>
<path d="M12.5 0.366211C12.0879 0.366211 11.6808 0.386963 11.2793 0.4271C11.2793 0.4271 11.2793 0.4271 11.2793 0.4271C16.823 0.980908 21.2674 5.26611 22.0646 10.7346C23.2729 11.8272 24.115 13.1319 24.4594 14.5568C24.5735 13.8882 24.6338 13.2012 24.6338 12.5C24.6338 5.79868 19.2013 0.366211 12.5 0.366211Z" fill="#60B7FF"/>
<path d="M14.9091 18.6525C15.204 18.6525 15.4347 18.3928 15.3935 18.1009C15.1254 16.2033 14.4714 15.2321 12.4999 15.2321C11.255 15.2321 10.146 15.3258 9.43018 16.2325C9.0124 16.7617 8.72857 17.4016 8.62979 18.1009C8.58853 18.3927 8.81934 18.6525 9.11411 18.6525H14.9091Z" fill="#FD8087"/>
<path d="M16.3701 18.1009C16.2713 17.4015 15.9875 16.7617 15.5697 16.2325C14.8539 15.3258 13.7449 14.8414 12.5 14.8414C12.2497 14.8414 12.0048 14.8652 11.7676 14.9102C12.7806 15.1022 13.6553 15.5875 14.2289 16.3985C14.5788 16.8933 14.8166 17.4731 14.9053 18.1009C14.9465 18.3927 14.7157 18.6525 14.4209 18.6525H15.8858C16.1806 18.6525 16.4113 18.3928 16.3701 18.1009Z" fill="#EE6161"/>
<path d="M9.43066 16.2329C10.4302 16.3928 11.4553 16.4764 12.4999 16.4764C13.0826 16.4764 13.6591 16.4504 14.2286 16.3996C14.6801 16.3594 14.3594 16.3496 14.8015 16.2789C14.0856 15.3721 13.7448 14.7438 12.4999 14.7438C12.2495 14.7438 12.0047 14.7674 11.7674 14.8123C10.825 14.9911 10.0025 15.5085 9.43066 16.2329Z" fill="#F3F0F3"/>
<path d="M12.5 14.7438C12.2498 14.7438 12.0052 14.7677 11.7681 14.8126C12.7809 15.0048 13.6551 15.5878 14.2286 16.3987C14.68 16.3584 15.1272 16.3036 15.5692 16.2329C14.8534 15.3261 13.7449 14.7438 12.5 14.7438Z" fill="#E2DEE2"/>
<path d="M7.67383 11.8127C7.2019 11.8127 6.81934 11.4302 6.81934 10.9582V9.40417C6.81934 8.93225 7.2019 8.54968 7.67383 8.54968C8.14575 8.54968 8.52832 8.93225 8.52832 9.40417V10.9582C8.52832 11.4302 8.14575 11.8127 7.67383 11.8127Z" fill="#685E68"/>
<path d="M17.3262 11.8127C16.8542 11.8127 16.4717 11.4302 16.4717 10.9582V9.40417C16.4717 8.93225 16.8542 8.54968 17.3262 8.54968C17.7981 8.54968 18.1807 8.93225 18.1807 9.40417V10.9582C18.1807 11.4302 17.7981 11.8127 17.3262 11.8127Z" fill="#685E68"/>
<path d="M9.11406 19.0187H15.8855C16.1338 19.0187 16.3697 18.9112 16.5326 18.7237C16.6939 18.5379 16.7668 18.2922 16.7325 18.0496C16.5898 17.0392 16.0863 16.1107 15.3149 15.4352C14.536 14.7531 13.5362 14.3776 12.4998 14.3776C11.4634 14.3776 10.4636 14.7531 9.68472 15.4352C8.91328 16.1107 8.40981 17.0392 8.26709 18.0496C8.23281 18.2922 8.30571 18.5379 8.46704 18.7237C8.62993 18.9112 8.86577 19.0187 9.11406 19.0187ZM14.8064 15.9697C14.0425 16.0625 13.2694 16.1101 12.4998 16.1101C11.7302 16.1101 10.9571 16.0626 10.1931 15.9698C10.8183 15.4327 11.6285 15.11 12.4998 15.11C13.371 15.11 14.1812 15.4327 14.8064 15.9697ZM8.99233 18.1521C9.07187 17.5888 9.2853 17.0711 9.59644 16.6281C10.5539 16.7698 11.5296 16.8426 12.4998 16.8426C13.4701 16.8426 14.4458 16.7699 15.4032 16.6281C15.7144 17.0712 15.9277 17.5889 16.0073 18.1521C16.0133 18.1944 15.9956 18.2251 15.9796 18.2434C15.9657 18.2594 15.935 18.2864 15.8856 18.2864H9.11406C9.0647 18.2864 9.03393 18.2594 9.02002 18.2434C9.00405 18.225 8.98633 18.1943 8.99233 18.1521Z" fill="black"/>
<path d="M21.7566 4.09988C21.6207 3.95017 21.3891 3.93899 21.2394 4.07493C21.0896 4.21087 21.0785 4.44246 21.2144 4.59226C23.1831 6.76052 24.2673 9.56892 24.2673 12.5C24.2673 15.6433 23.0433 18.5984 20.8207 20.821C18.5981 23.0436 15.643 24.2676 12.4998 24.2676C9.56592 24.2676 6.75567 23.1817 4.58667 21.2098C4.43701 21.0738 4.20537 21.0847 4.06939 21.2345C3.9333 21.3841 3.94434 21.6158 4.094 21.7518C6.39815 23.8465 9.38335 25 12.4998 25C15.8386 25 18.9777 23.6998 21.3386 21.3389C23.6995 18.978 24.9998 15.8389 24.9998 12.5C24.9998 9.38645 23.848 6.40325 21.7566 4.09988Z" fill="black"/>
<path d="M0.732422 12.5C0.732422 9.35674 1.95645 6.40166 4.17905 4.17905C6.40166 1.95645 9.35674 0.732422 12.5 0.732422C15.2811 0.732422 17.9799 1.72051 20.0991 3.5147C20.2535 3.64541 20.4846 3.62622 20.6152 3.47183C20.7459 3.31748 20.7267 3.08638 20.5724 2.95576C18.321 1.04971 15.4542 0 12.5 0C9.16113 0 6.02207 1.30024 3.66113 3.66113C1.3002 6.02207 0 9.16113 0 12.5C0 15.4439 1.04326 18.3031 2.93755 20.5509C3.00996 20.6369 3.11353 20.6811 3.21777 20.6811C3.30107 20.6811 3.38486 20.6528 3.45356 20.5949C3.60825 20.4646 3.62793 20.2335 3.49761 20.0789C1.71445 17.963 0.732422 15.2715 0.732422 12.5Z" fill="black"/>
<path d="M7.55184 6.49278C7.55975 6.29068 7.40228 6.12046 7.20018 6.1126C6.70746 6.09444 6.14505 6.34966 5.69667 6.79805C5.24823 7.24649 4.99203 7.8085 5.01127 8.30152C5.01893 8.49878 5.18124 8.65347 5.37694 8.65347C5.38177 8.65347 5.38661 8.65337 5.39149 8.65318C5.59359 8.64532 5.75101 8.4751 5.74315 8.273C5.73192 7.98472 5.91253 7.61797 6.21459 7.31592C6.51664 7.01387 6.88251 6.8336 7.17171 6.84444C7.37254 6.85162 7.54398 6.69493 7.55184 6.49278Z" fill="black"/>
<path d="M19.2572 8.27293C19.2493 8.47503 19.4067 8.64524 19.6089 8.6531C19.6138 8.6533 19.6186 8.6534 19.6234 8.6534C19.8191 8.6534 19.9814 8.49871 19.9891 8.30144C20.0083 7.80843 19.7521 7.24641 19.3037 6.79798C18.8553 6.34954 18.2931 6.09387 17.8002 6.11253C17.5981 6.12039 17.4406 6.2906 17.4485 6.4927C17.4564 6.69485 17.6268 6.8511 17.8287 6.84436C18.1176 6.83357 18.4838 7.0138 18.7858 7.31585C19.0878 7.6179 19.2684 7.9846 19.2572 8.27293Z" fill="black"/>
<path d="M7.67383 12.179C8.34692 12.179 8.89453 11.6314 8.89453 10.9583V9.40417C8.89453 8.73108 8.34692 8.18347 7.67383 8.18347C7.00073 8.18347 6.45312 8.73108 6.45312 9.40417V10.9583C6.45312 11.6314 7.00073 12.179 7.67383 12.179ZM7.18555 9.40417C7.18555 9.13494 7.40459 8.91589 7.67383 8.91589C7.94307 8.91589 8.16211 9.13494 8.16211 9.40417V10.9583C8.16211 11.2275 7.94307 11.4466 7.67383 11.4466C7.40459 11.4466 7.18555 11.2275 7.18555 10.9583V9.40417Z" fill="black"/>
<path d="M18.5469 10.9583V9.40417C18.5469 8.73108 17.9993 8.18347 17.3262 8.18347C16.6531 8.18347 16.1055 8.73108 16.1055 9.40417V10.9583C16.1055 11.6314 16.6531 12.179 17.3262 12.179C17.9993 12.179 18.5469 11.6314 18.5469 10.9583ZM16.8379 10.9583V9.40417C16.8379 9.13494 17.0569 8.91589 17.3262 8.91589C17.5954 8.91589 17.8145 9.13494 17.8145 9.40417V10.9583C17.8145 11.2275 17.5954 11.4466 17.3262 11.4466C17.0569 11.4466 16.8379 11.2275 16.8379 10.9583Z" fill="black"/>
</svg>
