<svg width="16" height="16" viewBox="0 0 16 16" fill="none" xmlns="http://www.w3.org/2000/svg">
<path fill-rule="evenodd" clip-rule="evenodd" d="M2.13374 3.89125C2.2047 3.71992 2.32488 3.57349 2.47907 3.47047C2.63326 3.36745 2.81455 3.31248 2.99999 3.3125H9.24999C10.4932 3.3125 11.6855 3.80636 12.5645 4.68544C13.4436 5.56451 13.9375 6.7568 13.9375 8C13.9375 9.2432 13.4436 10.4355 12.5645 11.3146C11.6855 12.1936 10.4932 12.6875 9.24999 12.6875H3.62499C3.37635 12.6875 3.13789 12.5887 2.96207 12.4129C2.78626 12.2371 2.68749 11.9986 2.68749 11.75C2.68749 11.5014 2.78626 11.2629 2.96207 11.0871C3.13789 10.9113 3.37635 10.8125 3.62499 10.8125H9.24999C9.99591 10.8125 10.7113 10.5162 11.2387 9.98874C11.7662 9.46129 12.0625 8.74592 12.0625 8C12.0625 7.25408 11.7662 6.53871 11.2387 6.01126C10.7113 5.48382 9.99591 5.1875 9.24999 5.1875H5.26311L5.85061 5.775C6.0213 5.95189 6.11569 6.18875 6.11344 6.43456C6.11119 6.68037 6.01248 6.91546 5.83858 7.0892C5.66467 7.26294 5.42949 7.36143 5.18368 7.36345C4.93787 7.36547 4.7011 7.27086 4.52436 7.1L2.33686 4.9125C2.20585 4.78141 2.11663 4.61444 2.08048 4.43267C2.04433 4.2509 2.06286 4.06249 2.13374 3.89125Z" fill="white"/>
</svg>
