<svg width="16" height="16" viewBox="0 0 16 16" fill="none" xmlns="http://www.w3.org/2000/svg">
<path d="M6.75 10.125L3.0625 13.8125C2.94792 13.9271 2.80208 13.9844 2.625 13.9844C2.44792 13.9844 2.30208 13.9271 2.1875 13.8125C2.07292 13.6979 2.01562 13.5521 2.01562 13.375C2.01562 13.1979 2.07292 13.0521 2.1875 12.9375L5.875 9.25H3.625C3.44792 9.25 3.29958 9.19 3.18 9.07C3.06042 8.95 3.00042 8.80167 3 8.625C2.99958 8.44833 3.05958 8.3 3.18 8.18C3.30042 8.06 3.44875 8 3.625 8H7.375C7.55208 8 7.70062 8.06 7.82063 8.18C7.94063 8.3 8.00042 8.44833 8 8.625V12.375C8 12.5521 7.94 12.7006 7.82 12.8206C7.7 12.9406 7.55167 13.0004 7.375 13C7.19833 12.9996 7.05 12.9396 6.93 12.82C6.81 12.7004 6.75 12.5521 6.75 12.375V10.125ZM10.125 6.75H12.375C12.5521 6.75 12.7006 6.81 12.8206 6.93C12.9406 7.05 13.0004 7.19833 13 7.375C12.9996 7.55167 12.9396 7.70021 12.82 7.82063C12.7004 7.94104 12.5521 8.00083 12.375 8H8.625C8.44792 8 8.29958 7.94 8.18 7.82C8.06042 7.7 8.00042 7.55167 8 7.375V3.625C8 3.44792 8.06 3.29958 8.18 3.18C8.3 3.06042 8.44833 3.00042 8.625 3C8.80167 2.99958 8.95021 3.05958 9.07063 3.18C9.19104 3.30042 9.25083 3.44875 9.25 3.625V5.875L12.9375 2.1875C13.0521 2.07292 13.1979 2.01562 13.375 2.01562C13.5521 2.01562 13.6979 2.07292 13.8125 2.1875C13.9271 2.30208 13.9844 2.44792 13.9844 2.625C13.9844 2.80208 13.9271 2.94792 13.8125 3.0625L10.125 6.75Z" fill="white"/>
</svg>
