<svg width="25" height="25" viewBox="0 0 25 25" fill="none" xmlns="http://www.w3.org/2000/svg">
<path d="M10.4167 16.6666H14.5833C14.8785 16.6666 15.126 16.5666 15.326 16.3666C15.526 16.1666 15.6257 15.9194 15.625 15.625V13.5416H13.5417V14.5833H11.4583V10.4166H13.5417V11.4583H15.625V9.37498C15.625 9.07984 15.525 8.83262 15.325 8.63331C15.125 8.43401 14.8778 8.33401 14.5833 8.33331H10.4167C10.1215 8.33331 9.8743 8.43331 9.675 8.63331C9.47569 8.83331 9.37569 9.08053 9.375 9.37498V15.625C9.375 15.9201 9.475 16.1677 9.675 16.3677C9.875 16.5677 10.1222 16.6673 10.4167 16.6666ZM12.5 22.9166C11.059 22.9166 9.70486 22.643 8.4375 22.0958C7.17014 21.5486 6.0677 20.8066 5.1302 19.8698C4.1927 18.933 3.45069 17.8305 2.90416 16.5625C2.35764 15.2944 2.08402 13.9403 2.08333 12.5C2.08264 11.0597 2.35625 9.70554 2.90416 8.43748C3.45208 7.16942 4.19409 6.06699 5.1302 5.13019C6.06632 4.19338 7.16875 3.45137 8.4375 2.90415C9.70625 2.35692 11.0604 2.08331 12.5 2.08331C13.9396 2.08331 15.2937 2.35692 16.5625 2.90415C17.8312 3.45137 18.9337 4.19338 19.8698 5.13019C20.8059 6.06699 21.5483 7.16942 22.0969 8.43748C22.6455 9.70554 22.9187 11.0597 22.9167 12.5C22.9146 13.9403 22.641 15.2944 22.0958 16.5625C21.5507 17.8305 20.8087 18.933 19.8698 19.8698C18.9309 20.8066 17.8285 21.5489 16.5625 22.0969C15.2965 22.6448 13.9424 22.918 12.5 22.9166ZM12.5 20.8333C14.8264 20.8333 16.7969 20.026 18.4115 18.4114C20.026 16.7969 20.8333 14.8264 20.8333 12.5C20.8333 10.1736 20.026 8.2031 18.4115 6.58852C16.7969 4.97394 14.8264 4.16665 12.5 4.16665C10.1736 4.16665 8.20312 4.97394 6.58854 6.58852C4.97395 8.2031 4.16666 10.1736 4.16666 12.5C4.16666 14.8264 4.97395 16.7969 6.58854 18.4114C8.20312 20.026 10.1736 20.8333 12.5 20.8333Z" fill="white"/>
</svg>
