<svg width="41" height="40" viewBox="0 0 41 40" fill="none" xmlns="http://www.w3.org/2000/svg">
<path d="M12.1783 20C12.1783 19.6685 12.31 19.3505 12.5444 19.1161C12.7789 18.8817 13.0968 18.75 13.4283 18.75H19.25V12.9283C19.25 12.5968 19.3817 12.2789 19.6161 12.0445C19.8505 11.81 20.1685 11.6783 20.5 11.6783C20.8315 11.6783 21.1495 11.81 21.3839 12.0445C21.6183 12.2789 21.75 12.5968 21.75 12.9283V18.75H27.5717C27.9032 18.75 28.2211 18.8817 28.4555 19.1161C28.69 19.3505 28.8217 19.6685 28.8217 20C28.8217 20.3315 28.69 20.6495 28.4555 20.8839C28.2211 21.1183 27.9032 21.25 27.5717 21.25H21.75V27.0717C21.75 27.4032 21.6183 27.7211 21.3839 27.9556C21.1495 28.19 20.8315 28.3217 20.5 28.3217C20.1685 28.3217 19.8505 28.19 19.6161 27.9556C19.3817 27.7211 19.25 27.4032 19.25 27.0717V21.25H13.4283C13.0968 21.25 12.7789 21.1183 12.5444 20.8839C12.31 20.6495 12.1783 20.3315 12.1783 20Z" fill="#F2F2F2"/>
<path fill-rule="evenodd" clip-rule="evenodd" d="M12.695 6.28166C17.8824 5.70657 23.1176 5.70657 28.305 6.28166C31.35 6.62166 33.8083 9.02 34.165 12.0817C34.7817 17.3433 34.7817 22.6583 34.165 27.92C33.8067 30.9817 31.3483 33.3783 28.305 33.72C23.1176 34.2951 17.8824 34.2951 12.695 33.72C9.65 33.3783 7.19167 30.9817 6.835 27.92C6.2211 22.6584 6.2211 17.3433 6.835 12.0817C7.19167 9.02 9.65167 6.62166 12.695 6.28166ZM28.0283 8.765C23.0248 8.21038 17.9752 8.21038 12.9717 8.765C12.0454 8.86776 11.1808 9.27979 10.5176 9.93453C9.85443 10.5893 9.43132 11.4485 9.31667 12.3733C8.72388 17.4416 8.72388 22.5617 9.31667 27.63C9.43167 28.5546 9.85493 29.4134 10.5181 30.0678C11.1813 30.7222 12.0457 31.134 12.9717 31.2367C17.9333 31.79 23.0667 31.79 28.0283 31.2367C28.954 31.1336 29.818 30.7217 30.4809 30.0673C31.1437 29.4129 31.5667 28.5543 31.6817 27.63C32.2745 22.5617 32.2745 17.4416 31.6817 12.3733C31.5664 11.4493 31.1432 10.5911 30.4804 9.93704C29.8176 9.283 28.9538 8.87129 28.0283 8.76833" fill="#F2F2F2"/>
</svg>
