<svg width="25" height="26" viewBox="0 0 25 26" fill="none" xmlns="http://www.w3.org/2000/svg">
<path d="M6.2513 14.5414C6.41822 14.541 6.53624 14.5929 6.63899 14.6956C6.71592 14.7726 6.76383 14.8576 6.78255 14.9652L6.79134 15.0814V18.7083H10.4163C10.5853 18.7083 10.7042 18.7599 10.806 18.8617C10.9076 18.9633 10.9586 19.0811 10.9583 19.2484C10.9579 19.417 10.9062 19.5369 10.804 19.64C10.7287 19.7158 10.6438 19.7638 10.5355 19.7826L10.4193 19.7914H6.25032C6.08149 19.7914 5.96344 19.7401 5.86263 19.639C5.78621 19.5623 5.73763 19.476 5.71809 19.3665L5.70833 19.2484V15.0833C5.70833 14.9144 5.76044 14.7965 5.86165 14.6956C5.96379 14.594 6.08262 14.5417 6.2513 14.5414ZM14.5833 6.20834H18.7503C18.919 6.20841 19.0373 6.26007 19.139 6.36166C19.2153 6.438 19.2636 6.52353 19.2825 6.63217L19.2913 6.74838V10.9164C19.2913 11.0853 19.2398 11.2042 19.138 11.306C19.0363 11.4076 18.9187 11.4587 18.7513 11.4583C18.5825 11.4579 18.4638 11.4058 18.3616 11.304C18.2604 11.2032 18.2083 11.0853 18.2083 10.9164V7.29135H14.5833C14.4144 7.29135 14.2965 7.24019 14.1956 7.13901C14.0938 7.0368 14.0417 6.91722 14.0413 6.74838C14.041 6.58167 14.0926 6.46439 14.1947 6.36264C14.2979 6.2598 14.4165 6.20834 14.5833 6.20834Z" stroke="white"/>
</svg>
