<svg width="26" height="26" viewBox="0 0 26 26" fill="none" xmlns="http://www.w3.org/2000/svg">
<path fill-rule="evenodd" clip-rule="evenodd" d="M3.625 7.79167C3.625 7.5154 3.73475 7.25045 3.9301 7.0551C4.12545 6.85975 4.3904 6.75 4.66667 6.75H21.3333C21.6096 6.75 21.8746 6.85975 22.0699 7.0551C22.2653 7.25045 22.375 7.5154 22.375 7.79167C22.375 8.06793 22.2653 8.33289 22.0699 8.52824C21.8746 8.72359 21.6096 8.83333 21.3333 8.83333H4.66667C4.3904 8.83333 4.12545 8.72359 3.9301 8.52824C3.73475 8.33289 3.625 8.06793 3.625 7.79167ZM5.70833 12.4792C5.70833 12.2029 5.81808 11.9379 6.01343 11.7426C6.20878 11.5472 6.47373 11.4375 6.75 11.4375H19.25C19.5263 11.4375 19.7912 11.5472 19.9866 11.7426C20.1819 11.9379 20.2917 12.2029 20.2917 12.4792C20.2917 12.7554 20.1819 13.0204 19.9866 13.2157C19.7912 13.4111 19.5263 13.5208 19.25 13.5208H6.75C6.47373 13.5208 6.20878 13.4111 6.01343 13.2157C5.81808 13.0204 5.70833 12.7554 5.70833 12.4792ZM8.83333 17.1667C8.83333 16.8904 8.94308 16.6254 9.13843 16.4301C9.33378 16.2347 9.59873 16.125 9.875 16.125H16.125C16.4013 16.125 16.6662 16.2347 16.8616 16.4301C17.0569 16.6254 17.1667 16.8904 17.1667 17.1667C17.1667 17.4429 17.0569 17.7079 16.8616 17.9032C16.6662 18.0986 16.4013 18.2083 16.125 18.2083H9.875C9.59873 18.2083 9.33378 18.0986 9.13843 17.9032C8.94308 17.7079 8.83333 17.4429 8.83333 17.1667Z" fill="#F2F2F2"/>
</svg>
