<svg width="25" height="25" viewBox="0 0 25 25" fill="none" xmlns="http://www.w3.org/2000/svg">
<path d="M24.1455 12.5C24.1455 19.2013 19.2013 24.5849 12.5 24.5849C12.088 24.5849 11.6808 24.6132 11.2792 24.5731C5.15122 23.9609 0.366211 18.7892 0.366211 12.5C0.366211 6.2175 5.14087 1.05021 11.2594 0.428828C11.6673 0.387422 12.0812 0.41501 12.5 0.41501C19.2013 0.41501 24.1455 5.79865 24.1455 12.5Z" fill="#FFF0AF"/>
<path d="M16.1284 14.7526H13.8555L12.5505 15.0359L11.3511 14.7526H7.89507C7.60879 14.7526 7.37671 14.9846 7.37671 15.2709V15.2934C7.37671 18.1229 9.67051 20.4167 12.5 20.4167C15.3296 20.4167 16.6468 18.1229 16.6468 15.2934L16.7445 15.2709C16.7444 14.9846 16.4147 14.7526 16.1284 14.7526Z" fill="#685E68"/>
<path d="M17.105 14.7526H15.6401C15.9264 14.7526 16.1585 14.9846 16.1585 15.2709V15.2934C16.1585 17.8742 14.2501 20.009 11.7676 20.3643C12.0068 20.3986 12.2513 20.4167 12.5 20.4167C15.3295 20.4167 17.6233 18.1229 17.6233 15.2934V15.2709C17.6233 14.9846 17.3913 14.7526 17.105 14.7526Z" fill="#554E56"/>
<path d="M12.5 0.366211C12.0879 0.366211 11.6808 0.386963 11.2793 0.4271C17.4073 1.03931 22.1924 6.21074 22.1924 12.5C22.1924 18.7893 17.4073 23.9607 11.2793 24.5729C11.6808 24.613 12.0879 24.6338 12.5 24.6338C19.2013 24.6338 24.6338 19.2013 24.6338 12.5C24.6338 5.79868 19.2013 0.366211 12.5 0.366211Z" fill="#FFE07D"/>
<path d="M12.5 22.2268C12.3077 22.2268 12.1199 22.2567 11.9384 22.2205C10.629 21.9595 9.64209 20.8039 9.64209 19.4178V16.4615C9.64209 15.5177 10.4072 14.7526 11.3511 14.7526H13.1605C14.1044 14.7526 14.8695 15.5177 14.8695 16.4615V19.4178C14.8695 20.9962 14.0783 22.2268 12.5 22.2268Z" fill="#FD8087"/>
<path d="M13.6489 14.7526H12.5258C13.4697 14.7526 14.2348 15.5177 14.2348 16.4615V19.4178C14.2348 20.8039 13.2479 21.9593 11.9385 22.2201C12.1201 22.2563 12.3078 22.2756 12.5 22.2756C14.0784 22.2756 15.3579 20.9961 15.3579 19.4177V16.4615C15.3579 15.5177 14.5927 14.7526 13.6489 14.7526Z" fill="#EE6161"/>
<path d="M21.7569 4.09988C21.6209 3.95017 21.3893 3.93899 21.2396 4.07493C21.0898 4.21087 21.0787 4.44246 21.2147 4.59226C23.1834 6.76052 24.2676 9.56892 24.2676 12.5C24.2676 15.6433 23.0436 18.5984 20.8209 20.821C18.5983 23.0436 15.6432 24.2676 12.5 24.2676C9.56616 24.2676 6.75591 23.1817 4.58692 21.2098C4.43726 21.0738 4.20562 21.0847 4.06963 21.2345C3.93355 21.3841 3.94458 21.6158 4.09424 21.7518C6.39839 23.8465 9.38359 25 12.5 25C15.8389 25 18.9779 23.6998 21.3388 21.3389C23.6998 18.978 25 15.8389 25 12.5C25 9.38645 23.8482 6.40325 21.7569 4.09988Z" fill="black"/>
<path d="M0.732422 12.5C0.732422 9.35674 1.95645 6.40166 4.17905 4.17905C6.40166 1.95645 9.35674 0.732422 12.5 0.732422C15.2811 0.732422 17.9799 1.72051 20.0991 3.5147C20.2535 3.64546 20.4846 3.62622 20.6152 3.47183C20.7459 3.31748 20.7267 3.08638 20.5724 2.95576C18.321 1.04971 15.4542 0 12.5 0C9.16113 0 6.02207 1.30024 3.66113 3.66113C1.3002 6.02207 0 9.16113 0 12.5C0 15.4439 1.04326 18.3031 2.93755 20.5509C3.00996 20.6369 3.11353 20.6811 3.21777 20.6811C3.30107 20.6811 3.38486 20.6528 3.45356 20.5949C3.6082 20.4646 3.62793 20.2335 3.49761 20.0789C1.71445 17.963 0.732422 15.2715 0.732422 12.5Z" fill="black"/>
<path d="M9.29292 19.7491C9.45933 21.3718 10.8341 22.6419 12.5 22.6419C14.166 22.6419 15.5408 21.3718 15.7072 19.749C17.1396 18.7168 17.9895 17.0644 17.9895 15.2934V15.2709C17.9895 14.7832 17.5927 14.3864 17.105 14.3864H7.89507C7.40732 14.3864 7.0105 14.7832 7.0105 15.2709V15.2934C7.0105 17.0638 7.8606 18.717 9.29292 19.7491ZM12.5 21.9094C11.1261 21.9094 10.0084 20.7917 10.0084 19.4178V16.4615C10.0084 15.7212 10.6107 15.1188 11.3512 15.1188H13.649C14.3894 15.1188 14.9917 15.7212 14.9917 16.4615V19.4178C14.9917 20.7917 13.874 21.9094 12.5 21.9094ZM17.2572 15.2709V15.2934C17.2572 16.6345 16.6946 17.8972 15.7242 18.7915V16.4615C15.7242 15.9498 15.5375 15.481 15.2293 15.1188H17.1051C17.1889 15.1188 17.2572 15.187 17.2572 15.2709ZM7.74292 15.2709C7.74292 15.187 7.81118 15.1188 7.89507 15.1188H9.7708C9.46255 15.481 9.27598 15.9498 9.27598 16.4615V18.7913C8.30566 17.897 7.74297 16.6341 7.74297 15.2934L7.74292 15.2709Z" fill="black"/>
<path d="M6.44121 11.3726C6.50904 11.4901 6.63213 11.5558 6.75869 11.5558C6.82085 11.5558 6.88379 11.5399 6.94146 11.5066L8.77251 10.4495C8.88579 10.3841 8.95562 10.2632 8.95562 10.1324C8.95562 10.0015 8.88579 9.88065 8.77251 9.81522L6.94146 8.7581C6.76626 8.65702 6.54234 8.71693 6.44121 8.89213C6.34009 9.06728 6.4001 9.29125 6.57525 9.39237L7.85698 10.1324L6.57525 10.8724C6.4001 10.9735 6.34009 11.1975 6.44121 11.3726Z" fill="black"/>
<path d="M18.5586 8.89211C18.4575 8.71691 18.2334 8.65705 18.0583 8.75807L16.2273 9.8152C16.114 9.88063 16.0442 10.0015 16.0442 10.1323C16.0442 10.2632 16.114 10.3841 16.2273 10.4495L18.0583 11.5066C18.116 11.5399 18.179 11.5557 18.2411 11.5557C18.3677 11.5557 18.4908 11.4901 18.5586 11.3726C18.6597 11.1974 18.5997 10.9735 18.4246 10.8723L17.1428 10.1323L18.4246 9.39235C18.5997 9.29123 18.6597 9.06725 18.5586 8.89211Z" fill="black"/>
<path d="M12.5 15.9264C12.2978 15.9264 12.1338 16.0903 12.1338 16.2926V19.058C12.1338 19.2603 12.2978 19.4242 12.5 19.4242C12.7022 19.4242 12.8662 19.2603 12.8662 19.058V16.2926C12.8662 16.0903 12.7022 15.9264 12.5 15.9264Z" fill="black"/>
</svg>
