<svg width="25" height="25" viewBox="0 0 25 25" fill="none" xmlns="http://www.w3.org/2000/svg">
<path d="M24.1455 12.5C24.1455 19.2013 19.2013 24.5849 12.5 24.5849C12.088 24.5849 11.6808 24.6132 11.2792 24.5731C5.15122 23.9609 0.366211 18.7892 0.366211 12.5C0.366211 6.2175 5.14087 1.05021 11.2594 0.428828C11.6673 0.387422 12.0812 0.41501 12.5 0.41501C19.2013 0.41501 24.1455 5.79865 24.1455 12.5Z" fill="#FFF0AF"/>
<path d="M17.0037 11.1818L11.2524 17.3443C11.05 17.5468 11.05 17.8749 11.2524 18.0774L11.2683 18.0932C11.4958 18.3208 11.3237 18.5271 11.5798 18.7029C13.3772 19.937 15.7868 19.8956 17.5433 18.5791C17.7366 18.4342 17.8876 18.2392 18.0635 18.0634C20.0642 16.0626 19.7535 13.1985 17.7527 11.1977L17.7368 11.1818C17.5344 10.9794 17.2062 10.9794 17.0037 11.1818Z" fill="#FD8087"/>
<path d="M17.0382 11.2164L16.3477 11.907C16.5501 11.7045 16.8438 11.67 17.0462 11.8725L17.0621 11.8884C18.887 13.7133 19.0471 16.5722 17.543 18.5789C17.7364 18.434 17.9221 18.2739 18.0979 18.098C19.8711 16.3248 20.0729 13.5752 18.703 11.5798C18.5272 11.3238 17.9802 11.4254 17.7527 11.1978L17.7368 11.182C17.5343 10.9795 17.2406 11.014 17.0382 11.2164Z" fill="#EE6161"/>
<path d="M17.0035 11.1818L10.8364 17.349C10.634 17.5514 10.634 17.8796 10.8364 18.082L10.8523 18.0979C11.0799 18.3255 11.3237 18.5269 11.5798 18.7027C13.0216 17.8737 14.3796 16.8442 15.6118 15.612C16.4556 14.7681 17.2044 13.8653 17.8588 12.917C18.16 12.4805 18.096 12.3796 18.3573 11.9251C18.1815 11.669 17.9801 11.4252 17.7525 11.1977L17.7366 11.1818C17.5342 10.9794 17.206 10.9794 17.0035 11.1818Z" fill="#F3F0F3"/>
<path d="M17.0465 11.8724L17.0624 11.8883C17.3777 12.2036 17.6432 12.5497 17.8591 12.917C18.1604 12.4805 18.4417 12.0344 18.703 11.5799C18.5272 11.3238 18.3258 11.08 18.0982 10.8524L18.0823 10.8365C17.8799 10.6341 17.5517 10.6341 17.3493 10.8365L16.3135 11.8723C16.5159 11.67 16.844 11.67 17.0465 11.8724Z" fill="#E2DEE2"/>
<path d="M12.5 0.366211C12.0879 0.366211 11.6808 0.386963 11.2793 0.4271C17.4074 1.03931 22.1924 6.21074 22.1924 12.5C22.1924 18.7893 17.4074 23.9607 11.2793 24.5729C11.6808 24.613 12.0879 24.6338 12.5 24.6338C19.2013 24.6338 24.6338 19.2013 24.6338 12.5C24.6338 5.79868 19.2013 0.366211 12.5 0.366211Z" fill="#FFE07D"/>
<path d="M5.70858 20.3227L7.32167 17.5288L7.59853 17.147C7.69247 16.9842 7.92743 16.9842 8.02138 17.147L9.42299 20.3227C10.3569 21.9404 9.67777 23.9136 7.8099 23.9136C7.64105 23.9136 7.47797 23.9459 7.32157 23.9146C5.74818 23.6001 4.85907 21.7941 5.70858 20.3227Z" fill="#8AC9FE"/>
<path d="M9.91094 20.3227L8.021 17.0493C7.92705 16.8866 7.69209 16.8866 7.59814 17.0493L7.32129 17.5288L8.93437 20.3227C9.78389 21.7941 8.89468 23.5998 7.32129 23.9143C7.47769 23.9456 7.64072 23.9623 7.80957 23.9623C9.67749 23.9624 10.8449 21.9404 9.91094 20.3227Z" fill="#60B7FF"/>
<path d="M20.3227 9.91114L17.0493 8.0212C16.8866 7.92726 16.8866 7.6923 17.0493 7.59835L20.3227 5.70846C20.5575 5.57291 20.8008 5.4816 21.0452 5.43033C22.4847 5.12814 23.4741 6.21305 23.4741 7.80983C23.4741 9.4066 22.4847 10.4915 21.0452 10.1893C20.8008 10.138 20.5575 10.0467 20.3227 9.91114Z" fill="#8AC9FE"/>
<path d="M21.0454 5.43056C22.1075 5.65195 22.986 6.57865 22.986 7.80976C22.986 9.04091 22.1075 9.96757 21.0454 10.189C22.4849 10.4911 23.9625 9.40649 23.9625 7.80976C23.9625 6.21303 22.4849 5.12846 21.0454 5.43056Z" fill="#60B7FF"/>
<path d="M7.41887 15.987C7.45061 15.9955 7.48254 15.9996 7.51389 15.9996C7.67556 15.9996 7.82356 15.8917 7.86735 15.7281L8.41462 13.6858C8.44846 13.5595 8.41237 13.4246 8.31989 13.3321C8.22732 13.2396 8.0925 13.2035 7.96613 13.2374L5.92385 13.7846C5.72849 13.8369 5.61257 14.0378 5.66491 14.2331C5.71721 14.4285 5.91804 14.5446 6.11345 14.492L7.54304 14.109L7.15993 15.5385C7.10759 15.7338 7.22351 15.9346 7.41887 15.987Z" fill="black"/>
<path d="M15.5383 7.15976L14.1087 7.54286L14.4918 6.11327C14.5441 5.91791 14.4282 5.71708 14.2328 5.66474C14.0374 5.6122 13.8367 5.72831 13.7843 5.92367L13.2371 7.96596C13.2033 8.09237 13.2393 8.22724 13.3318 8.31972C13.4014 8.3893 13.495 8.42694 13.5908 8.42694C13.6224 8.42694 13.6543 8.42284 13.6856 8.41444L15.7278 7.86718C15.9232 7.81483 16.0391 7.614 15.9867 7.41864C15.9344 7.22338 15.7336 7.10731 15.5383 7.15976Z" fill="black"/>
<path d="M10.3184 17.7156C10.3184 17.9519 10.4104 18.1741 10.5774 18.3411L10.5933 18.3569C11.6301 19.3938 13.0087 19.9648 14.475 19.9648C15.9413 19.9648 17.3199 19.3938 18.3567 18.3569C19.3935 17.3201 19.9646 15.9416 19.9646 14.4752C19.9646 13.0089 19.3936 11.6304 18.3567 10.5936L18.3408 10.5777C18.1738 10.4106 17.9516 10.3186 17.7153 10.3186C17.4791 10.3186 17.2569 10.4106 17.0898 10.5777L10.5775 17.0901C10.4104 17.2571 10.3184 17.4793 10.3184 17.7156ZM17.8388 17.8391C16.9403 18.7375 15.7457 19.2324 14.475 19.2324C13.7026 19.2324 12.9584 19.0492 12.2916 18.704C13.5861 17.9042 14.7884 16.9533 15.8708 15.871C16.9531 14.7886 17.904 13.5865 18.7038 12.2919C19.049 12.9586 19.2321 13.7028 19.2321 14.4752C19.2321 15.7459 18.7373 16.9405 17.8388 17.8391ZM11.0954 17.608L17.6078 11.0956C17.6078 11.0956 17.6078 11.0956 17.6078 11.0956C17.6465 11.0568 17.6918 11.051 17.7153 11.051C17.7388 11.051 17.7841 11.0568 17.8229 11.0956L17.8388 11.1115C17.9933 11.266 18.1356 11.4295 18.2658 11.6005C17.459 12.9639 16.48 14.2259 15.3528 15.353C14.2257 16.4801 12.9636 17.4593 11.6002 18.2661C11.4293 18.1358 11.2658 17.9936 11.1112 17.839L11.0953 17.8231C11.0565 17.7843 11.0508 17.7391 11.0508 17.7155C11.0508 17.692 11.0565 17.6468 11.0954 17.608Z" fill="black"/>
<path d="M0.732422 12.5C0.732422 9.35674 1.95645 6.40161 4.17905 4.17905C6.40161 1.95645 9.35674 0.732422 12.5 0.732422C15.2812 0.732422 17.9799 1.72051 20.0992 3.5147C20.2535 3.64541 20.4846 3.62622 20.6152 3.47183C20.7459 3.31748 20.7268 3.08638 20.5724 2.95576C18.321 1.04971 15.4542 0 12.5 0C9.16113 0 6.02207 1.30024 3.66113 3.66113C1.30024 6.02207 0 9.16113 0 12.5C0 15.444 1.04326 18.3032 2.93755 20.5509C3.01001 20.6369 3.11353 20.6811 3.21777 20.6811C3.30107 20.6811 3.38491 20.6528 3.45356 20.5949C3.60825 20.4646 3.62793 20.2335 3.49761 20.0789C1.71445 17.9631 0.732422 15.2715 0.732422 12.5Z" fill="black"/>
<path d="M24.2828 8.31817C24.3127 8.15279 24.3284 7.98287 24.3284 7.80982C24.3284 6.80025 23.8064 5.89615 22.9321 5.39136C22.8551 5.34693 22.7767 5.3066 22.6974 5.26998C22.4082 4.86295 22.0923 4.46954 21.7567 4.09986C21.6207 3.95015 21.3891 3.93902 21.2393 4.07491C21.0896 4.21085 21.0784 4.44244 21.2144 4.59224C21.3386 4.72906 21.459 4.87027 21.5771 5.01343C21.0838 5.00596 20.5892 5.1317 20.1394 5.39136L16.8659 7.28126C16.6749 7.39166 16.5608 7.58926 16.5608 7.80992C16.5609 8.03052 16.6749 8.22808 16.866 8.33839L20.1394 10.2283C20.5766 10.4807 21.0561 10.6069 21.5358 10.6069C22.0153 10.6069 22.4949 10.4807 22.9321 10.2283C23.3072 10.0118 23.6172 9.72159 23.8491 9.3813C24.1265 10.3925 24.2674 11.4379 24.2674 12.5C24.2674 15.6433 23.0433 18.5984 20.8207 20.821C18.5982 23.0436 15.643 24.2676 12.4998 24.2676C11.4375 24.2676 10.3923 24.1268 9.38103 23.8494C9.72136 23.6174 10.0115 23.3074 10.2281 22.9323C10.7329 22.058 10.7329 21.014 10.2281 20.1397L8.33821 16.8663C8.22786 16.6752 8.0303 16.5611 7.80969 16.5611C7.80965 16.5611 7.80965 16.5611 7.8096 16.5611C7.58894 16.5611 7.39138 16.6752 7.28103 16.8663L5.39114 20.1397C5.13147 20.5895 5.00574 21.0841 5.01321 21.5774C4.86819 21.4577 4.72517 21.3358 4.5867 21.2099C4.43714 21.0739 4.20545 21.0849 4.06936 21.2346C3.93333 21.3842 3.94431 21.6159 4.09402 21.7519C4.46521 22.0894 4.86057 22.4071 5.2698 22.6978C5.30642 22.7772 5.34671 22.8555 5.39114 22.9324C5.89592 23.8067 6.80003 24.3288 7.8096 24.3288C7.98294 24.3288 8.153 24.313 8.31863 24.2831C9.65852 24.7585 11.0648 25 12.4998 25C15.8386 25 18.9777 23.6998 21.3386 21.3389C23.6995 18.9779 24.9998 15.8389 24.9998 12.5C24.9998 11.065 24.7585 9.65811 24.2828 8.31817ZM22.5658 9.594C21.9207 9.96641 21.1507 9.96636 20.5056 9.594L17.4153 7.80977L20.5056 6.02559C21.1507 5.65323 21.9209 5.65328 22.5658 6.02559C23.2109 6.398 23.596 7.06495 23.596 7.80977C23.596 8.5546 23.2109 9.22159 22.5658 9.594ZM6.02537 22.5661C5.65296 21.9211 5.65296 21.1509 6.02537 20.5059L7.80955 17.4155L9.59378 20.5059C9.96619 21.1509 9.96619 21.9211 9.59378 22.5661C9.22136 23.2111 8.55437 23.5962 7.80955 23.5962C7.06472 23.5962 6.39778 23.2111 6.02537 22.5661Z" fill="black"/>
</svg>
