<svg width="45" height="14" viewBox="0 0 45 14" fill="none" xmlns="http://www.w3.org/2000/svg">
<path d="M8.81 6.29502V12.035C8.81 12.075 8.8 12.145 8.75 12.165C8.75 12.165 7.5 13.055 5.44 13.055C2.95 13.055 0 12.275 0 7.13502C0 1.99502 2.58 0.935016 5.1 0.945016C7.28 0.945016 8.16 1.43502 8.3 1.52502C8.34 1.57502 8.36 1.61502 8.36 1.66502L7.94 3.44502C7.94 3.53502 7.85 3.64502 7.74 3.61502C7.38 3.50502 6.84 3.28502 5.57 3.28502C4.1 3.28502 2.52 3.70502 2.52 7.01502C2.52 10.325 4.02 10.715 5.1 10.715C6.02 10.715 6.35 10.605 6.35 10.605V8.30502H4.88C4.77 8.30502 4.69 8.22502 4.69 8.13502V6.29502C4.69 6.20502 4.77 6.12502 4.88 6.12502H8.62C8.73 6.12502 8.81 6.20502 8.81 6.29502ZM44.66 8.62502C44.66 12.055 43.55 13.035 41.61 13.035C39.97 13.035 39.09 12.205 39.09 12.205C39.09 12.205 39.05 12.665 39 12.725C38.97 12.785 38.92 12.805 38.86 12.805H37.38C37.28 12.805 37.19 12.725 37.19 12.635L37.21 1.52502C37.21 1.43502 37.29 1.35502 37.38 1.35502H39.51C39.6 1.35502 39.68 1.43502 39.68 1.52502V5.29502C39.68 5.29502 40.5 4.76502 41.7 4.76502L41.69 4.74502C42.89 4.74502 44.66 5.19502 44.66 8.62502ZM27.68 1.37502C27.77 1.37502 27.85 1.45502 27.85 1.54502V12.655C27.85 12.745 27.77 12.825 27.68 12.825H25.55C25.46 12.825 25.38 12.745 25.38 12.655L25.4 7.90502H22.09V12.655C22.09 12.745 22.01 12.825 21.92 12.825H19.79C19.71 12.825 19.62 12.745 19.62 12.655V1.54502C19.62 1.45502 19.7 1.37502 19.79 1.37502H21.92C22.01 1.37502 22.09 1.45502 22.09 1.54502V5.63502H25.4V1.54502C25.4 1.45502 25.48 1.37502 25.57 1.37502H27.68ZM35.94 5.01502C36.05 5.01502 36.13 5.09502 36.13 5.18502L36.11 12.655C36.11 12.745 36.05 12.825 35.94 12.825H34.6C34.53 12.825 34.46 12.785 34.44 12.735C34.41 12.675 34.36 12.285 34.36 12.285C34.36 12.285 33.23 13.055 31.84 13.055C30.15 13.055 28.92 12.505 28.92 10.305V5.19502C28.92 5.10502 29 5.02502 29.09 5.02502H31.23C31.32 5.02502 31.4 5.10502 31.4 5.19502V9.94502C31.4 10.695 31.62 11.035 32.37 11.035C33.12 11.035 33.67 10.645 33.67 10.645V5.20502C33.67 5.09502 33.73 5.01502 33.84 5.01502H35.94ZM18.534 10.986H18.539C18.5795 10.995 18.6157 11.0177 18.6414 11.0504C18.6671 11.083 18.6808 11.1235 18.68 11.165V12.665C18.68 12.735 18.65 12.805 18.59 12.825C18.49 12.875 17.85 13.045 17.32 13.045C16.16 13.045 14.46 12.795 14.46 10.355V7.07502H13.35C13.26 7.07502 13.18 6.99502 13.18 6.88502V5.52502C13.18 5.44502 13.23 5.37502 13.31 5.35502C13.38 5.34502 14.47 5.07502 14.47 5.07502V2.90502C14.47 2.82502 14.52 2.77502 14.61 2.77502H16.77C16.86 2.77502 16.91 2.82502 16.91 2.90502V5.01502H18.5C18.58 5.01502 18.66 5.09502 18.66 5.18502V6.88502C18.66 6.99502 18.59 7.07502 18.5 7.07502H16.91V10.206C16.91 10.676 17.18 11.036 17.96 11.036C18.207 11.036 18.441 10.987 18.534 10.986ZM12.24 5.00502C12.33 5.00502 12.41 5.08502 12.41 5.17502V12.545C12.41 12.725 12.36 12.815 12.16 12.815H10.24C10.07 12.815 9.94 12.745 9.94 12.545V5.20502C9.94 5.09502 10.02 5.00502 10.11 5.00502H12.24ZM42.23 8.78502C42.23 6.97502 41.5 6.73502 40.73 6.81502C40.13 6.85502 39.65 7.15502 39.65 7.15502V10.675C39.65 10.675 40.14 11.015 40.87 11.035C41.9 11.065 42.23 10.695 42.23 8.78502ZM11.19 1.62502C11.94 1.62502 12.55 2.23502 12.55 3.00502C12.55 3.77502 11.94 4.38502 11.19 4.38502C10.42 4.38502 9.81 3.77502 9.81 3.00502C9.81 2.23502 10.42 1.62502 11.19 1.62502ZM18.53 10.975L18.54 10.985H18.539L18.534 10.984V10.985C18.525 10.984 18.519 10.974 18.51 10.974L18.53 10.975Z" fill="white"/>
</svg>
