<svg width="25" height="25" viewBox="0 0 25 25" fill="none" xmlns="http://www.w3.org/2000/svg">
<path d="M24.1455 12.5C24.1455 19.2013 19.2013 24.5849 12.5 24.5849C12.088 24.5849 11.6808 24.6132 11.2792 24.5731C5.15122 23.9609 0.366211 18.7892 0.366211 12.5C0.366211 6.2175 5.14087 1.05021 11.2594 0.428828C11.6673 0.387422 12.0812 0.41501 12.5 0.41501C19.2013 0.41501 24.1455 5.79865 24.1455 12.5Z" fill="#FFF0AF"/>
<path d="M6.32817 13.4925C7.32463 13.4925 8.13242 13.0886 8.13242 12.5904C8.13242 12.0921 7.32463 11.6882 6.32817 11.6882C5.33172 11.6882 4.52393 12.0921 4.52393 12.5904C4.52393 13.0886 5.33172 13.4925 6.32817 13.4925Z" fill="#FD8087"/>
<path d="M18.6719 13.4925C19.6684 13.4925 20.4762 13.0886 20.4762 12.5904C20.4762 12.0921 19.6684 11.6882 18.6719 11.6882C17.6755 11.6882 16.8677 12.0921 16.8677 12.5904C16.8677 13.0886 17.6755 13.4925 18.6719 13.4925Z" fill="#FD8087"/>
<path d="M12.5 0.366211C12.0879 0.366211 11.6808 0.386963 11.2793 0.4271C17.4074 1.03931 22.1924 6.21074 22.1924 12.5C22.1924 18.7893 17.4074 23.9607 11.2793 24.5729C11.6808 24.613 12.0879 24.6338 12.5 24.6338C19.2013 24.6338 24.6338 19.2013 24.6338 12.5C24.6338 5.79868 19.2013 0.366211 12.5 0.366211Z" fill="#FFE07D"/>
<path d="M12.5 18.4518C10.7169 18.4518 8.93378 17.7731 7.57626 16.4156C7.43324 16.2726 7.43324 16.0407 7.57626 15.8977C7.71932 15.7547 7.95116 15.7547 8.09418 15.8977C10.5236 18.3271 14.4765 18.3271 16.9058 15.8977C17.0489 15.7547 17.2808 15.7547 17.4238 15.8977C17.5668 16.0407 17.5668 16.2726 17.4238 16.4156C16.0663 17.7731 14.2832 18.4518 12.5 18.4518Z" fill="black"/>
<path d="M9.02012 10.8872C8.89356 10.8872 8.77046 10.8215 8.70264 10.7041C8.48789 10.3322 8.10337 10.1101 7.67398 10.1101C7.24453 10.1101 6.86001 10.3321 6.64531 10.7041C6.54419 10.8792 6.32027 10.9392 6.14507 10.8381C5.96992 10.737 5.90991 10.513 6.01104 10.3378C6.35811 9.73667 6.97984 9.37769 7.67403 9.37769C8.36821 9.37769 8.98989 9.73662 9.33701 10.3378C9.43814 10.513 9.37813 10.737 9.20298 10.8381C9.14527 10.8713 9.08228 10.8872 9.02012 10.8872Z" fill="black"/>
<path d="M18.6722 10.8872C18.5457 10.8872 18.4226 10.8215 18.3547 10.7041C18.14 10.3322 17.7555 10.1101 17.3261 10.1101C16.8966 10.1101 16.5121 10.3321 16.2974 10.7041C16.1963 10.8792 15.9723 10.9392 15.7972 10.8381C15.622 10.737 15.562 10.513 15.6631 10.3378C16.0102 9.73667 16.6319 9.37769 17.3261 9.37769C18.0203 9.37769 18.642 9.73662 18.9891 10.3378C19.0902 10.513 19.0302 10.737 18.8551 10.8381C18.7974 10.8713 18.7344 10.8872 18.6722 10.8872Z" fill="black"/>
<path d="M6.32822 13.8587C5.09082 13.8587 4.15771 13.3135 4.15771 12.5904C4.15771 11.8673 5.09082 11.322 6.32822 11.322C7.56562 11.322 8.49868 11.8673 8.49868 12.5904C8.49868 13.3135 7.56558 13.8587 6.32822 13.8587ZM6.32822 12.0545C5.37939 12.0545 4.89014 12.4301 4.89014 12.5904C4.89014 12.7507 5.37944 13.1264 6.32822 13.1264C7.277 13.1264 7.76626 12.7507 7.76626 12.5904C7.76626 12.4301 7.27695 12.0545 6.32822 12.0545Z" fill="black"/>
<path d="M18.6719 13.8587C17.4345 13.8587 16.5015 13.3135 16.5015 12.5904C16.5015 11.8673 17.4345 11.322 18.6719 11.322C19.9093 11.322 20.8424 11.8673 20.8424 12.5904C20.8425 13.3135 19.9093 13.8587 18.6719 13.8587ZM18.6719 12.0545C17.7231 12.0545 17.2339 12.4301 17.2339 12.5904C17.2339 12.7507 17.7232 13.1264 18.6719 13.1264C19.6208 13.1264 20.11 12.7507 20.11 12.5904C20.1101 12.4301 19.6208 12.0545 18.6719 12.0545Z" fill="black"/>
<path d="M12.5 25C9.3836 25 6.39835 23.8465 4.09425 21.7518C3.94459 21.6158 3.93355 21.3842 4.06959 21.2345C4.20572 21.0848 4.43726 21.0739 4.58692 21.2099C6.75592 23.1817 9.56622 24.2676 12.5 24.2676C15.6433 24.2676 18.5984 23.0436 20.821 20.821C23.0436 18.5984 24.2676 15.6433 24.2676 12.5C24.2676 9.56889 23.1834 6.76049 21.2147 4.59223C21.0787 4.44252 21.0899 4.21088 21.2396 4.07494C21.3893 3.93901 21.621 3.95014 21.7569 4.0999C23.8483 6.40322 25 9.38642 25 12.5C25 15.8389 23.6998 18.978 21.3389 21.3389C18.9779 23.6998 15.8389 25 12.5 25Z" fill="black"/>
<path d="M3.21777 20.6811C3.11353 20.6811 3.01001 20.6369 2.93755 20.5509C1.04326 18.3032 0 15.444 0 12.5C0 9.16113 1.30024 6.02207 3.66113 3.66113C6.02207 1.3002 9.16113 0 12.5 0C15.4542 0 18.321 1.04971 20.5724 2.95576C20.7268 3.08643 20.7459 3.31753 20.6152 3.47187C20.4845 3.62622 20.2535 3.64541 20.0992 3.51475C17.9799 1.72051 15.2811 0.732422 12.5 0.732422C9.35674 0.732422 6.40166 1.95645 4.17905 4.17905C1.95645 6.40166 0.732422 9.35674 0.732422 12.5C0.732422 15.2715 1.71445 17.9631 3.49766 20.0789C3.62798 20.2335 3.6083 20.4646 3.45361 20.5949C3.38491 20.6528 3.30107 20.6811 3.21777 20.6811Z" fill="black"/>
</svg>
