<svg width="25" height="25" viewBox="0 0 25 25" fill="none" xmlns="http://www.w3.org/2000/svg">
<path d="M24.1455 12.5C24.1455 19.2013 19.2013 24.5849 12.5 24.5849C12.088 24.5849 11.6808 24.6132 11.2792 24.5731C5.15122 23.9609 0.366211 18.7892 0.366211 12.5C0.366211 6.2175 5.14087 1.05021 11.2594 0.428828C11.6673 0.387422 12.0812 0.41501 12.5 0.41501C19.2013 0.41501 24.1455 5.79865 24.1455 12.5Z" fill="#FFF0AF"/>
<path d="M16.6168 14.7526L8.19243 15.0433C7.90615 15.0433 7.67407 15.2754 7.67407 15.5616V15.5841C7.67407 15.9059 7.40644 15.9301 7.46323 16.2355C7.86162 18.379 9.59468 20.0537 11.7676 20.3648C12.0068 20.399 12.2514 20.3679 12.5001 20.3679C15.3296 20.3679 17.1352 18.1229 17.1352 15.2934V15.2709C17.1352 14.9846 16.9031 14.7526 16.6168 14.7526Z" fill="#FD8087"/>
<path d="M16.6167 14.8014H15.6401C15.9264 14.8014 16.1585 14.9846 16.1585 15.2709V15.2934C16.1585 17.8742 14.2501 20.009 11.7676 20.3643C12.0068 20.3986 12.2513 20.4167 12.5 20.4167C15.0077 20.4167 17.0946 18.615 17.5369 16.2354C17.5936 15.9301 17.135 15.6152 17.135 15.2933V15.2709C17.1351 14.9846 16.903 14.8014 16.6167 14.8014Z" fill="#EE6161"/>
<path d="M16.6167 14.7526H7.89507C7.60879 14.7526 7.37671 14.9846 7.37671 15.2709V15.2934C7.37671 15.6152 7.40669 15.93 7.46348 16.2354C9.06919 16.6687 10.7574 16.901 12.5 16.901C13.6934 16.901 14.8612 16.7921 15.9945 16.5843C16.5162 16.4886 16.5422 16.3719 17.0483 16.2354C17.1051 15.93 17.1351 15.6152 17.1351 15.2934V15.2709C17.1351 14.9846 16.903 14.7526 16.6167 14.7526Z" fill="#F3F0F3"/>
<path d="M16.1585 15.2709V15.2934C16.1585 15.7393 16.1015 16.1718 15.9944 16.5842C16.5161 16.4885 17.0305 16.372 17.5366 16.2354C17.5934 15.93 17.6233 15.6152 17.6233 15.2934V15.2709C17.6233 14.9846 17.3913 14.7526 17.105 14.7526H15.6401C15.9264 14.7526 16.1585 14.9846 16.1585 15.2709Z" fill="#E2DEE2"/>
<path d="M12.5 0.366211C12.0879 0.366211 11.6808 0.386963 11.2793 0.4271C17.4073 1.03931 22.1924 6.21074 22.1924 12.5C22.1924 18.7893 17.4073 23.9607 11.2793 24.5729C11.6808 24.613 12.0879 24.6338 12.5 24.6338C19.2013 24.6338 24.6338 19.2013 24.6338 12.5C24.6338 5.79868 19.2013 0.366211 12.5 0.366211Z" fill="#FFE07D"/>
<path d="M7.67407 11.7639C7.20215 11.7639 6.81958 11.3813 6.81958 10.9094V9.35535C6.81958 8.88342 7.20215 8.50085 7.67407 8.50085C8.146 8.50085 8.52856 8.88342 8.52856 9.35535V10.9094C8.52856 11.3813 8.146 11.7639 7.67407 11.7639Z" fill="#685E68"/>
<path d="M17.3259 11.7639C16.854 11.7639 16.4714 11.3813 16.4714 10.9094V9.35535C16.4714 8.88342 16.854 8.50085 17.3259 8.50085C17.7979 8.50085 18.1804 8.88342 18.1804 9.35535V10.9094C18.1804 11.3813 17.7979 11.7639 17.3259 11.7639Z" fill="#685E68"/>
<path d="M0.732422 12.5C0.732422 9.35674 1.95645 6.40166 4.17905 4.17905C6.40166 1.95645 9.35674 0.732422 12.5 0.732422C15.2811 0.732422 17.9798 1.72051 20.0991 3.51475C20.2535 3.64546 20.4846 3.62622 20.6152 3.47187C20.7459 3.31748 20.7267 3.08643 20.5724 2.95576C18.321 1.04971 15.4542 0 12.5 0C9.16113 0 6.02207 1.3002 3.66113 3.66113C1.3002 6.02207 0 9.16113 0 12.5C0 15.444 1.04326 18.3032 2.93755 20.5509C3.00996 20.6369 3.11353 20.6811 3.21777 20.6811C3.30107 20.6811 3.38486 20.6528 3.45356 20.5949C3.6082 20.4646 3.62793 20.2335 3.49761 20.0789C1.71445 17.963 0.732422 15.2715 0.732422 12.5Z" fill="black"/>
<path d="M21.7569 4.09979C21.6209 3.95004 21.3893 3.93886 21.2396 4.07484C21.0898 4.21083 21.0787 4.44242 21.2147 4.59213C23.1834 6.76039 24.2676 9.56879 24.2676 12.4999C24.2676 15.6432 23.0436 18.5983 20.8209 20.8209C18.5983 23.0435 15.6432 24.2675 12.5 24.2675C9.56616 24.2675 6.75591 23.1816 4.58692 21.2098C4.43726 21.0737 4.20562 21.0847 4.06963 21.2344C3.93355 21.384 3.94458 21.6156 4.09424 21.7517C6.39839 23.8464 9.38359 24.9999 12.5 24.9999C15.8389 24.9999 18.9779 23.6997 21.3388 21.3388C23.6998 18.9779 25 15.8388 25 12.4999C25 9.38632 23.8482 6.40311 21.7569 4.09979Z" fill="black"/>
<path d="M12.5 20.7829C15.527 20.7829 17.9896 18.3203 17.9896 15.2934V15.2709C17.9896 14.7832 17.5928 14.3864 17.105 14.3864H7.89507C7.40732 14.3864 7.0105 14.7832 7.0105 15.2709V15.2934C7.0105 18.3203 9.4731 20.7829 12.5 20.7829ZM12.5 20.0505C10.3812 20.0505 8.58179 18.658 7.96812 16.7402C9.44829 17.0897 10.9702 17.2673 12.5 17.2673C14.03 17.2673 15.5517 17.0898 17.0319 16.7403C16.4183 18.658 14.6188 20.0505 12.5 20.0505ZM7.74292 15.2709C7.74292 15.187 7.81118 15.1188 7.89507 15.1188H17.105C17.1889 15.1188 17.2572 15.187 17.2572 15.2709V15.2934C17.2572 15.5132 17.2418 15.7294 17.2129 15.9413C15.6784 16.3348 14.0939 16.5348 12.5001 16.5348C10.9063 16.5348 9.32163 16.3348 7.7873 15.9413C7.7583 15.7294 7.74302 15.5132 7.74302 15.2934V15.2709H7.74292Z" fill="black"/>
<path d="M8.89478 10.9094V9.35535C8.89478 8.68225 8.34717 8.13464 7.67407 8.13464C7.00098 8.13464 6.45337 8.68225 6.45337 9.35535V10.9094C6.45337 11.5825 7.00098 12.1301 7.67407 12.1301C8.34717 12.1301 8.89478 11.5825 8.89478 10.9094ZM7.18579 10.9094V9.35535C7.18579 9.08611 7.40483 8.86707 7.67407 8.86707C7.94331 8.86707 8.16235 9.08611 8.16235 9.35535V10.9094C8.16235 11.1786 7.94331 11.3977 7.67407 11.3977C7.40483 11.3977 7.18579 11.1786 7.18579 10.9094Z" fill="black"/>
<path d="M18.5466 10.9094V9.35535C18.5466 8.68225 17.999 8.13464 17.3259 8.13464C16.6528 8.13464 16.1052 8.68225 16.1052 9.35535V10.9094C16.1052 11.5825 16.6528 12.1301 17.3259 12.1301C17.999 12.1301 18.5466 11.5825 18.5466 10.9094ZM17.8142 10.9094C17.8142 11.1786 17.5952 11.3977 17.3259 11.3977C17.0567 11.3977 16.8376 11.1786 16.8376 10.9094V9.35535C16.8376 9.08611 17.0567 8.86707 17.3259 8.86707C17.5952 8.86707 17.8142 9.08611 17.8142 9.35535V10.9094Z" fill="black"/>
</svg>
