<svg width="16" height="16" viewBox="0 0 16 16" fill="none" xmlns="http://www.w3.org/2000/svg">
<path d="M3 14.25H13" stroke="black" stroke-linecap="round"/>
<path d="M11.9608 5.56942L12.4246 5.10692C12.6072 4.92434 12.752 4.70758 12.8509 4.46902C12.9497 4.23045 13.0006 3.97475 13.0007 3.71652C13.0007 3.45829 12.9499 3.20257 12.8511 2.96399C12.7523 2.7254 12.6074 2.5086 12.4249 2.32599C12.2423 2.14337 12.0255 1.9985 11.787 1.89965C11.5484 1.8008 11.2927 1.74991 11.0345 1.74988C10.7762 1.74985 10.5205 1.80068 10.2819 1.89948C10.0433 1.99827 9.82655 2.14309 9.64393 2.32567L9.18018 2.78942C9.18018 2.78942 9.2383 3.77442 10.1071 4.64317C10.9758 5.51192 11.9608 5.57005 11.9608 5.57005L7.70018 9.83067C7.41143 10.1194 7.26768 10.2632 7.1083 10.3875C6.92038 10.5342 6.71851 10.659 6.50268 10.7619C6.3208 10.8488 6.12705 10.9132 5.74018 11.0419L4.09893 11.5894M9.18018 2.7888L4.91955 7.05005C4.6308 7.3388 4.48643 7.48255 4.36268 7.64192C4.21608 7.82948 4.09054 8.03257 3.9883 8.24755C3.90143 8.42942 3.83705 8.62317 3.70768 9.01005L3.1608 10.6513M3.1608 10.6513L3.02768 11.0519C2.99647 11.1453 2.99191 11.2456 3.0145 11.3415C3.0371 11.4373 3.08596 11.525 3.1556 11.5946C3.22524 11.6643 3.31291 11.7131 3.40877 11.7357C3.50463 11.7583 3.60489 11.7538 3.6983 11.7225L4.09893 11.5894M3.1608 10.6513L4.09893 11.5894" stroke="black"/>
</svg>
