<svg width="16" height="16" viewBox="0 0 16 16" fill="none" xmlns="http://www.w3.org/2000/svg">
<mask id="path-1-inside-1_439_477" fill="white">
<path fill-rule="evenodd" clip-rule="evenodd" d="M5.11004 0.56294C5.00426 0.536302 4.8924 0.548997 4.79527 0.598662C4.69815 0.648328 4.62237 0.731584 4.58204 0.83294L3.65404 3.15294L1.33304 4.08294C1.26903 4.10861 1.21178 4.14865 1.1657 4.19997C1.11962 4.25128 1.08596 4.3125 1.06731 4.3789C1.04866 4.44529 1.04551 4.51509 1.05812 4.58289C1.07074 4.65069 1.09876 4.71469 1.14004 4.76994L2.51104 6.59894L1.56304 10.3909C1.53709 10.4954 1.54946 10.6057 1.59789 10.7019C1.64633 10.798 1.72763 10.8736 1.82704 10.9149L4.70004 12.1129L6.12504 14.2499C6.17795 14.3293 6.25469 14.3897 6.3442 14.4226C6.43371 14.4555 6.53135 14.4591 6.62304 14.4329L10.123 13.4329L10.141 13.4269L13.141 12.4269C13.2149 12.4023 13.281 12.359 13.3331 12.3011C13.3851 12.2433 13.4213 12.1729 13.438 12.0969L14.438 7.59694C14.4567 7.51258 14.4507 7.42463 14.4207 7.34359C14.3908 7.26255 14.3381 7.19185 14.269 7.13994L12.449 5.77494V3.49994C12.4489 3.41643 12.4256 3.33459 12.3816 3.2636C12.3376 3.1926 12.2748 3.13524 12.2 3.09794L9.20004 1.59794C9.1706 1.58328 9.13978 1.57155 9.10804 1.56294L5.11004 0.56294ZM11.932 6.51194L13.275 7.51894L10.712 9.65394C10.6476 9.70765 10.5995 9.77831 10.573 9.85794L9.75304 12.3149L8.23804 11.3679C8.18787 11.3366 8.13203 11.3155 8.0737 11.3057C8.01537 11.296 7.95569 11.2979 7.89807 11.3112C7.84045 11.3245 7.78602 11.349 7.73789 11.3834C7.68975 11.4178 7.64886 11.4613 7.61754 11.5114C7.58622 11.5616 7.56509 11.6174 7.55535 11.6758C7.54561 11.7341 7.54745 11.7938 7.56078 11.8514C7.5741 11.909 7.59865 11.9635 7.63301 12.0116C7.66737 12.0597 7.71087 12.1006 7.76104 12.1319L8.90304 12.8449L6.69304 13.4769L5.37304 11.4999C5.324 11.4265 5.25445 11.3691 5.17304 11.3349L2.53004 10.2339L3.35104 6.94994H5.50004C5.55913 6.94994 5.61765 6.9383 5.67225 6.91569C5.72684 6.89307 5.77645 6.85992 5.81824 6.81814C5.86002 6.77635 5.89317 6.72674 5.91578 6.67215C5.9384 6.61755 5.95004 6.55903 5.95004 6.49994C5.95004 6.44085 5.9384 6.38233 5.91578 6.32773C5.89317 6.27314 5.86002 6.22353 5.81824 6.18174C5.77645 6.13996 5.72684 6.10681 5.67225 6.08419C5.61765 6.06158 5.55913 6.04994 5.50004 6.04994H3.22504L2.21204 4.69994L4.01404 3.97894L6.85804 4.92694C6.94529 4.95587 7.03931 4.95739 7.12744 4.93128C7.21558 4.90518 7.29361 4.85272 7.35104 4.78094L9.12404 2.56494L11.55 3.77794V5.69494L9.33304 6.58194C9.27223 6.60625 9.21746 6.64355 9.17255 6.69122C9.12764 6.73889 9.09368 6.79579 9.07304 6.85794L8.57304 8.35794C8.55399 8.41412 8.54624 8.4735 8.55022 8.53269C8.55421 8.59187 8.56985 8.64968 8.59626 8.7028C8.62267 8.75591 8.65932 8.80328 8.7041 8.84218C8.74888 8.88108 8.80091 8.91074 8.8572 8.92946C8.91349 8.94818 8.97292 8.95558 9.03208 8.95125C9.09124 8.94691 9.14896 8.93093 9.20191 8.90421C9.25487 8.87749 9.30203 8.84056 9.34066 8.79555C9.3793 8.75054 9.40865 8.69834 9.42704 8.64194L9.86004 7.33994L11.932 6.51194ZM8.21104 2.26594L6.84504 3.97394L4.59504 3.22394L5.27204 1.53194L8.21104 2.26594ZM10.711 12.2889L12.616 11.6539L13.275 8.68994L11.386 10.2639L10.711 12.2889Z"/>
</mask>
<path d="M5.11004 0.56294L4.86585 1.53267L4.86739 1.53305L5.11004 0.56294ZM4.58204 0.83294L5.51052 1.20433L5.51118 1.20267L4.58204 0.83294ZM3.65404 3.15294L4.02598 4.0812L4.42348 3.92192L4.58252 3.52433L3.65404 3.15294ZM1.33304 4.08294L0.961097 3.15468L0.960821 3.15479L1.33304 4.08294ZM1.14004 4.76994L0.338931 5.36846L0.339882 5.36973L1.14004 4.76994ZM2.51104 6.59894L3.48118 6.84148L3.59658 6.37987L3.3112 5.99915L2.51104 6.59894ZM1.56304 10.3909L0.592895 10.1484L0.592526 10.1499L1.56304 10.3909ZM1.82704 10.9149L2.21191 9.99197L2.21089 9.99154L1.82704 10.9149ZM4.70004 12.1129L5.53203 11.5581L5.36417 11.3064L5.08491 11.19L4.70004 12.1129ZM6.12504 14.2499L5.29305 14.8047L5.29309 14.8048L6.12504 14.2499ZM6.62304 14.4329L6.89776 15.3945L6.62304 14.4329ZM10.123 13.4329L10.3978 14.3945L10.4186 14.3885L10.4393 14.3816L10.123 13.4329ZM10.141 13.4269L10.4573 14.3756L10.4573 14.3756L10.141 13.4269ZM13.141 12.4269L13.4573 13.3756L13.4576 13.3755L13.141 12.4269ZM13.438 12.0969L12.4619 11.88L12.4615 11.8817L13.438 12.0969ZM14.438 7.59694L15.4142 7.81387L15.4144 7.8131L14.438 7.59694ZM14.269 7.13994L14.8698 6.34054L14.869 6.33994L14.269 7.13994ZM12.449 5.77494H11.449V6.27494L11.849 6.57494L12.449 5.77494ZM12.449 3.49994H13.449L13.449 3.49857L12.449 3.49994ZM12.2 3.09794L11.7528 3.99237L11.7534 3.99264L12.2 3.09794ZM9.20004 1.59794L9.64725 0.703512L9.64588 0.70283L9.20004 1.59794ZM9.10804 1.56294L9.36989 0.59783L9.36031 0.595233L9.35069 0.592826L9.10804 1.56294ZM11.932 6.51194L12.5319 5.71187L12.0825 5.37491L11.561 5.58334L11.932 6.51194ZM13.275 7.51894L13.9151 8.28728L14.887 7.47769L13.8749 6.71887L13.275 7.51894ZM10.712 9.65394L10.072 8.8856L10.0718 8.88578L10.712 9.65394ZM10.573 9.85794L11.5216 10.1745L11.5222 10.1728L10.573 9.85794ZM9.75304 12.3149L9.22299 13.1629L10.2997 13.8359L10.7016 12.6315L9.75304 12.3149ZM8.23804 11.3679L8.76809 10.52L8.76764 10.5197L8.23804 11.3679ZM7.76104 12.1319L7.23144 12.9802L7.23144 12.9802L7.76104 12.1319ZM8.90304 12.8449L9.17799 13.8064L11.3406 13.1879L9.43264 11.9967L8.90304 12.8449ZM6.69304 13.4769L5.86138 14.0322L6.26651 14.639L6.96799 14.4384L6.69304 13.4769ZM5.37304 11.4999L6.2047 10.9447L6.20466 10.9446L5.37304 11.4999ZM5.17304 11.3349L5.56022 10.4129L5.55758 10.4118L5.17304 11.3349ZM2.53004 10.2339L1.5599 9.9914L1.35121 10.8262L2.1455 11.157L2.53004 10.2339ZM3.35104 6.94994V5.94994H2.57026L2.3809 6.7074L3.35104 6.94994ZM5.50004 6.94994V5.94994V6.94994ZM5.50004 6.04994V7.04994V6.04994ZM3.22504 6.04994L2.42518 6.65013L2.72519 7.04994H3.22504V6.04994ZM2.21204 4.69994L1.84056 3.7715L0.628916 4.25629L1.41218 5.30013L2.21204 4.69994ZM4.01404 3.97894L4.33027 3.03026L3.98271 2.9144L3.64256 3.0505L4.01404 3.97894ZM6.85804 4.92694L6.54181 5.87562L6.54332 5.87612L6.85804 4.92694ZM7.35104 4.78094L8.13187 5.40568L8.13187 5.40568L7.35104 4.78094ZM9.12404 2.56494L9.57125 1.67051L8.84822 1.309L8.3432 1.9402L9.12404 2.56494ZM11.55 3.77794H12.55V3.15991L11.9973 2.88351L11.55 3.77794ZM11.55 5.69494L11.9215 6.62339L12.55 6.37192V5.69494H11.55ZM9.33304 6.58194L9.70429 7.51047L9.7045 7.51039L9.33304 6.58194ZM9.07304 6.85794L10.0217 7.17417L10.0221 7.17314L9.07304 6.85794ZM8.57304 8.35794L9.52009 8.67908L9.52172 8.67417L8.57304 8.35794ZM9.42704 8.64194L8.47812 8.32636L8.47629 8.33196L9.42704 8.64194ZM9.86004 7.33994L9.48896 6.41134L9.0577 6.58368L8.91114 7.02437L9.86004 7.33994ZM8.21104 2.26594L8.992 2.89052L9.96543 1.67338L8.45334 1.29574L8.21104 2.26594ZM6.84504 3.97394L6.52881 4.92262L7.19042 5.14316L7.626 4.59852L6.84504 3.97394ZM4.59504 3.22394L3.6666 2.85245L3.27258 3.83721L4.27881 4.17262L4.59504 3.22394ZM5.27204 1.53194L5.51434 0.561739L4.66775 0.350308L4.3436 1.16045L5.27204 1.53194ZM10.711 12.2889L9.76236 11.9727L9.1299 13.8701L11.0273 13.2376L10.711 12.2889ZM12.616 11.6539L12.9323 12.6026L13.4693 12.4236L13.5922 11.871L12.616 11.6539ZM13.275 8.68994L14.2512 8.90697L14.8876 6.04463L12.6349 7.92168L13.275 8.68994ZM11.386 10.2639L10.7459 9.49569L10.5273 9.67781L10.4374 9.94771L11.386 10.2639ZM5.11004 0.56294L5.35423 -0.406787C5.01337 -0.492621 4.65294 -0.451715 4.33998 -0.291681L4.79527 0.598662L5.25056 1.48901C5.13185 1.54971 4.99514 1.56522 4.86585 1.53267L5.11004 0.56294ZM4.79527 0.598662L4.33998 -0.291681C4.02703 -0.131648 3.78286 0.136618 3.6529 0.463213L4.58204 0.83294L5.51118 1.20267C5.46188 1.32655 5.36927 1.4283 5.25056 1.48901L4.79527 0.598662ZM4.58204 0.83294L3.65356 0.461549L2.72556 2.78155L3.65404 3.15294L4.58252 3.52433L5.51052 1.20433L4.58204 0.83294ZM3.65404 3.15294L3.2821 2.22468L0.961097 3.15468L1.33304 4.08294L1.70498 5.0112L4.02598 4.0812L3.65404 3.15294ZM1.33304 4.08294L0.960821 3.15479C0.754565 3.23751 0.570081 3.36653 0.421617 3.53188L1.1657 4.19997L1.90978 4.86805C1.85347 4.93077 1.78349 4.97971 1.70526 5.01109L1.33304 4.08294ZM1.1657 4.19997L0.421617 3.53188C0.273153 3.69723 0.16468 3.8945 0.104577 4.10844L1.06731 4.3789L2.03004 4.64936C2.00724 4.73051 1.9661 4.80533 1.90978 4.86805L1.1657 4.19997ZM1.06731 4.3789L0.104577 4.10844C0.0444745 4.32238 0.0343498 4.54727 0.0749846 4.76575L1.05812 4.58289L2.04126 4.40003C2.05668 4.4829 2.05284 4.56821 2.03004 4.64936L1.06731 4.3789ZM1.05812 4.58289L0.0749846 4.76575C0.115619 4.98422 0.205926 5.19044 0.338932 5.36846L1.14004 4.76994L1.94115 4.17142C1.9916 4.23895 2.02585 4.31716 2.04126 4.40003L1.05812 4.58289ZM1.14004 4.76994L0.339882 5.36973L1.71088 7.19873L2.51104 6.59894L3.3112 5.99915L1.9402 4.17015L1.14004 4.76994ZM2.51104 6.59894L1.5409 6.3564L0.592896 10.1484L1.56304 10.3909L2.53318 10.6335L3.48118 6.84148L2.51104 6.59894ZM1.56304 10.3909L0.592526 10.1499C0.508909 10.4866 0.548756 10.842 0.704834 11.1518L1.59789 10.7019L2.49095 10.2519C2.55015 10.3695 2.56527 10.5043 2.53355 10.632L1.56304 10.3909ZM1.59789 10.7019L0.704834 11.1518C0.860911 11.4616 1.12288 11.7052 1.44319 11.8383L1.82704 10.9149L2.21089 9.99154C2.33239 10.042 2.43175 10.1344 2.49095 10.2519L1.59789 10.7019ZM1.82704 10.9149L1.44217 11.8379L4.31517 13.0359L4.70004 12.1129L5.08491 11.19L2.21191 9.99197L1.82704 10.9149ZM4.70004 12.1129L3.86805 12.6677L5.29305 14.8047L6.12504 14.2499L6.95703 13.6951L5.53203 11.5581L4.70004 12.1129ZM6.12504 14.2499L5.29309 14.8048C5.46358 15.0604 5.71087 15.2553 5.99928 15.3613L6.3442 14.4226L6.68912 13.484C6.79852 13.5242 6.89232 13.5981 6.95698 13.6951L6.12504 14.2499ZM6.3442 14.4226L5.99928 15.3613C6.2877 15.4673 6.60232 15.4789 6.89776 15.3945L6.62304 14.4329L6.34832 13.4714C6.46038 13.4394 6.57972 13.4438 6.68912 13.484L6.3442 14.4226ZM6.62304 14.4329L6.89776 15.3945L10.3978 14.3945L10.123 13.4329L9.84832 12.4714L6.34832 13.4714L6.62304 14.4329ZM10.123 13.4329L10.4393 14.3816L10.4573 14.3756L10.141 13.4269L9.82483 12.4783L9.80683 12.4843L10.123 13.4329ZM10.141 13.4269L10.4573 14.3756L13.4573 13.3756L13.141 12.4269L12.8248 11.4783L9.82481 12.4783L10.141 13.4269ZM13.141 12.4269L13.4576 13.3755C13.6954 13.2961 13.9086 13.1565 14.0764 12.9701L13.3331 12.3011L12.5898 11.6322C12.6534 11.5615 12.7343 11.5085 12.8245 11.4784L13.141 12.4269ZM13.3331 12.3011L14.0764 12.9701C14.2441 12.7837 14.3606 12.557 14.4146 12.3122L13.438 12.0969L12.4615 11.8817C12.4819 11.7888 12.5261 11.7028 12.5898 11.6322L13.3331 12.3011ZM13.438 12.0969L14.4142 12.3139L15.4142 7.81387L14.438 7.59694L13.4619 7.38001L12.4619 11.88L13.438 12.0969ZM14.438 7.59694L15.4144 7.8131C15.4746 7.54128 15.4552 7.25787 15.3587 6.99674L14.4207 7.34359L13.4828 7.69043C13.4462 7.59138 13.4389 7.48388 13.4617 7.38078L14.438 7.59694ZM14.4207 7.34359L15.3587 6.99674C15.2621 6.73562 15.0924 6.50781 14.8698 6.34054L14.269 7.13994L13.6682 7.93934C13.5838 7.87589 13.5194 7.78948 13.4828 7.69043L14.4207 7.34359ZM14.269 7.13994L14.869 6.33994L13.049 4.97494L12.449 5.77494L11.849 6.57494L13.669 7.93994L14.269 7.13994ZM12.449 5.77494H13.449V3.49994H12.449H11.449V5.77494H12.449ZM12.449 3.49994L13.449 3.49857C13.4487 3.22947 13.3734 2.96579 13.2317 2.73702L12.3816 3.2636L11.5315 3.79017C11.4777 3.7034 11.4492 3.60338 11.449 3.50131L12.449 3.49994ZM12.3816 3.2636L13.2317 2.73702C13.09 2.50826 12.8875 2.32344 12.6467 2.20324L12.2 3.09794L11.7534 3.99264C11.662 3.94705 11.5852 3.87694 11.5315 3.79017L12.3816 3.2636ZM12.2 3.09794L12.6473 2.20351L9.64725 0.703513L9.20004 1.59794L8.75283 2.49237L11.7528 3.99237L12.2 3.09794ZM9.20004 1.59794L9.64588 0.70283C9.55756 0.658838 9.46512 0.623668 9.36989 0.59783L9.10804 1.56294L8.84619 2.52805C8.81445 2.51944 8.78363 2.50771 8.75419 2.49305L9.20004 1.59794ZM9.10804 1.56294L9.35069 0.592826L5.35269 -0.407174L5.11004 0.56294L4.86739 1.53305L8.86539 2.53305L9.10804 1.56294ZM11.932 6.51194L11.3321 7.31201L12.6751 8.31901L13.275 7.51894L13.8749 6.71887L12.5319 5.71187L11.932 6.51194ZM13.275 7.51894L12.635 6.7506L10.072 8.8856L10.712 9.65394L11.3521 10.4223L13.9151 8.28728L13.275 7.51894ZM10.712 9.65394L10.0718 8.88578C9.86413 9.05886 9.70899 9.28654 9.62389 9.54312L10.573 9.85794L11.5222 10.1728C11.4899 10.2701 11.4311 10.3564 11.3523 10.4221L10.712 9.65394ZM10.573 9.85794L9.62447 9.54136L8.80447 11.9984L9.75304 12.3149L10.7016 12.6315L11.5216 10.1745L10.573 9.85794ZM9.75304 12.3149L10.2831 11.467L8.76809 10.52L8.23804 11.3679L7.70799 12.2159L9.22299 13.1629L9.75304 12.3149ZM8.23804 11.3679L8.76764 10.5197C8.60608 10.4188 8.42624 10.3508 8.23838 10.3194L8.0737 11.3057L7.90902 12.2921C7.83783 12.2802 7.76967 12.2544 7.70844 12.2162L8.23804 11.3679ZM8.0737 11.3057L8.23838 10.3194C8.05052 10.288 7.85832 10.294 7.67275 10.3369L7.89807 11.3112L8.12339 12.2855C8.05306 12.3017 7.98022 12.304 7.90902 12.2921L8.0737 11.3057ZM7.89807 11.3112L7.67275 10.3369C7.48719 10.3798 7.31189 10.4589 7.15688 10.5695L7.73789 11.3834L8.3189 12.1973C8.26015 12.2392 8.19371 12.2692 8.12339 12.2855L7.89807 11.3112ZM7.73789 11.3834L7.15688 10.5695C7.00186 10.6802 6.87016 10.8203 6.76929 10.9818L7.61754 11.5114L8.46579 12.041C8.42756 12.1023 8.37765 12.1554 8.3189 12.1973L7.73789 11.3834ZM7.61754 11.5114L6.76929 10.9818C6.66842 11.1434 6.60036 11.3232 6.569 11.5111L7.55535 11.6758L8.54169 11.8405C8.52981 11.9117 8.50401 11.9798 8.46579 12.041L7.61754 11.5114ZM7.55535 11.6758L6.569 11.5111C6.53763 11.699 6.54358 11.8912 6.58649 12.0767L7.56078 11.8514L8.53506 11.6261C8.55133 11.6964 8.55358 11.7693 8.54169 11.8405L7.55535 11.6758ZM7.56078 11.8514L6.58649 12.0767C6.62941 12.2623 6.70846 12.4376 6.81911 12.5926L7.63301 12.0116L8.44691 11.4306C8.48884 11.4893 8.5188 11.5558 8.53506 11.6261L7.56078 11.8514ZM7.63301 12.0116L6.81911 12.5926C6.92977 12.7476 7.06988 12.8793 7.23144 12.9802L7.76104 12.1319L8.29064 11.2837C8.35187 11.3219 8.40497 11.3718 8.44691 11.4306L7.63301 12.0116ZM7.76104 12.1319L7.23144 12.9802L8.37344 13.6932L8.90304 12.8449L9.43264 11.9967L8.29064 11.2837L7.76104 12.1319ZM8.90304 12.8449L8.62809 11.8835L6.41809 12.5155L6.69304 13.4769L6.96799 14.4384L9.17799 13.8064L8.90304 12.8449ZM6.69304 13.4769L7.5247 12.9217L6.2047 10.9447L5.37304 11.4999L4.54138 12.0552L5.86138 14.0322L6.69304 13.4769ZM5.37304 11.4999L6.20466 10.9446C6.04666 10.708 5.82254 10.5231 5.56022 10.4129L5.17304 11.3349L4.78586 12.2569C4.68636 12.2152 4.60135 12.145 4.54141 12.0553L5.37304 11.4999ZM5.17304 11.3349L5.55758 10.4118L2.91458 9.31083L2.53004 10.2339L2.1455 11.157L4.7885 12.258L5.17304 11.3349ZM2.53004 10.2339L3.50018 10.4765L4.32118 7.19248L3.35104 6.94994L2.3809 6.7074L1.5599 9.9914L2.53004 10.2339ZM3.35104 6.94994V7.94994H5.50004V6.94994V5.94994H3.35104V6.94994ZM5.50004 6.94994V7.94994C5.69045 7.94994 5.87901 7.91244 6.05493 7.83957L5.67225 6.91569L5.28956 5.99181C5.35629 5.96417 5.42781 5.94994 5.50004 5.94994V6.94994ZM5.67225 6.91569L6.05493 7.83957C6.23085 7.7667 6.3907 7.65989 6.52534 7.52524L5.81824 6.81814L5.11113 6.11103C5.16221 6.05996 5.22284 6.01944 5.28956 5.99181L5.67225 6.91569ZM5.81824 6.81814L6.52534 7.52524C6.65999 7.3906 6.7668 7.23075 6.83966 7.05483L5.91578 6.67215L4.99191 6.28946C5.01954 6.22274 5.06006 6.16211 5.11113 6.11103L5.81824 6.81814ZM5.91578 6.67215L6.83966 7.05483C6.91253 6.87891 6.95004 6.69036 6.95004 6.49994H5.95004H4.95004C4.95004 6.42771 4.96426 6.35619 4.99191 6.28946L5.91578 6.67215ZM5.95004 6.49994H6.95004C6.95004 6.30952 6.91253 6.12097 6.83966 5.94505L5.91578 6.32773L4.99191 6.71042C4.96426 6.64369 4.95004 6.57217 4.95004 6.49994H5.95004ZM5.91578 6.32773L6.83966 5.94505C6.7668 5.76913 6.65999 5.60928 6.52534 5.47464L5.81824 6.18174L5.11113 6.88885C5.06006 6.83777 5.01954 6.77714 4.99191 6.71042L5.91578 6.32773ZM5.81824 6.18174L6.52534 5.47464C6.3907 5.33999 6.23085 5.23318 6.05493 5.16031L5.67225 6.08419L5.28956 7.00807C5.22284 6.98044 5.16221 6.93992 5.11113 6.88885L5.81824 6.18174ZM5.67225 6.08419L6.05493 5.16031C5.87901 5.08744 5.69045 5.04994 5.50004 5.04994V6.04994V7.04994C5.42781 7.04994 5.35629 7.03571 5.28956 7.00807L5.67225 6.08419ZM5.50004 6.04994V5.04994H3.22504V6.04994V7.04994H5.50004V6.04994ZM3.22504 6.04994L4.0249 5.44975L3.0119 4.09975L2.21204 4.69994L1.41218 5.30013L2.42518 6.65013L3.22504 6.04994ZM2.21204 4.69994L2.58352 5.62838L4.38552 4.90738L4.01404 3.97894L3.64256 3.0505L1.84056 3.7715L2.21204 4.69994ZM4.01404 3.97894L3.69781 4.92762L6.54181 5.87562L6.85804 4.92694L7.17427 3.97826L4.33027 3.03026L4.01404 3.97894ZM6.85804 4.92694L6.54332 5.87612C6.82446 5.96934 7.1274 5.97423 7.4114 5.89012L7.12744 4.93128L6.84349 3.97245C6.95121 3.94054 7.06612 3.9424 7.17276 3.97776L6.85804 4.92694ZM7.12744 4.93128L7.4114 5.89012C7.6954 5.80602 7.94683 5.63696 8.13187 5.40568L7.35104 4.78094L6.57021 4.1562C6.64039 4.06848 6.73576 4.00435 6.84349 3.97245L7.12744 4.93128ZM7.35104 4.78094L8.13187 5.40568L9.90487 3.18968L9.12404 2.56494L8.3432 1.9402L6.5702 4.1562L7.35104 4.78094ZM9.12404 2.56494L8.67683 3.45937L11.1028 4.67237L11.55 3.77794L11.9973 2.88351L9.57125 1.67051L9.12404 2.56494ZM11.55 3.77794H10.55V5.69494H11.55H12.55V3.77794H11.55ZM11.55 5.69494L11.1786 4.76649L8.96158 5.65349L9.33304 6.58194L9.7045 7.51039L11.9215 6.62339L11.55 5.69494ZM9.33304 6.58194L8.96179 5.65341C8.76584 5.73175 8.58936 5.85192 8.44466 6.00552L9.17255 6.69122L9.90044 7.37691C9.84556 7.43517 9.77861 7.48076 9.70429 7.51047L9.33304 6.58194ZM9.17255 6.69122L8.44466 6.00552C8.29996 6.15913 8.19053 6.34246 8.12401 6.54274L9.07304 6.85794L10.0221 7.17314C9.99683 7.24911 9.95532 7.31865 9.90044 7.37691L9.17255 6.69122ZM9.07304 6.85794L8.12436 6.54171L7.62436 8.04171L8.57304 8.35794L9.52172 8.67417L10.0217 7.17417L9.07304 6.85794ZM8.57304 8.35794L7.62601 8.03681C7.56462 8.21782 7.53964 8.40918 7.55248 8.59988L8.55022 8.53269L9.54796 8.4655C9.55283 8.53783 9.54336 8.61041 9.52007 8.67907L8.57304 8.35794ZM8.55022 8.53269L7.55248 8.59988C7.56532 8.79058 7.61574 8.97686 7.70084 9.14801L8.59626 8.7028L9.49169 8.25758C9.52397 8.3225 9.54309 8.39316 9.54796 8.4655L8.55022 8.53269ZM8.59626 8.7028L7.70084 9.14801C7.78593 9.31915 7.90402 9.47179 8.04832 9.59713L8.7041 8.84218L9.35988 8.08723C9.41462 8.13477 9.45941 8.19267 9.49169 8.25758L8.59626 8.7028ZM8.7041 8.84218L8.04832 9.59713C8.19262 9.72247 8.36027 9.81805 8.54164 9.87836L8.8572 8.92946L9.17276 7.98055C9.24156 8.00343 9.30515 8.03968 9.35988 8.08723L8.7041 8.84218ZM8.8572 8.92946L8.54164 9.87836C8.72301 9.93868 8.91451 9.96254 9.10514 9.94858L9.03208 8.95125L8.95902 7.95392C9.03133 7.94862 9.10397 7.95768 9.17276 7.98055L8.8572 8.92946ZM9.03208 8.95125L9.10514 9.94858C9.29576 9.93461 9.48174 9.8831 9.65238 9.797L9.20191 8.90421L8.75145 8.01142C8.81617 7.97876 8.88672 7.95922 8.95902 7.95392L9.03208 8.95125ZM9.20191 8.90421L9.65238 9.797C9.82303 9.7109 9.97497 9.59191 10.0995 9.44688L9.34066 8.79555L8.58187 8.14422C8.62909 8.08921 8.68672 8.04408 8.75145 8.01142L9.20191 8.90421ZM9.34066 8.79555L10.0995 9.44688C10.2239 9.30185 10.3185 9.13364 10.3778 8.95192L9.42704 8.64194L8.47629 8.33196C8.49877 8.26303 8.53465 8.19923 8.58187 8.14422L9.34066 8.79555ZM9.42704 8.64194L10.3759 8.95751L10.8089 7.65551L9.86004 7.33994L8.91114 7.02437L8.47814 8.32637L9.42704 8.64194ZM9.86004 7.33994L10.2311 8.26854L12.3031 7.44054L11.932 6.51194L11.561 5.58334L9.48896 6.41134L9.86004 7.33994ZM8.21104 2.26594L7.43008 1.64136L6.06408 3.34936L6.84504 3.97394L7.626 4.59852L8.992 2.89052L8.21104 2.26594ZM6.84504 3.97394L7.16127 3.02526L4.91127 2.27526L4.59504 3.22394L4.27881 4.17262L6.52881 4.92262L6.84504 3.97394ZM4.59504 3.22394L5.52348 3.59543L6.20048 1.90343L5.27204 1.53194L4.3436 1.16045L3.6666 2.85245L4.59504 3.22394ZM5.27204 1.53194L5.02974 2.50214L7.96874 3.23614L8.21104 2.26594L8.45334 1.29574L5.51434 0.561739L5.27204 1.53194ZM10.711 12.2889L11.0273 13.2376L12.9323 12.6026L12.616 11.6539L12.2998 10.7053L10.3948 11.3403L10.711 12.2889ZM12.616 11.6539L13.5922 11.871L14.2512 8.90697L13.275 8.68994L12.2989 8.4729L11.6399 11.4369L12.616 11.6539ZM13.275 8.68994L12.6349 7.92168L10.7459 9.49569L11.386 10.2639L12.0262 11.0322L13.9152 9.45819L13.275 8.68994ZM11.386 10.2639L10.4374 9.94771L9.76236 11.9727L10.711 12.2889L11.6597 12.6052L12.3347 10.5802L11.386 10.2639Z" fill="black" mask="url(#path-1-inside-1_439_477)"/>
</svg>
