<svg width="19" height="25" viewBox="0 0 19 25" fill="none" xmlns="http://www.w3.org/2000/svg">
<path d="M13.7687 13.3594C14.6593 18.0469 16.253 22.4688 18.0968 24.4375C7.7374 19.0469 2.84678 21.7031 1.69053 24.4375C0.659277 19.125 0.846776 15.4687 1.83115 12.2812" stroke="#CAD3F5" stroke-linecap="round" stroke-linejoin="round"/>
<path d="M10.2843 11.1562C11.2686 11.6875 13.128 12.8281 13.7843 13.3594C12.9405 8.82812 12.7843 4.04688 12.628 1C9.2999 1.90625 3.6749 4.09375 1.84677 12.2812C2.65927 11.2031 4.53427 10.6406 5.59677 10.375" stroke="#ED8796" stroke-linecap="round" stroke-linejoin="round"/>
<path d="M5.59677 11.1562C5.59677 11.7779 5.8437 12.374 6.28324 12.8135C6.72278 13.2531 7.31892 13.5 7.94052 13.5C8.56212 13.5 9.15826 13.2531 9.5978 12.8135C10.0373 12.374 10.2843 11.7779 10.2843 11.1562C10.2843 10.5346 10.0373 9.93851 9.5978 9.49897C9.15826 9.05943 8.56212 8.8125 7.94052 8.8125C7.31892 8.8125 6.72278 9.05943 6.28324 9.49897C5.8437 9.93851 5.59677 10.5346 5.59677 11.1562Z" stroke="#ED8796" stroke-linecap="round" stroke-linejoin="round"/>
</svg>
