<svg width="26" height="25" viewBox="0 0 26 25" fill="none" xmlns="http://www.w3.org/2000/svg">
<path d="M13 25C19.9036 25 25.5 19.4036 25.5 12.5C25.5 5.59647 19.9036 3.05176e-05 13 3.05176e-05C6.09644 3.05176e-05 0.5 5.59647 0.5 12.5C0.5 19.4036 6.09644 25 13 25Z" fill="#FFEB00"/>
<path d="M13 0C12.9985 0 12.997 4.88267e-05 12.9955 4.88267e-05V24.9999C12.997 24.9999 12.9985 24.9999 13 24.9999C19.9035 24.9999 25.5 19.4035 25.5 12.5C25.5 5.59636 19.9035 0 13 0Z" fill="#FFBB00"/>
<path d="M14.8486 10.166H14.8488C13.2661 8.26815 15.8412 6.04512 17.4826 7.68067C19.2716 5.98097 21.6442 8.41961 20.1165 10.166C20.0903 10.1935 18.5077 11.8481 17.8084 12.5793C17.6307 12.7651 17.3346 12.7652 17.1568 12.5793C16.4642 11.8551 14.9084 10.2285 14.8486 10.166Z" fill="#C30010"/>
<path d="M5.87939 10.166H5.87953C4.29686 8.26815 6.87195 6.04512 8.51339 7.68067C10.3024 5.98097 12.6749 8.41961 11.1472 10.166C11.121 10.1935 9.53851 11.8481 8.8392 12.5793C8.66148 12.7651 8.36535 12.7652 8.18758 12.5793C7.49486 11.8551 5.93913 10.2285 5.87939 10.166Z" fill="#FF001E"/>
<path d="M19.6915 15.139H6.29947C6.03575 15.139 5.83157 15.3667 5.85573 15.6294C6.01329 17.3435 6.98975 18.8599 8.44927 19.8903C9.66783 18.7506 11.169 19.1698 12.9946 19.1698C14.8404 19.1698 16.332 18.7284 17.5503 19.8843C19.0051 18.854 19.978 17.3401 20.1352 15.6293C20.1594 15.3666 19.9552 15.139 19.6915 15.139Z" fill="#132C63"/>
<path d="M19.6915 15.139H12.9955V19.1698C14.8409 19.17 16.3321 18.7286 17.5503 19.8843C19.0051 18.854 19.978 17.3401 20.1352 15.6293C20.1593 15.3666 19.9552 15.139 19.6915 15.139Z" fill="#000F35"/>
<path d="M8.44925 19.8902C9.68591 20.7634 11.2693 21.2877 12.9954 21.2877C14.7255 21.2877 16.3124 20.761 17.5503 19.8843C16.3319 18.7283 14.8403 18.0945 12.9946 18.0945C11.169 18.0945 9.6678 18.7506 8.44925 19.8902Z" fill="#FF9AC9"/>
<path d="M12.9955 21.2877C14.7256 21.2877 16.3124 20.761 17.5503 19.8843C16.3321 18.7285 14.8409 18.0947 12.9955 18.0945V21.2877Z" fill="#FF5CA8"/>
</svg>
