<svg width="25" height="25" viewBox="0 0 25 25" fill="none" xmlns="http://www.w3.org/2000/svg">
<g clip-path="url(#clip0_434_2345)">
<path d="M24.1455 12.5C24.1455 19.2013 19.2013 24.5849 12.5 24.5849C12.088 24.5849 11.6808 24.6132 11.2792 24.5731C5.15122 23.9609 0.366211 18.7892 0.366211 12.5C0.366211 6.2175 5.14087 1.05021 11.2594 0.428828C11.6673 0.387422 12.0812 0.41501 12.5 0.41501C19.2013 0.41501 24.1455 5.79865 24.1455 12.5Z" fill="#FFF0AF"/>
<path d="M16.6168 14.7526L8.19243 15.0433C7.90615 15.0433 7.67407 15.2754 7.67407 15.5616V15.5841C7.67407 15.9059 7.40644 15.9301 7.46323 16.2355C7.86162 18.379 9.59468 20.0537 11.7676 20.3648C12.0068 20.399 12.2514 20.3679 12.5001 20.3679C15.3296 20.3679 17.1352 18.1229 17.1352 15.2934V15.2709C17.1352 14.9846 16.9031 14.7526 16.6168 14.7526Z" fill="#FD8087"/>
<path d="M16.6167 14.8014H15.6401C15.9264 14.8014 16.1585 14.9846 16.1585 15.2709V15.2934C16.1585 17.8742 14.2501 20.009 11.7676 20.3643C12.0068 20.3986 12.2513 20.4167 12.5 20.4167C15.0077 20.4167 17.0946 18.615 17.5369 16.2354C17.5936 15.9301 17.135 15.6152 17.135 15.2933V15.2709C17.1351 14.9846 16.903 14.8014 16.6167 14.8014Z" fill="#EE6161"/>
<path d="M16.6167 14.7526H7.89507C7.60879 14.7526 7.37671 14.9846 7.37671 15.2709V15.2934C7.37671 15.6152 7.40669 15.93 7.46348 16.2354C9.06919 16.6687 10.7574 16.901 12.5 16.901C13.6934 16.901 14.8612 16.7921 15.9945 16.5843C16.5162 16.4886 16.5422 16.3719 17.0483 16.2354C17.1051 15.93 17.1351 15.6152 17.1351 15.2934V15.2709C17.1351 14.9846 16.903 14.7526 16.6167 14.7526Z" fill="#F3F0F3"/>
<path d="M16.1585 15.2709V15.2934C16.1585 15.7393 16.1015 16.1718 15.9944 16.5842C16.5161 16.4885 17.0305 16.372 17.5366 16.2354C17.5934 15.93 17.6233 15.6152 17.6233 15.2934V15.2709C17.6233 14.9846 17.3913 14.7526 17.105 14.7526H15.6401C15.9264 14.7526 16.1585 14.9846 16.1585 15.2709Z" fill="#E2DEE2"/>
<path d="M12.5 0.366211C12.0879 0.366211 11.6808 0.386963 11.2793 0.4271C17.4074 1.03931 22.1924 6.21074 22.1924 12.5C22.1924 18.7893 17.4074 23.9607 11.2793 24.5729C11.6808 24.613 12.0879 24.6338 12.5 24.6338C19.2013 24.6338 24.6338 19.2013 24.6338 12.5C24.6338 5.79868 19.2013 0.366211 12.5 0.366211Z" fill="#FFE07D"/>
<path d="M17.0331 8.05369L16.6042 7.62469C15.9164 6.93699 14.8015 6.93699 14.1137 7.62469C13.426 8.31243 13.426 9.42742 14.1137 10.1152L16.5554 12.5569L17.0331 12.9954C17.1949 13.1572 17.4572 13.1572 17.6189 12.9954L20.4209 10.1152C21.1086 9.42742 21.1086 8.31243 20.4209 7.62469C20.063 7.26678 19.7069 7.09515 19.238 7.10975C18.8059 7.12322 18.3778 7.29485 18.048 7.62469L17.619 8.05369C17.4572 8.21546 17.1949 8.21546 17.0331 8.05369Z" fill="#FD8087"/>
<path d="M20.5386 7.62469C20.1807 7.26678 19.7071 7.09564 19.2382 7.11024C19.2881 7.15027 19.3364 7.19315 19.3827 7.23939C20.0704 7.92713 20.0704 9.04212 19.3827 9.72986L16.5557 12.5569L17.0334 13.0346C17.1952 13.1964 17.4574 13.1964 17.6192 13.0346L20.5386 10.1152C21.2263 9.42742 21.2263 8.31238 20.5386 7.62469Z" fill="#EE6161"/>
<path d="M7.38101 8.05369L6.95205 7.62469C6.26431 6.93699 5.14932 6.93699 4.46157 7.62469C3.77388 8.31243 3.77388 9.42742 4.46157 10.1152L6.90327 12.5569L7.38101 12.9954C7.54277 13.1572 7.80503 13.1572 7.9668 12.9954L10.7688 10.1152C11.4565 9.42742 11.4565 8.31243 10.7688 7.62469C10.4108 7.26678 10.0547 7.09515 9.58584 7.10975C9.15371 7.12322 8.72559 7.29485 8.3958 7.62469L7.9668 8.05369C7.80498 8.21546 7.54272 8.21546 7.38101 8.05369Z" fill="#FD8087"/>
<path d="M10.8863 7.62469C10.5284 7.26678 10.0548 7.09564 9.58589 7.11024C9.63574 7.15027 9.68408 7.19315 9.73032 7.23939C10.4181 7.92713 10.4181 9.04212 9.73032 9.72986L6.90332 12.5569L7.38105 13.0346C7.54282 13.1964 7.80508 13.1964 7.96685 13.0346L10.8863 10.1152C11.574 9.42742 11.574 8.31238 10.8863 7.62469Z" fill="#EE6161"/>
<path d="M0.732422 12.5C0.732422 9.35674 1.95645 6.40166 4.17905 4.17905C6.40166 1.95645 9.35674 0.732422 12.5 0.732422C15.2811 0.732422 17.9799 1.72051 20.0991 3.5147C20.2535 3.64546 20.4846 3.62622 20.6152 3.47183C20.7459 3.31748 20.7267 3.08638 20.5724 2.95576C18.321 1.04971 15.4542 0 12.5 0C9.16113 0 6.02207 1.30024 3.66113 3.66113C1.3002 6.02207 0 9.16113 0 12.5C0 15.4439 1.04326 18.3031 2.93755 20.5509C3.00996 20.6369 3.11353 20.6811 3.21777 20.6811C3.30107 20.6811 3.38486 20.6528 3.45356 20.5949C3.60825 20.4646 3.62793 20.2335 3.49761 20.0789C1.71445 17.963 0.732422 15.2715 0.732422 12.5Z" fill="black"/>
<path d="M21.7569 4.09988C21.6209 3.95017 21.3893 3.93899 21.2396 4.07493C21.0898 4.21087 21.0787 4.44246 21.2147 4.59226C23.1834 6.76052 24.2676 9.56892 24.2676 12.5C24.2676 15.6433 23.0436 18.5984 20.8209 20.821C18.5983 23.0436 15.6433 24.2676 12.5 24.2676C9.56616 24.2676 6.75591 23.1817 4.58692 21.2098C4.43726 21.0738 4.20562 21.0848 4.06963 21.2345C3.93355 21.3841 3.94458 21.6158 4.09424 21.7518C6.39839 23.8465 9.38359 25 12.5 25C15.8389 25 18.9779 23.6998 21.3388 21.3389C23.6998 18.978 25 15.8389 25 12.5C25 9.38645 23.8482 6.40325 21.7569 4.09988Z" fill="black"/>
<path d="M12.5 20.7829C15.527 20.7829 17.9896 18.3203 17.9896 15.2934V15.2709C17.9896 14.7832 17.5928 14.3864 17.105 14.3864H7.89507C7.40732 14.3864 7.0105 14.7832 7.0105 15.2709V15.2934C7.0105 18.3203 9.4731 20.7829 12.5 20.7829ZM12.5 20.0505C10.3812 20.0505 8.58174 18.658 7.96812 16.7401C9.44834 17.0897 10.9703 17.2673 12.5 17.2673C14.0299 17.2673 15.5517 17.0898 17.0319 16.7403C16.4182 18.658 14.6188 20.0505 12.5 20.0505ZM7.74292 15.2709C7.74292 15.187 7.81118 15.1188 7.89507 15.1188H17.105C17.1889 15.1188 17.2572 15.187 17.2572 15.2709V15.2934C17.2572 15.5132 17.2418 15.7294 17.2129 15.9413C15.6784 16.3348 14.0939 16.5348 12.5001 16.5348C10.9063 16.5348 9.32168 16.3348 7.7873 15.9413C7.7583 15.7294 7.74302 15.5131 7.74302 15.2934V15.2709H7.74292Z" fill="black"/>
<path d="M20.7973 7.36576C19.9679 6.53646 18.6183 6.53641 17.7889 7.36581L17.36 7.79476C17.3412 7.81346 17.3108 7.81346 17.292 7.79476L16.8631 7.36576C16.0337 6.53646 14.6841 6.53646 13.8547 7.36576C13.0253 8.19515 13.0253 9.54476 13.8547 10.3742L16.7741 13.2935C16.9216 13.441 17.1176 13.5222 17.326 13.5222C17.5344 13.5222 17.7304 13.441 17.8779 13.2936L20.7973 10.3741C21.6267 9.54476 21.6267 8.19515 20.7973 7.36576ZM20.2794 9.85624L17.3599 12.7757C17.3412 12.7944 17.3107 12.7945 17.292 12.7757L14.3726 9.85624C13.8288 9.31239 13.8288 8.42753 14.3726 7.88368C14.6445 7.61176 15.0016 7.47577 15.3589 7.47577C15.716 7.47577 16.0733 7.61176 16.3451 7.88363L16.7741 8.31263C16.7741 8.31263 16.7741 8.31268 16.7741 8.31268C17.0784 8.61688 17.5735 8.61693 17.8778 8.31263L18.3068 7.88368C18.8506 7.33983 19.7355 7.33988 20.2794 7.88363C20.8232 8.42753 20.8232 9.31239 20.2794 9.85624Z" fill="black"/>
<path d="M7.67395 13.5222C7.88245 13.5222 8.07839 13.441 8.22576 13.2936L11.1452 10.3741C11.9746 9.54476 11.9746 8.19515 11.1452 7.36576C10.3158 6.53646 8.96624 6.53641 8.13684 7.36581L7.70784 7.79476C7.68914 7.81351 7.65867 7.81342 7.63992 7.79476L7.21096 7.36576C6.38157 6.53646 5.03206 6.53646 4.20261 7.36576C3.37322 8.19515 3.37322 9.54476 4.20261 10.3742L7.122 13.2935C7.26951 13.441 7.4655 13.5222 7.67395 13.5222ZM4.72058 7.88368C4.9925 7.61176 5.34963 7.47577 5.70686 7.47577C6.06399 7.47577 6.42122 7.61176 6.69314 7.88363L7.12214 8.31263C7.12214 8.31268 7.12214 8.31268 7.12219 8.31268C7.42649 8.61688 7.92156 8.61693 8.22585 8.31263L8.65486 7.88368C9.19866 7.33988 10.0835 7.33983 10.6274 7.88363C11.1712 8.42753 11.1712 9.31239 10.6274 9.85619L7.70789 12.7757C7.68923 12.7944 7.65872 12.7944 7.64006 12.7756L4.72063 9.85619C4.17673 9.31239 4.17673 8.42753 4.72058 7.88368Z" fill="black"/>
</g>
<defs>
<clipPath id="clip0_434_2345">
<rect width="25" height="25" fill="white"/>
</clipPath>
</defs>
</svg>
