<svg width="106" height="18" viewBox="0 0 106 18" fill="none" xmlns="http://www.w3.org/2000/svg">
<path d="M16.38 1.22C16.58 1.32 16.7 1.52 16.7 1.74C16.64 2.38 16.56 2.84 16.48 3.3C16.46 3.42 16.44 3.54 16.42 3.66C15.86 7.14 15.16 10.28 14.42 13.62L14.38 13.84C14.02 15.52 14.12 16.7 14.64 16.82C14.78 16.86 14.86 16.84 15.18 16.48C15.24 16.4 15.3 16.34 15.36 16.28C15.56 16.06 15.9 16.06 16.12 16.26C16.32 16.46 16.34 16.8 16.12 17C16.08 17.06 16.02 17.12 15.98 17.18C15.72 17.48 15.34 17.9 14.74 17.9C14.62 17.9 14.5 17.9 14.38 17.86C13.52 17.66 12.66 16.74 13.34 13.6L13.38 13.38C14.12 10.1 14.8 6.98 15.36 3.56C13.52 6.14 10.76 10.76 10.56 11.12C10.44 11.32 10.22 11.42 10 11.38C9.78 11.36 9.62 11.18 9.56 10.98C9.26 9.52 8.94 8 8.48 6.56C7.98 4.96 7.34 3.62 6.56 2.52C6.34 3.98 6.2 5.46 6.08 6.92C5.82 9.54 5.6 12.02 4.9 14.44L4.86 14.58C4.62 15.44 4.34 16.42 3.7 17.14C3.32 17.58 2.64 18 1.96 18C1.92 18 1.88 18 1.84 18C1.36 17.96 0.94 17.72 0.68 17.28C0.38 16.82 0.32 16.2 0.54 15.58C0.68 15.2 0.88 14.88 1.08 14.58C1.14 14.5 1.2 14.4 1.24 14.32C1.4 14.08 1.74 14 1.98 14.16C2.22 14.32 2.3 14.64 2.14 14.9C2.08 14.98 2.04 15.08 1.98 15.16C1.8 15.42 1.64 15.66 1.54 15.92C1.44 16.22 1.46 16.52 1.58 16.72C1.66 16.86 1.78 16.94 1.92 16.94C2.2 16.96 2.64 16.76 2.9 16.44C3.38 15.9 3.62 15.08 3.84 14.3L3.88 14.14C4.54 11.82 4.78 9.38 5.02 6.82C5.18 4.96 5.36 3.04 5.72 1.14C5.72 1.12 5.74 1.1 5.74 1.08C5.74 1.06 5.74 1.04 5.76 1.04C5.76 1.02 5.76 1 5.78 0.98C5.78 0.959999 5.8 0.959999 5.8 0.939999C5.82 0.919999 5.82 0.919999 5.84 0.9C5.84 0.879999 5.86 0.879999 5.88 0.859999C5.88 0.859999 5.88 0.859999 5.88 0.839999C5.9 0.839999 5.9 0.839999 5.92 0.819999C5.92 0.819999 5.94 0.8 5.96 0.8C5.98 0.779999 5.98 0.779999 6 0.759999C6.02 0.759999 6.04 0.759999 6.04 0.759999C6.06 0.739999 6.08 0.739999 6.1 0.739999C6.12 0.72 6.14 0.72 6.14 0.72C6.16 0.72 6.18 0.72 6.2 0.72C6.22 0.72 6.24 0.72 6.24 0.72C6.26 0.72 6.28 0.72 6.3 0.72C6.32 0.72 6.32 0.72 6.34 0.72C6.34 0.72 6.34 0.72 6.36 0.72C6.38 0.72 6.38 0.739999 6.4 0.739999C6.42 0.739999 6.44 0.759999 6.46 0.759999C6.46 0.759999 6.48 0.779999 6.5 0.779999C6.52 0.8 6.54 0.8 6.54 0.8C6.56 0.819999 6.58 0.819999 6.58 0.839999C6.6 0.859999 6.62 0.859999 6.62 0.879999H6.64C7.86 2.26 8.8 4 9.5 6.24C9.84 7.3 10.1 8.36 10.32 9.42C11.68 7.2 14.58 2.52 15.78 1.32C15.94 1.16 16.18 1.12 16.38 1.22ZM25.3828 15.36C24.6828 17 22.9028 18 20.7428 18C20.7028 18 20.6828 18 20.6628 18C19.4228 18 18.1428 17.36 17.6228 16.5C17.0028 15.46 17.3628 14.04 17.5628 13.5C17.8828 12.58 18.4628 11.76 19.2228 11.18C19.5628 10.92 19.9028 10.74 20.2228 10.66C20.6828 10.54 21.1628 10.6 21.5228 10.82C21.9628 11.08 22.2428 11.56 22.3228 12.08C22.3628 12.5 22.2828 12.94 22.0828 13.4C21.7628 14.14 20.9828 14.86 20.1228 15.2C19.5628 15.44 18.9828 15.56 18.4028 15.66C18.4428 15.76 18.4828 15.86 18.5428 15.94C18.8628 16.5 19.8028 16.94 20.6828 16.94C22.4428 16.96 23.8628 16.2 24.4028 14.94C24.5028 14.66 24.8228 14.54 25.1028 14.66C25.3628 14.78 25.4828 15.08 25.3828 15.36ZM20.9828 11.74C20.9028 11.7 20.8028 11.68 20.7028 11.68C20.6228 11.68 20.5628 11.68 20.4828 11.7C20.3028 11.74 20.0828 11.86 19.8628 12.04C19.2828 12.48 18.8228 13.12 18.5628 13.84C18.4828 14.1 18.4228 14.34 18.3828 14.58C18.8428 14.5 19.3028 14.4 19.7228 14.22C20.3228 13.96 20.8828 13.46 21.1228 12.96C21.2428 12.7 21.2828 12.44 21.2628 12.22C21.2428 12.02 21.1228 11.82 20.9828 11.74ZM38.4555 14.7C38.7155 14.82 38.8555 15.14 38.7355 15.4C38.2355 16.66 37.3955 17.42 36.1155 17.78C35.6755 17.92 35.1955 17.98 34.6155 17.98C34.5955 17.98 34.5555 17.98 34.5155 17.98H34.4755C34.1755 17.96 33.8155 17.96 33.4555 17.82C32.8155 17.52 32.4755 16.84 32.6155 16.08C32.6355 15.9 32.6555 15.72 32.6755 15.5C32.6955 15.36 32.7155 15.2 32.7355 15.04C32.8155 14.52 32.9155 14 33.0355 13.48C33.1555 12.98 33.0355 12.48 32.7155 12.16C32.4355 11.9 32.0355 11.8 31.6155 11.92C30.9155 12.12 30.6155 12.78 30.3355 13.84C30.1755 14.42 30.0355 15.2 29.8755 16.1C29.8155 16.54 29.7155 17 29.6355 17.48C29.6355 17.5 29.6355 17.52 29.6355 17.54C29.5955 17.8 29.3755 18 29.0955 18C29.0755 18 29.0555 18 29.0355 18C28.7555 17.98 28.5355 17.72 28.5755 17.42C28.6755 16.44 28.8755 15.48 29.0155 14.76L29.0355 14.74C29.3355 13.38 29.5555 11.92 28.5755 11.6C28.3555 11.52 28.0155 11.6 27.6555 11.84C26.6955 12.44 26.1555 13.58 25.9155 14.22C25.6355 14.92 25.5355 15.68 25.4155 16.5C25.3755 16.82 25.3155 17.12 25.2755 17.44L25.2555 17.46C25.2355 17.74 24.9955 17.94 24.7355 17.94C24.7155 17.94 24.6955 17.94 24.6755 17.94C24.3955 17.9 24.1755 17.64 24.1955 17.36L24.8955 10.86C24.9155 10.56 25.1755 10.34 25.4755 10.38C25.7755 10.4 25.9755 10.68 25.9555 10.96L25.8155 12.16C26.1555 11.7 26.5555 11.26 27.0755 10.94C27.7355 10.52 28.3755 10.4 28.9155 10.58C29.5555 10.8 29.9155 11.2 30.1355 11.7C30.4155 11.34 30.7955 11.04 31.3355 10.9C32.1155 10.68 32.8955 10.86 33.4555 11.4C34.0555 11.98 34.2955 12.88 34.0755 13.74C33.9555 14.22 33.8755 14.7 33.7955 15.2C33.7755 15.34 33.7555 15.48 33.7355 15.62C33.7155 15.84 33.6955 16.06 33.6555 16.28C33.6355 16.4 33.6155 16.72 33.8755 16.84C34.0355 16.9 34.2555 16.9 34.4955 16.9H34.5355C35.0355 16.92 35.4555 16.86 35.8355 16.76C36.7755 16.48 37.3755 15.94 37.7555 15C37.8555 14.72 38.1755 14.6 38.4555 14.7ZM48.0348 14.72C48.3148 14.82 48.4348 15.14 48.3348 15.42C47.9548 16.34 47.0348 16.98 45.8148 17.18C45.5548 17.22 45.2748 17.24 45.0148 17.24C44.2748 17.24 43.5148 17.06 42.8548 16.74C42.0948 17.5 41.1548 17.96 40.2348 18C40.1948 18 40.1348 18 40.0948 18C39.2348 18 38.4348 17.6 38.0148 16.94C37.7748 16.54 37.6548 16.08 37.6348 15.5C37.5948 14.22 38.0748 12.96 38.9348 12.06C39.3548 11.6 39.8548 11.26 40.4148 11.02C41.3748 10.6 42.3948 10.58 43.1348 10.94C43.7548 11.26 44.1548 11.8 44.3348 12.54C44.5748 13.58 44.2948 14.82 43.5548 15.88C44.2548 16.16 45.0148 16.22 45.6348 16.12C46.4948 15.98 47.1148 15.58 47.3348 15C47.4548 14.74 47.7548 14.6 48.0348 14.72ZM42.6548 11.9C42.3548 11.76 41.9548 11.72 41.5348 11.78C41.0148 12.94 41.5148 14.16 42.1948 14.94C42.3148 15.1 42.4748 15.24 42.6348 15.36C43.2348 14.52 43.4748 13.56 43.2948 12.78C43.1948 12.36 42.9948 12.06 42.6548 11.9ZM40.1748 16.94C40.7748 16.9 41.3748 16.62 41.9148 16.16C41.7348 16 41.5348 15.82 41.3748 15.64C40.5148 14.62 40.1348 13.42 40.2948 12.3C40.0748 12.44 39.8948 12.6 39.7148 12.78C39.0348 13.5 38.6748 14.48 38.6948 15.46C38.7148 15.86 38.7748 16.14 38.9148 16.36C39.1548 16.74 39.6548 16.98 40.1748 16.94ZM57.2452 14.72C57.5052 14.84 57.6452 15.16 57.5252 15.42C56.9452 16.84 55.4452 17.92 53.9252 17.98C53.8852 17.98 53.8252 17.98 53.7852 17.98C53.1852 17.98 52.4452 17.86 51.9452 17.46C51.3452 16.98 51.4052 16.18 51.4452 15.7C51.4852 15 51.5452 14.38 51.6652 13.74L51.6852 13.66C51.7252 13.46 51.7452 13.28 51.7052 13.18C51.6852 13.16 51.6252 13.1 51.5252 13.08C51.1252 12.9 50.6052 12.88 50.0852 12.84C49.9452 12.84 49.7852 12.82 49.6452 12.82C49.5852 12.8 49.4852 12.8 49.3652 12.78C49.2852 12.98 49.2052 13.2 49.1252 13.42C49.0652 13.6 48.9852 13.78 48.9052 13.96C48.7052 14.46 48.5252 14.94 48.3252 15.42C48.2252 15.68 47.9252 15.82 47.6452 15.72C47.3652 15.62 47.2252 15.3 47.3452 15.02C47.5252 14.54 47.7252 14.06 47.9252 13.58C48.0052 13.4 48.0652 13.22 48.1252 13.04C48.1852 12.86 48.2652 12.68 48.3252 12.48C48.2452 12.44 48.1652 12.4 48.0852 12.34C47.6852 12.08 47.4452 11.64 47.4652 11.18C47.4652 10.78 47.7052 10.44 48.1052 10.18C48.4252 9.96 48.8452 9.9 49.2252 9.98C49.8652 10.1 50.2652 10.6 50.2452 11.2C50.2252 11.42 50.1652 11.62 50.0652 11.78C50.1052 11.78 50.1252 11.78 50.1652 11.78C50.7252 11.82 51.3452 11.86 51.9252 12.08C52.2452 12.2 52.4852 12.4 52.6252 12.66C52.8852 13.08 52.7852 13.54 52.7252 13.86L52.7052 13.94C52.6052 14.52 52.5452 15.12 52.5052 15.78C52.4852 16.08 52.4452 16.5 52.6052 16.62C52.8652 16.82 53.3852 16.94 53.8852 16.92C54.9652 16.88 56.1252 16.04 56.5452 15.02C56.6452 14.74 56.9652 14.62 57.2452 14.72ZM48.9452 11.48C49.0452 11.36 49.1652 11.24 49.1652 11.16C49.1852 11.1 49.1252 11.04 49.0052 11.02C48.9852 11.02 48.9452 11.02 48.9052 11.02C48.8252 11.02 48.7452 11.04 48.6852 11.06C48.5652 11.14 48.5252 11.2 48.5252 11.22C48.5252 11.3 48.5852 11.4 48.6852 11.46C48.7252 11.5 48.7852 11.52 48.8652 11.56C48.9052 11.54 48.9252 11.5 48.9452 11.48ZM62.1844 14.62C62.4444 14.72 62.5844 15.04 62.4644 15.32C61.9244 16.62 60.5244 18 58.9444 18C58.9244 18 58.9044 18 58.8844 18C58.1844 18 57.5644 17.7 57.1044 17.2C56.6244 16.64 56.3844 15.88 56.4644 15.1C56.6044 13.8 56.7444 12.66 56.9444 11.18C56.9844 10.9 57.2444 10.7 57.5444 10.74C57.8244 10.78 58.0444 11.04 58.0044 11.34C57.8044 12.78 57.6644 13.92 57.5244 15.22C57.4844 15.7 57.6244 16.16 57.9044 16.5C58.1644 16.78 58.5044 16.94 58.9244 16.94C59.9844 16.96 61.0644 15.9 61.4844 14.9C61.5844 14.64 61.9044 14.5 62.1844 14.62ZM57.6844 10.04C57.4044 10.04 57.1844 9.84 57.1844 9.56C57.1844 9.3 57.4044 9.08 57.6844 9.08C57.9444 9.08 58.1644 9.3 58.1644 9.56C58.1644 9.84 57.9444 10.04 57.6844 10.04ZM71.9253 14.7C72.2053 14.8 72.3253 15.12 72.2253 15.4C71.5653 16.94 70.6453 17.78 69.4453 17.96C69.2453 17.98 69.0253 18 68.7853 18C68.3053 18 67.7653 17.92 67.2653 17.58C66.8053 17.24 66.4653 16.82 66.2653 16.32C66.2453 16.36 66.2253 16.38 66.2253 16.4C65.7453 17.28 64.9053 18 63.9253 18C63.6653 18 63.3853 17.96 63.1253 17.84C61.5653 17.22 61.0453 15.6 61.7853 13.64C62.0053 13.08 62.3053 12.52 62.6653 12.08C63.1453 11.46 64.3653 10.42 65.5453 10.8C66.0253 10.94 66.4053 11.2 66.6653 11.56C66.7053 11.34 66.7453 11.14 66.7653 10.92C66.8053 10.64 67.0853 10.42 67.3653 10.46C67.6653 10.5 67.8653 10.76 67.8253 11.06C67.7253 11.8 67.5853 12.52 67.4253 13.24C67.3253 13.7 67.2253 14.18 67.1453 14.66C66.9853 15.56 67.2453 16.24 67.8853 16.7C68.2053 16.94 68.6453 17 69.2853 16.9C70.1053 16.78 70.7253 16.18 71.2453 14.98C71.3453 14.7 71.6653 14.58 71.9253 14.7ZM65.2853 15.9C65.8653 14.84 66.3253 13.3 65.9853 12.46C65.8453 12.14 65.6053 11.92 65.2253 11.8C65.1653 11.8 65.1053 11.78 65.0253 11.78C64.5453 11.78 63.8853 12.24 63.5053 12.74C63.2053 13.1 62.9653 13.54 62.7853 14.02C62.5253 14.68 62.1053 16.28 63.5053 16.86C64.5053 17.24 65.1653 16.14 65.2853 15.9ZM80.9291 0.859999C81.2091 0.939999 81.3891 1.22 81.3091 1.5C80.8491 3.38 80.1291 5.18 79.4291 6.94L79.1291 7.68C78.3491 9.64 77.4891 11.6 76.6691 13.5C76.3891 14.14 76.1091 14.78 75.8491 15.42C75.6291 15.92 75.0491 17.46 74.9691 17.66C74.8891 17.88 74.6891 18 74.4691 18H74.4491C74.2091 18 74.0091 17.84 73.9491 17.6C73.4491 15.64 73.1491 13.62 72.8491 11.66L72.7491 10.96C72.6291 10.2 72.5291 9.42 72.4491 8.66C72.3291 7.84 72.2291 6.98 72.0891 6.14L72.0691 5.98C71.9291 5.1 71.7891 4.2 71.5491 3.34C71.5291 3.26 71.4891 3.16 71.4691 3.04C71.3691 2.62 71.2091 2.02 70.9291 1.84C70.8091 1.76 70.5891 1.82 70.4491 1.94C70.3291 2.02 70.2491 2.16 70.2691 2.24C70.3691 2.52 70.2291 2.84 69.9491 2.94C69.6691 3.04 69.3691 2.88 69.2691 2.62C69.0891 2.08 69.2891 1.5 69.7891 1.1C70.3091 0.679999 71.0091 0.62 71.5291 0.959999C72.1491 1.36 72.3491 2.18 72.5091 2.78C72.5291 2.88 72.5491 2.98 72.5691 3.06C72.8291 3.98 72.9891 4.9 73.1291 5.82L73.1491 5.98C73.2891 6.84 73.3891 7.7 73.4891 8.54C73.5891 9.28 73.6891 10.06 73.8091 10.8L73.9091 11.5C74.1091 12.86 74.3291 14.26 74.6091 15.64C74.7091 15.38 74.7891 15.16 74.8691 15C75.1291 14.36 75.4091 13.72 75.6891 13.08C76.5091 11.18 77.3691 9.22 78.1491 7.28L78.4291 6.54C79.1291 4.82 79.8291 3.04 80.2691 1.26C80.3491 0.959999 80.6291 0.8 80.9291 0.859999ZM86.5789 14.62C86.8389 14.72 86.9789 15.04 86.8589 15.32C86.3189 16.62 84.9189 18 83.3389 18C83.3189 18 83.2989 18 83.2789 18C82.5789 18 81.9589 17.7 81.4989 17.2C81.0189 16.64 80.7789 15.88 80.8589 15.1C80.9989 13.8 81.1389 12.66 81.3389 11.18C81.3789 10.9 81.6389 10.7 81.9389 10.74C82.2189 10.78 82.4389 11.04 82.3989 11.34C82.1989 12.78 82.0589 13.92 81.9189 15.22C81.8789 15.7 82.0189 16.16 82.2989 16.5C82.5589 16.78 82.8989 16.94 83.3189 16.94C84.3789 16.96 85.4589 15.9 85.8789 14.9C85.9789 14.64 86.2989 14.5 86.5789 14.62ZM82.0789 10.04C81.7989 10.04 81.5789 9.84 81.5789 9.56C81.5789 9.3 81.7989 9.08 82.0789 9.08C82.3389 9.08 82.5589 9.3 82.5589 9.56C82.5589 9.84 82.3389 10.04 82.0789 10.04ZM88.6598 18C88.6198 18 88.5798 18 88.5598 18C88.5398 18 88.5198 18 88.4998 18C87.1198 17.86 86.4398 15.4 86.2598 14.66C85.9598 13.32 85.9998 11.98 86.0598 10.86C86.0798 10.56 86.3398 10.34 86.6398 10.36C86.9198 10.38 87.1398 10.64 87.1198 10.92C87.0598 11.98 87.0198 13.22 87.2998 14.4C87.5798 15.64 88.1398 16.76 88.5198 16.92C88.9998 16.72 89.6998 15.76 89.9598 15.18C89.9598 15.14 89.9798 15.12 89.9998 15.08C89.6598 14.28 89.5198 13.3 89.6398 12.46C89.7198 11.96 89.8598 11.06 90.4398 10.66C90.6998 10.5 90.9998 10.44 91.3198 10.5C91.7598 10.58 91.9798 10.84 92.0998 11.04C92.3998 11.62 92.1798 12.38 91.9598 12.96L91.7798 13.48C91.5798 14 91.3798 14.52 91.1598 15.04C91.2198 15.14 91.2798 15.22 91.3198 15.28C91.7598 15.86 92.6598 16.16 93.5398 16.04C93.8998 16 94.7598 15.8 95.0998 15C95.1998 14.72 95.5198 14.58 95.7998 14.7C96.0598 14.82 96.1998 15.12 96.0798 15.4C95.6998 16.32 94.8198 16.94 93.6798 17.1C92.4998 17.26 91.3398 16.88 90.6398 16.14C90.2398 16.82 89.4998 17.82 88.6598 18ZM91.0998 11.54C91.0798 11.54 91.0798 11.54 91.0598 11.54C91.0598 11.54 91.0598 11.54 91.0398 11.54C90.9198 11.64 90.7998 12 90.6998 12.62C90.6598 12.86 90.6598 13.12 90.6798 13.38C90.6998 13.28 90.7398 13.2 90.7798 13.1L90.9598 12.6C91.2798 11.74 91.1598 11.56 91.1598 11.56C91.1598 11.56 91.1398 11.54 91.0998 11.54ZM105.519 14.7C105.799 14.8 105.919 15.12 105.819 15.4C105.159 16.94 104.239 17.78 103.039 17.96C102.839 17.98 102.619 18 102.379 18C101.899 18 101.359 17.92 100.859 17.58C100.399 17.24 100.059 16.82 99.8591 16.32C99.8391 16.36 99.8191 16.38 99.8191 16.4C99.3391 17.28 98.4991 18 97.5191 18C97.2591 18 96.9791 17.96 96.7191 17.84C95.1591 17.22 94.6391 15.6 95.3791 13.64C95.5991 13.08 95.8991 12.52 96.2591 12.08C96.7391 11.46 97.9591 10.42 99.1391 10.8C99.6191 10.94 99.9991 11.2 100.259 11.56C100.299 11.34 100.339 11.14 100.359 10.92C100.399 10.64 100.679 10.42 100.959 10.46C101.259 10.5 101.459 10.76 101.419 11.06C101.319 11.8 101.179 12.52 101.019 13.24C100.919 13.7 100.819 14.18 100.739 14.66C100.579 15.56 100.839 16.24 101.479 16.7C101.799 16.94 102.239 17 102.879 16.9C103.699 16.78 104.319 16.18 104.839 14.98C104.939 14.7 105.259 14.58 105.519 14.7ZM98.8791 15.9C99.4591 14.84 99.9191 13.3 99.5791 12.46C99.4391 12.14 99.1991 11.92 98.8191 11.8C98.7591 11.8 98.6991 11.78 98.6191 11.78C98.1391 11.78 97.4791 12.24 97.0991 12.74C96.7991 13.1 96.5591 13.54 96.3791 14.02C96.1191 14.68 95.6991 16.28 97.0991 16.86C98.0991 17.24 98.7591 16.14 98.8791 15.9Z" fill="black"/>
</svg>
