<svg width="25" height="25" viewBox="0 0 25 25" fill="none" xmlns="http://www.w3.org/2000/svg">
<path d="M12.5 21.875C9.87847 21.875 7.66076 20.9677 5.84687 19.1531C4.03299 17.3385 3.12569 15.1208 3.125 12.5C3.125 10.1042 3.90625 8.025 5.46875 6.2625C7.03125 4.5 9.02778 3.47153 11.4583 3.17708C11.684 3.14236 11.8837 3.17292 12.0573 3.26875C12.2309 3.36458 12.3698 3.49028 12.474 3.64583C12.5781 3.80139 12.6347 3.98368 12.6437 4.19271C12.6528 4.40174 12.5875 4.60139 12.4479 4.79167C12.1528 5.24306 11.9312 5.72049 11.7833 6.22396C11.6354 6.72743 11.5618 7.25694 11.5625 7.8125C11.5625 9.375 12.1094 10.7031 13.2031 11.7969C14.2969 12.8906 15.625 13.4375 17.1875 13.4375C17.7257 13.4375 18.2597 13.3594 18.7896 13.2031C19.3194 13.0469 19.7924 12.8299 20.2083 12.5521C20.3993 12.4306 20.5948 12.3743 20.7948 12.3833C20.9948 12.3924 21.1726 12.4399 21.3281 12.526C21.5017 12.6128 21.6365 12.7431 21.7323 12.9167C21.8281 13.0903 21.8583 13.2986 21.8229 13.5417C21.5799 15.9375 20.5601 17.9253 18.7635 19.5052C16.967 21.0851 14.8792 21.875 12.5 21.875Z" fill="black"/>
</svg>
