<svg width="25" height="25" viewBox="0 0 25 25" fill="none" xmlns="http://www.w3.org/2000/svg">
<path d="M24.1455 12.5C24.1455 19.2013 19.2013 24.5849 12.5 24.5849C12.088 24.5849 11.6808 24.6132 11.2792 24.5731C5.15122 23.9609 0.366211 18.7892 0.366211 12.5C0.366211 6.2175 5.14087 1.05021 11.2594 0.428828C11.6673 0.387422 12.0812 0.41501 12.5 0.41501C19.2013 0.41501 24.1455 5.79865 24.1455 12.5Z" fill="#FFF0AF"/>
<path d="M12.5 0.366211C12.0879 0.366211 11.6808 0.386963 11.2793 0.4271C17.4074 1.03931 22.1924 6.21074 22.1924 12.5C22.1924 18.7893 17.4074 23.9607 11.2793 24.5729C11.6808 24.613 12.0879 24.6338 12.5 24.6338C19.2013 24.6338 24.6338 19.2013 24.6338 12.5C24.6338 5.79868 19.2013 0.366211 12.5 0.366211Z" fill="#FFE07D"/>
<path d="M3.21777 20.6811C3.11353 20.6811 3.01001 20.6369 2.93755 20.5509C1.04326 18.3032 0 15.444 0 12.5C0 9.16113 1.30024 6.02212 3.66113 3.66118C6.02207 1.3002 9.16113 0 12.5 0C15.4542 0 18.321 1.04971 20.5724 2.95576C20.7268 3.08643 20.7459 3.31753 20.6152 3.47187C20.4845 3.62617 20.2535 3.64541 20.0992 3.51475C17.9799 1.72051 15.2811 0.732422 12.5 0.732422C9.35674 0.732422 6.40166 1.95645 4.17905 4.17905C1.95645 6.40166 0.732422 9.35679 0.732422 12.5C0.732422 15.2715 1.71445 17.9631 3.49766 20.0789C3.62798 20.2335 3.6083 20.4646 3.45361 20.5949C3.38491 20.6528 3.30107 20.6811 3.21777 20.6811Z" fill="black"/>
<path d="M12.4998 25C9.38336 25 6.3981 23.8465 4.094 21.7518C3.94434 21.6158 3.93331 21.3842 4.06934 21.2345C4.20548 21.0848 4.43702 21.0738 4.58668 21.2099C6.75567 23.1817 9.56598 24.2676 12.4998 24.2676C15.643 24.2676 18.5982 23.0436 20.8207 20.821C23.0433 18.5984 24.2673 15.6433 24.2673 12.5C24.2673 9.56889 23.1831 6.76049 21.2144 4.59223C21.0785 4.44252 21.0896 4.21088 21.2394 4.07494C21.3891 3.93901 21.6207 3.95014 21.7567 4.0999C23.848 6.40322 24.9998 9.38642 24.9998 12.5C24.9998 15.8389 23.6995 18.978 21.3386 21.3389C18.9777 23.6998 15.8386 25 12.4998 25Z" fill="black"/>
<path d="M12.4998 18.4411C10.7166 18.4411 8.93353 17.7624 7.57601 16.4049C7.433 16.2619 7.433 16.03 7.57601 15.887C7.71908 15.744 7.95092 15.744 8.09393 15.887C10.5233 18.3164 14.4762 18.3164 16.9056 15.887C17.0487 15.744 17.2805 15.744 17.4235 15.887C17.5665 16.0301 17.5665 16.262 17.4235 16.4049C16.0661 17.7624 14.2829 18.4411 12.4998 18.4411Z" fill="black"/>
<path d="M7.67402 10.8872C6.97984 10.8872 6.35816 10.5283 6.01104 9.92708C5.90991 9.75194 5.96992 9.52796 6.14507 9.42684C6.32017 9.32567 6.54424 9.38568 6.64531 9.56087C6.86001 9.93275 7.24453 10.1548 7.67398 10.1548C8.10342 10.1548 8.48794 9.93275 8.70264 9.56087C8.80371 9.38573 9.02759 9.32567 9.20288 9.42684C9.37803 9.52796 9.43804 9.75194 9.33692 9.92708C8.98989 10.5283 8.36821 10.8872 7.67402 10.8872Z" fill="black"/>
<path d="M17.3259 10.8872C16.6317 10.8872 16.01 10.5283 15.6629 9.92708C15.5618 9.75194 15.6218 9.52796 15.7969 9.42684C15.972 9.32567 16.1961 9.38568 16.2972 9.56087C16.5119 9.93275 16.8964 10.1548 17.3258 10.1548C17.7553 10.1548 18.1398 9.93275 18.3545 9.56087C18.4556 9.38573 18.6795 9.32567 18.8547 9.42684C19.0299 9.52796 19.0899 9.75194 18.9888 9.92708C18.6418 10.5283 18.0201 10.8872 17.3259 10.8872Z" fill="black"/>
<path d="M5.47248 8.62956C5.33093 8.62956 5.19606 8.54699 5.1362 8.40881C5.05583 8.22321 5.14118 8.00759 5.32673 7.92722L7.65036 6.92097C7.8361 6.84065 8.05163 6.92595 8.13195 7.1115C8.21232 7.29709 8.12697 7.51272 7.94142 7.59309L5.61779 8.59934C5.57043 8.61985 5.52101 8.62956 5.47248 8.62956Z" fill="black"/>
<path d="M19.5272 8.62954C19.4786 8.62954 19.4292 8.61983 19.3818 8.59927L17.0582 7.59302C16.8726 7.51265 16.7873 7.29702 16.8677 7.11143C16.948 6.92578 17.1636 6.84048 17.3492 6.9209L19.6729 7.92715C19.8585 8.00752 19.9438 8.22315 19.8634 8.40874C19.8036 8.54698 19.6687 8.62954 19.5272 8.62954Z" fill="black"/>
</svg>
