<svg width="26" height="25" viewBox="0 0 26 25" fill="none" xmlns="http://www.w3.org/2000/svg">
<path fill-rule="evenodd" clip-rule="evenodd" d="M21.6062 2.53542C21.7978 2.51562 21.9912 2.54933 22.1648 2.63282C22.3384 2.71631 22.4854 2.84629 22.5896 3.00833L22.6708 3.13958L22.7844 3.35L22.8687 3.53125L22.9552 3.74479C23.2833 4.61771 23.5302 6.1375 22.3906 7.86562C22.3052 7.99336 22.209 8.11358 22.1031 8.225C22.1166 8.35361 22.106 8.4836 22.0719 8.60833C21.8643 9.36751 21.6032 10.111 21.2906 10.8333C20.7167 12.149 19.9073 13.4792 18.7667 14.6208C16.6312 16.7562 13.8271 17.7365 11.6375 18.1937C10.7781 18.374 9.99583 18.476 9.36041 18.5344L8.85312 18.574L8.63437 18.5875L8.50104 19.6948L8.39896 20.6385L8.35937 21.0677L8.32083 21.6073C8.31576 21.6964 8.31298 21.7857 8.3125 21.875C8.3125 22.1513 8.20275 22.4162 8.0074 22.6116C7.81205 22.8069 7.5471 22.9167 7.27083 22.9167C6.99456 22.9167 6.72961 22.8069 6.53426 22.6116C6.33891 22.4162 6.22916 22.1513 6.22916 21.875C6.22916 21.766 6.23264 21.641 6.23958 21.5L6.27083 21.0448L6.31562 20.5354L6.39896 19.7312L6.45937 19.2083C6.67291 17.4042 6.92396 15.6396 7.4875 13.9062C8.13854 11.9062 9.31041 9.34479 11.401 7.25521C13.0396 5.61562 14.976 4.53542 16.7198 3.82812L17.1906 3.64375L17.649 3.47708C17.724 3.45069 17.7986 3.42535 17.8729 3.40104L18.3104 3.25937L18.7292 3.13437L19.1292 3.02292L19.5073 2.92604L19.8615 2.84271L20.1896 2.76979L20.7583 2.66042L21.3594 2.56562L21.6062 2.53542ZM21.0833 4.71875L20.7479 4.78333L20.3625 4.86562L19.9302 4.96771L19.699 5.02812L19.2094 5.16354C19.0399 5.21354 18.866 5.26771 18.6875 5.32604L18.1385 5.51354C16.4562 6.12187 14.4844 7.11771 12.874 8.72812C11.099 10.5021 10.0615 12.7281 9.46875 14.551C9.29687 15.0792 9.16354 15.5687 9.0625 15.9969L8.95416 16.4781L9.43854 16.4333C10.0338 16.3706 10.6256 16.2778 11.2115 16.1552C13.2115 15.7375 15.5646 14.876 17.2927 13.1469C18.1781 12.2625 18.8385 11.2125 19.3281 10.1208C18.3115 10.6625 17.226 11.1479 16.4542 11.4052C16.192 11.4925 15.9059 11.4721 15.6587 11.3484C15.4116 11.2248 15.2238 11.008 15.1365 10.7458C15.0492 10.4837 15.0696 10.1975 15.1932 9.95042C15.3169 9.7033 15.5337 9.51542 15.7958 9.42812C16.4979 9.19479 17.6271 8.68542 18.6646 8.11042C19.1792 7.825 19.65 7.53542 20.0198 7.26875L20.2552 7.09167L20.4323 6.94479L20.5 6.88229L20.599 6.78333L20.651 6.71771C21.2 5.88646 21.1927 5.17604 21.0833 4.71875ZM5.70833 1.04167C5.90321 1.04167 6.09417 1.09633 6.25953 1.19945C6.42489 1.30257 6.558 1.45 6.64375 1.625L6.69375 1.74687L6.82916 2.14062C6.97208 2.55957 7.20237 2.94336 7.50478 3.26661C7.80719 3.58985 8.17482 3.84516 8.58333 4.01562L8.77604 4.08854L9.16979 4.22292C9.36472 4.28956 9.53552 4.4125 9.66059 4.5762C9.78565 4.73991 9.85937 4.93702 9.87241 5.14262C9.88546 5.34822 9.83724 5.55306 9.73387 5.73126C9.6305 5.90946 9.47661 6.05301 9.29166 6.14375L9.16979 6.19375L8.77604 6.32917C8.3571 6.47208 7.9733 6.70237 7.65006 7.00478C7.32681 7.30719 7.07151 7.67483 6.90104 8.08333L6.82812 8.27604L6.69375 8.66979C6.62711 8.86473 6.50416 9.03552 6.34046 9.16059C6.17675 9.28565 5.97964 9.35937 5.77404 9.37241C5.56845 9.38546 5.3636 9.33724 5.1854 9.23387C5.0072 9.1305 4.86366 8.97661 4.77291 8.79167L4.72291 8.66979L4.5875 8.27604C4.44458 7.8571 4.21429 7.4733 3.91188 7.15006C3.60947 6.82682 3.24184 6.57151 2.83333 6.40104L2.64062 6.32812L2.24687 6.19375C2.05194 6.12711 1.88114 6.00417 1.75608 5.84046C1.63101 5.67676 1.5573 5.47964 1.54425 5.27405C1.53121 5.06845 1.57942 4.8636 1.68279 4.6854C1.78616 4.5072 1.94005 4.36366 2.125 4.27292L2.24687 4.22292L2.64062 4.0875C3.05956 3.94458 3.44336 3.71429 3.7666 3.41188C4.08985 3.10947 4.34515 2.74184 4.51562 2.33333L4.58854 2.14062L4.72291 1.74687C4.7931 1.54124 4.92583 1.36269 5.10253 1.23624C5.27923 1.10978 5.49104 1.04175 5.70833 1.04167ZM5.70833 4.37083C5.46192 4.68094 5.18093 4.96192 4.87083 5.20833C5.18194 5.45486 5.46111 5.73403 5.70833 6.04583C5.95486 5.73472 6.23402 5.45555 6.54583 5.20833C6.23573 4.96192 5.95474 4.68094 5.70833 4.37083Z" fill="black"/>
</svg>
