<svg width="16" height="16" viewBox="0 0 16 16" fill="none" xmlns="http://www.w3.org/2000/svg">
<path d="M6.42125 10.5L12.1594 12.5525C12.2558 12.5872 12.3587 12.5998 12.4606 12.5896C12.5626 12.5793 12.6609 12.5465 12.7485 12.4933C12.8361 12.4402 12.9107 12.3681 12.9669 12.2825C13.023 12.1968 13.0593 12.0997 13.0731 11.9981L14.2438 3.1494C14.315 2.61065 13.7569 2.20877 13.2644 2.44315L2.14 7.75315C1.59 8.01565 1.63125 8.8094 2.20625 9.01377L3.73125 9.55627L4.5625 9.84815M8.625 11.2875L7.38125 13.3663C6.975 13.8713 6.15688 13.5856 6.15688 12.9394V11.275C6.1569 10.9609 6.27516 10.6584 6.48813 10.4275L8.9075 7.80252" stroke="black" stroke-linecap="round" stroke-linejoin="round"/>
</svg>
