<svg width="28" height="25" viewBox="0 0 28 25" fill="none" xmlns="http://www.w3.org/2000/svg">
<path d="M23.0216 8.09472C22.7236 7.99225 22.4231 7.8973 22.1203 7.80996C22.1712 7.60162 22.218 7.39581 22.2596 7.19362C22.9418 3.87334 22.4958 1.19845 20.9723 0.317744C19.5116 -0.526554 17.1228 0.353819 14.7102 2.45875C14.4724 2.66657 14.2399 2.88038 14.0129 3.09998C13.8609 2.95396 13.7063 2.81077 13.549 2.67049C11.0205 0.419827 8.48608 -0.528747 6.96423 0.354476C5.50484 1.20141 5.0727 3.71599 5.68695 6.8627C5.74807 7.17435 5.81707 7.48439 5.89389 7.79252C5.53514 7.89472 5.18897 8.00349 4.85767 8.11928C1.89317 9.15546 0 10.7793 0 12.4636C0 14.2032 2.03241 15.948 5.12006 17.006C5.37039 17.0914 5.6228 17.1706 5.87705 17.2434C5.7945 17.5753 5.72119 17.9094 5.6572 18.2454C5.07161 21.3375 5.52891 23.7926 6.98436 24.6342C8.48761 25.5033 11.0107 24.6101 13.4673 22.4571C13.6665 22.2821 13.8614 22.1021 14.0516 21.9173C14.2974 22.1551 14.5498 22.386 14.8085 22.6096C17.1883 24.6625 19.5385 25.4914 20.9926 24.6476C22.4944 23.776 22.9825 21.1385 22.3488 17.9296C22.2989 17.6782 22.2429 17.428 22.1809 17.1794C22.3581 17.1267 22.532 17.0726 22.7015 17.0162C25.9115 15.9501 28 14.2264 28 12.4636C28 10.7731 26.0457 9.13836 23.0216 8.09472ZM22.3254 15.8781C22.1721 15.9288 22.0154 15.9779 21.8551 16.0255C21.5007 14.9009 21.0225 13.705 20.4373 12.4694C20.9957 11.2632 21.4555 10.0827 21.8 8.96533C22.0864 9.04844 22.3643 9.13605 22.6323 9.22849C25.2234 10.1228 26.8039 11.4448 26.8039 12.4636C26.8039 13.5487 25.097 14.9573 22.3254 15.8781ZM21.1754 18.1625C21.4557 19.5813 21.4956 20.8642 21.31 21.8672C21.1433 22.7684 20.8079 23.3692 20.3932 23.6098C19.5109 24.1219 17.6238 23.4563 15.5887 21.7006C15.3481 21.4927 15.1133 21.278 14.8846 21.057C15.6737 20.192 16.4621 19.1864 17.2317 18.0695C18.5853 17.9491 19.8641 17.7522 21.0238 17.4834C21.0811 17.7146 21.1316 17.9409 21.1754 18.1625ZM9.54581 23.5214C8.68372 23.8265 7.99706 23.8353 7.58198 23.5954C6.69878 23.0847 6.33161 21.1134 6.83244 18.4691C6.89198 18.1566 6.96014 17.8458 7.03686 17.5372C8.18377 17.7915 9.45328 17.9744 10.8101 18.0847C11.5849 19.1776 12.3961 20.1821 13.2137 21.0617C13.0399 21.2302 12.8621 21.3945 12.6803 21.5543C11.5939 22.5062 10.5052 23.1817 9.54581 23.5214ZM5.50703 15.8714C4.1417 15.4035 3.01416 14.7955 2.24131 14.132C1.54678 13.5358 1.19623 12.9438 1.19623 12.4636C1.19623 11.4414 2.71622 10.1377 5.25142 9.25163C5.55909 9.14417 5.88109 9.04274 6.21523 8.94757C6.56567 10.0901 7.02527 11.2847 7.57991 12.4927C7.01805 13.7186 6.55189 14.9323 6.19806 16.0884C5.96598 16.0217 5.73557 15.9493 5.50703 15.8714ZM6.86088 6.63233C6.33467 3.93638 6.68412 1.90272 7.56361 1.39231C8.5003 0.848665 10.5716 1.62377 12.7549 3.5672C12.8972 3.69421 13.0373 3.8238 13.175 3.9559C12.3615 4.83167 11.5577 5.82871 10.7897 6.91511C9.47286 7.03748 8.21231 7.23397 7.05337 7.49724C6.98196 7.21064 6.91777 6.92217 6.86088 6.63233ZM18.9388 9.62235C18.6651 9.14833 18.3812 8.68028 18.0873 8.21851C18.9807 8.33178 19.8367 8.48211 20.6405 8.66588C20.3992 9.44132 20.0984 10.252 19.7444 11.0831C19.4856 10.5908 19.217 10.1038 18.9388 9.62235ZM14.0135 4.81303C14.5651 5.41226 15.1177 6.08123 15.6612 6.80711C14.5587 6.7549 13.4543 6.75468 12.3518 6.80645C12.8959 6.08726 13.4531 5.41917 14.0135 4.81303ZM9.05647 9.63046C8.78175 10.1081 8.51819 10.5921 8.26602 11.082C7.91777 10.2538 7.61972 9.43945 7.37636 8.65305C8.17523 8.47388 9.02716 8.32739 9.91484 8.21621C9.61773 8.6808 9.33153 9.15242 9.05647 9.63046ZM9.94033 16.7961C9.02322 16.6935 8.1585 16.5546 7.35984 16.3802C7.60703 15.5798 7.91164 14.7481 8.26744 13.9022C8.52062 14.3925 8.78527 14.8768 9.06117 15.3546C9.34489 15.8458 9.63867 16.327 9.94033 16.7961ZM14.0465 20.1986C13.4795 19.5854 12.914 18.907 12.3618 18.1774C12.8979 18.1984 13.4445 18.2092 14 18.2092C14.5707 18.2092 15.1349 18.1964 15.6902 18.1716C15.1449 18.9143 14.5945 19.5937 14.0465 20.1986ZM19.7556 13.859C20.1299 14.7142 20.4454 15.5415 20.6958 16.3283C19.884 16.514 19.0075 16.6636 18.084 16.7747C18.3799 16.3043 18.6665 15.8281 18.9435 15.3464C19.2252 14.8567 19.496 14.3608 19.7556 13.859ZM17.9074 14.7472C17.4833 15.4859 17.0353 16.2105 16.5642 16.9199C15.7108 16.9806 14.8555 17.0107 14 17.0102C13.1286 17.0102 12.2811 16.983 11.4649 16.9299C10.9815 16.2221 10.5249 15.4962 10.0963 14.7538C9.66961 14.0154 9.2712 13.2609 8.9017 12.4921C9.27027 11.7231 9.66758 10.9683 10.0928 10.2293L10.0927 10.2294C10.5177 9.49012 10.9706 8.76734 11.4504 8.06259C12.283 7.99943 13.1369 7.96654 13.9999 7.96654C14.8668 7.96654 15.7219 7.99976 16.5543 8.06336C17.0293 8.76705 17.4793 9.48735 17.9035 10.2229C18.3301 10.9603 18.7326 11.7115 19.1105 12.4751C18.7365 13.2465 18.3352 14.0044 17.9074 14.7472ZM20.3749 1.35645C21.3125 1.89856 21.6771 4.08463 21.088 6.95141C21.0503 7.13445 21.0083 7.32048 20.9623 7.50952C19.8005 7.24066 18.5391 7.04077 17.2184 6.91654C16.449 5.81818 15.6518 4.81961 14.8515 3.95513C15.0612 3.75246 15.276 3.55503 15.4955 3.36303C17.5627 1.55963 19.4947 0.847569 20.3749 1.35645ZM14 9.957C15.3809 9.957 16.5003 11.0793 16.5003 12.4636C16.5003 13.8479 15.3809 14.9702 14 14.9702C12.6191 14.9702 11.4997 13.8479 11.4997 12.4636C11.4997 11.0793 12.6191 9.957 14 9.957Z" fill="#00D8FF"/>
</svg>
