<svg width="15" height="14" viewBox="0 0 15 14" fill="none" xmlns="http://www.w3.org/2000/svg">
<mask id="path-1-inside-1_513_1185" fill="white">
<path fill-rule="evenodd" clip-rule="evenodd" d="M4.86004 0.063001C4.75426 0.0363629 4.6424 0.0490576 4.54527 0.0987235C4.44815 0.148389 4.37237 0.231645 4.33204 0.333001L3.40404 2.653L1.08304 3.583C1.01903 3.60867 0.961775 3.64871 0.9157 3.70003C0.869625 3.75134 0.835961 3.81256 0.817308 3.87896C0.798656 3.94535 0.795513 4.01515 0.808124 4.08295C0.820735 4.15075 0.848762 4.21475 0.890039 4.27L2.26104 6.099L1.31304 9.891C1.28709 9.99548 1.29946 10.1058 1.34789 10.2019C1.39633 10.2981 1.47763 10.3737 1.57704 10.415L4.45004 11.613L5.87504 13.75C5.92795 13.8293 6.00469 13.8898 6.0942 13.9227C6.18371 13.9556 6.28135 13.9592 6.37304 13.933L9.87304 12.933L9.89104 12.927L12.891 11.927C12.9649 11.9024 13.031 11.859 13.0831 11.8012C13.1351 11.7433 13.1713 11.673 13.188 11.597L14.188 7.097C14.2067 7.01264 14.2007 6.92469 14.1707 6.84365C14.1408 6.76261 14.0881 6.69191 14.019 6.64L12.199 5.275V3C12.1989 2.91649 12.1756 2.83466 12.1316 2.76366C12.0876 2.69266 12.0248 2.6353 11.95 2.598L8.95004 1.098C8.9206 1.08334 8.88978 1.07161 8.85804 1.063L4.86004 0.063001ZM11.682 6.012L13.025 7.019L10.462 9.154C10.3976 9.20772 10.3495 9.27837 10.323 9.358L9.50304 11.815L7.98804 10.868C7.93787 10.8367 7.88203 10.8155 7.8237 10.8058C7.76537 10.7961 7.70569 10.7979 7.64807 10.8112C7.59045 10.8246 7.53602 10.8491 7.48789 10.8835C7.43975 10.9178 7.39886 10.9613 7.36754 11.0115C7.33622 11.0617 7.31509 11.1175 7.30535 11.1758C7.29561 11.2342 7.29745 11.2939 7.31078 11.3515C7.3241 11.4091 7.34865 11.4635 7.38301 11.5117C7.41737 11.5598 7.46087 11.6007 7.51104 11.632L8.65304 12.345L6.44304 12.977L5.12304 11C5.074 10.9266 5.00445 10.8692 4.92304 10.835L2.28004 9.734L3.10104 6.45H5.25004C5.30913 6.45 5.36765 6.43836 5.42225 6.41575C5.47684 6.39313 5.52645 6.35999 5.56824 6.3182C5.61002 6.27641 5.64317 6.2268 5.66578 6.17221C5.6884 6.11761 5.70004 6.0591 5.70004 6C5.70004 5.94091 5.6884 5.88239 5.66578 5.82779C5.64317 5.7732 5.61002 5.72359 5.56824 5.6818C5.52645 5.64002 5.47684 5.60687 5.42225 5.58426C5.36765 5.56164 5.30913 5.55 5.25004 5.55H2.97504L1.96204 4.2L3.76404 3.479L6.60804 4.427C6.69529 4.45593 6.78931 4.45745 6.87744 4.43134C6.96558 4.40524 7.04361 4.35278 7.10104 4.281L8.87404 2.065L11.3 3.278V5.195L9.08304 6.082C9.02223 6.10631 8.96746 6.14361 8.92255 6.19128C8.87764 6.23895 8.84368 6.29585 8.82304 6.358L8.32304 7.858C8.30399 7.91418 8.29624 7.97356 8.30022 8.03275C8.30421 8.09193 8.31985 8.14974 8.34626 8.20286C8.37267 8.25597 8.40932 8.30334 8.4541 8.34224C8.49888 8.38114 8.55091 8.4108 8.6072 8.42952C8.66349 8.44824 8.72292 8.45564 8.78208 8.45131C8.84124 8.44698 8.89896 8.43099 8.95191 8.40427C9.00487 8.37755 9.05203 8.34062 9.09066 8.29561C9.1293 8.2506 9.15865 8.1984 9.17704 8.142L9.61004 6.84L11.682 6.012ZM7.96104 1.766L6.59504 3.474L4.34504 2.724L5.02204 1.032L7.96104 1.766ZM10.461 11.789L12.366 11.154L13.025 8.19L11.136 9.764L10.461 11.789Z"/>
</mask>
<path d="M4.86004 0.063001L4.61585 1.03273L4.61739 1.03311L4.86004 0.063001ZM4.33204 0.333001L5.26052 0.704392L5.26118 0.702728L4.33204 0.333001ZM3.40404 2.653L3.77598 3.58126L4.17348 3.42198L4.33252 3.02439L3.40404 2.653ZM1.08304 3.583L0.711097 2.65474L0.710821 2.65486L1.08304 3.583ZM0.890039 4.27L0.0889311 4.86852L0.0898815 4.86979L0.890039 4.27ZM2.26104 6.099L3.23118 6.34154L3.34658 5.87993L3.0612 5.49921L2.26104 6.099ZM1.31304 9.891L0.342895 9.64847L0.342526 9.64995L1.31304 9.891ZM1.57704 10.415L1.96191 9.49203L1.96089 9.4916L1.57704 10.415ZM4.45004 11.613L5.28203 11.0582L5.11417 10.8065L4.83491 10.69L4.45004 11.613ZM5.87504 13.75L5.04305 14.3048L5.04309 14.3049L5.87504 13.75ZM6.37304 13.933L6.64776 14.8945L6.37304 13.933ZM9.87304 12.933L10.1478 13.8945L10.1686 13.8886L10.1893 13.8817L9.87304 12.933ZM9.89104 12.927L10.2073 13.8757L10.2073 13.8757L9.89104 12.927ZM12.891 11.927L13.2073 12.8757L13.2076 12.8756L12.891 11.927ZM13.188 11.597L12.2119 11.3801L12.2115 11.3818L13.188 11.597ZM14.188 7.097L15.1642 7.31393L15.1644 7.31316L14.188 7.097ZM14.019 6.64L14.6198 5.8406L14.619 5.84L14.019 6.64ZM12.199 5.275H11.199V5.775L11.599 6.075L12.199 5.275ZM12.199 3H13.199L13.199 2.99863L12.199 3ZM11.95 2.598L11.5028 3.49243L11.5034 3.4927L11.95 2.598ZM8.95004 1.098L9.39725 0.203573L9.39588 0.202891L8.95004 1.098ZM8.85804 1.063L9.11989 0.0978914L9.11031 0.095294L9.10069 0.0928871L8.85804 1.063ZM11.682 6.012L12.2819 5.21193L11.8325 4.87497L11.311 5.0834L11.682 6.012ZM13.025 7.019L13.6651 7.78734L14.637 6.97776L13.6249 6.21893L13.025 7.019ZM10.462 9.154L9.822 8.38566L9.82178 8.38584L10.462 9.154ZM10.323 9.358L11.2716 9.67458L11.2722 9.67282L10.323 9.358ZM9.50304 11.815L8.97299 12.663L10.0497 13.336L10.4516 12.1316L9.50304 11.815ZM7.98804 10.868L8.51809 10.02L8.51764 10.0198L7.98804 10.868ZM7.51104 11.632L6.98144 12.4802L6.98144 12.4802L7.51104 11.632ZM8.65304 12.345L8.92799 13.3065L11.0906 12.688L9.18264 11.4968L8.65304 12.345ZM6.44304 12.977L5.61138 13.5323L6.01651 14.1391L6.71799 13.9385L6.44304 12.977ZM5.12304 11L5.9547 10.4447L5.95466 10.4447L5.12304 11ZM4.92304 10.835L5.31022 9.91299L5.30758 9.91189L4.92304 10.835ZM2.28004 9.734L1.3099 9.49147L1.10121 10.3262L1.8955 10.6571L2.28004 9.734ZM3.10104 6.45V5.45H2.32026L2.1309 6.20747L3.10104 6.45ZM5.25004 6.45V5.45V6.45ZM5.25004 5.55V6.55V5.55ZM2.97504 5.55L2.17518 6.15019L2.47519 6.55H2.97504V5.55ZM1.96204 4.2L1.59056 3.27156L0.378916 3.75635L1.16218 4.80019L1.96204 4.2ZM3.76404 3.479L4.08027 2.53032L3.73271 2.41446L3.39256 2.55056L3.76404 3.479ZM6.60804 4.427L6.29181 5.37569L6.29332 5.37618L6.60804 4.427ZM7.10104 4.281L7.88187 4.90574L7.88187 4.90574L7.10104 4.281ZM8.87404 2.065L9.32125 1.17057L8.59822 0.80906L8.0932 1.44026L8.87404 2.065ZM11.3 3.278H12.3V2.65997L11.7473 2.38357L11.3 3.278ZM11.3 5.195L11.6715 6.12345L12.3 5.87198V5.195H11.3ZM9.08304 6.082L9.45429 7.01053L9.4545 7.01045L9.08304 6.082ZM8.82304 6.358L9.77172 6.67423L9.77206 6.6732L8.82304 6.358ZM8.32304 7.858L9.27009 8.17914L9.27172 8.17423L8.32304 7.858ZM9.17704 8.142L8.22812 7.82642L8.22629 7.83202L9.17704 8.142ZM9.61004 6.84L9.23896 5.9114L8.8077 6.08374L8.66114 6.52443L9.61004 6.84ZM7.96104 1.766L8.742 2.39058L9.71543 1.17344L8.20334 0.7958L7.96104 1.766ZM6.59504 3.474L6.27881 4.42268L6.94042 4.64322L7.376 4.09858L6.59504 3.474ZM4.34504 2.724L3.4166 2.35252L3.02258 3.33727L4.02881 3.67268L4.34504 2.724ZM5.02204 1.032L5.26434 0.0618002L4.41775 -0.149631L4.0936 0.660516L5.02204 1.032ZM10.461 11.789L9.51236 11.4728L8.8799 13.3701L10.7773 12.7377L10.461 11.789ZM12.366 11.154L12.6823 12.1027L13.2193 11.9237L13.3422 11.371L12.366 11.154ZM13.025 8.19L14.0012 8.40704L14.6376 5.54469L12.3849 7.42175L13.025 8.19ZM11.136 9.764L10.4959 8.99575L10.2773 9.17787L10.1874 9.44777L11.136 9.764ZM4.86004 0.063001L5.10423 -0.906726C4.76337 -0.99256 4.40294 -0.951654 4.08998 -0.79162L4.54527 0.0987235L5.00056 0.989067C4.88185 1.04977 4.74514 1.06529 4.61585 1.03273L4.86004 0.063001ZM4.54527 0.0987235L4.08998 -0.79162C3.77703 -0.631587 3.53286 -0.363321 3.4029 -0.0367257L4.33204 0.333001L5.26118 0.702728C5.21188 0.82661 5.11927 0.928365 5.00056 0.989067L4.54527 0.0987235ZM4.33204 0.333001L3.40356 -0.0383895L2.47556 2.28161L3.40404 2.653L4.33252 3.02439L5.26052 0.704392L4.33204 0.333001ZM3.40404 2.653L3.0321 1.72475L0.711097 2.65475L1.08304 3.583L1.45498 4.51126L3.77598 3.58126L3.40404 2.653ZM1.08304 3.583L0.710821 2.65486C0.504565 2.73757 0.320081 2.86659 0.171617 3.03194L0.9157 3.70003L1.65978 4.36811C1.60347 4.43083 1.53349 4.47977 1.45526 4.51115L1.08304 3.583ZM0.9157 3.70003L0.171617 3.03194C0.0231527 3.19729 -0.0853197 3.39456 -0.145423 3.6085L0.817308 3.87896L1.78004 4.14942C1.75724 4.23057 1.7161 4.30539 1.65978 4.36811L0.9157 3.70003ZM0.817308 3.87896L-0.145423 3.6085C-0.205526 3.82244 -0.21565 4.04733 -0.175015 4.26581L0.808124 4.08295L1.79126 3.9001C1.80668 3.98297 1.80284 4.06827 1.78004 4.14942L0.817308 3.87896ZM0.808124 4.08295L-0.175015 4.26581C-0.134381 4.48428 -0.0440735 4.6905 0.0889322 4.86852L0.890039 4.27L1.69115 3.67148C1.7416 3.73901 1.77585 3.81723 1.79126 3.9001L0.808124 4.08295ZM0.890039 4.27L0.0898815 4.86979L1.46088 6.69879L2.26104 6.099L3.0612 5.49921L1.6902 3.67021L0.890039 4.27ZM2.26104 6.099L1.2909 5.85647L0.342896 9.64847L1.31304 9.891L2.28318 10.1335L3.23118 6.34154L2.26104 6.099ZM1.31304 9.891L0.342526 9.64995C0.258909 9.98661 0.298756 10.3421 0.454834 10.6519L1.34789 10.2019L2.24095 9.75201C2.30015 9.86951 2.31527 10.0043 2.28355 10.132L1.31304 9.891ZM1.34789 10.2019L0.454834 10.6519C0.610911 10.9617 0.872877 11.2052 1.19319 11.3384L1.57704 10.415L1.96089 9.4916C2.08239 9.54211 2.18175 9.6345 2.24095 9.75201L1.34789 10.2019ZM1.57704 10.415L1.19217 11.338L4.06517 12.536L4.45004 11.613L4.83491 10.69L1.96191 9.49203L1.57704 10.415ZM4.45004 11.613L3.61805 12.1678L5.04305 14.3048L5.87504 13.75L6.70703 13.1952L5.28203 11.0582L4.45004 11.613ZM5.87504 13.75L5.04309 14.3049C5.21358 14.5605 5.46087 14.7554 5.74928 14.8613L6.0942 13.9227L6.43912 12.9841C6.54852 13.0243 6.64232 13.0982 6.70698 13.1951L5.87504 13.75ZM6.0942 13.9227L5.74928 14.8613C6.0377 14.9673 6.35232 14.9789 6.64776 14.8945L6.37304 13.933L6.09832 12.9715C6.21038 12.9395 6.32972 12.9439 6.43912 12.9841L6.0942 13.9227ZM6.37304 13.933L6.64776 14.8945L10.1478 13.8945L9.87304 12.933L9.59832 11.9715L6.09832 12.9715L6.37304 13.933ZM9.87304 12.933L10.1893 13.8817L10.2073 13.8757L9.89104 12.927L9.57483 11.9783L9.55683 11.9843L9.87304 12.933ZM9.89104 12.927L10.2073 13.8757L13.2073 12.8757L12.891 11.927L12.5748 10.9783L9.57481 11.9783L9.89104 12.927ZM12.891 11.927L13.2076 12.8756C13.4454 12.7962 13.6586 12.6565 13.8264 12.4701L13.0831 11.8012L12.3398 11.1322C12.4034 11.0615 12.4843 11.0085 12.5745 10.9784L12.891 11.927ZM13.0831 11.8012L13.8264 12.4701C13.9941 12.2838 14.1106 12.0571 14.1646 11.8122L13.188 11.597L12.2115 11.3818C12.2319 11.2889 12.2761 11.2029 12.3398 11.1322L13.0831 11.8012ZM13.188 11.597L14.1642 11.8139L15.1642 7.31393L14.188 7.097L13.2119 6.88007L12.2119 11.3801L13.188 11.597ZM14.188 7.097L15.1644 7.31316C15.2246 7.04134 15.2052 6.75793 15.1087 6.4968L14.1707 6.84365L13.2328 7.1905C13.1962 7.09144 13.1889 6.98394 13.2117 6.88084L14.188 7.097ZM14.1707 6.84365L15.1087 6.4968C15.0121 6.23568 14.8424 6.00787 14.6198 5.8406L14.019 6.64L13.4182 7.4394C13.3338 7.37595 13.2694 7.28954 13.2328 7.1905L14.1707 6.84365ZM14.019 6.64L14.619 5.84L12.799 4.475L12.199 5.275L11.599 6.075L13.419 7.44L14.019 6.64ZM12.199 5.275H13.199V3H12.199H11.199V5.275H12.199ZM12.199 3L13.199 2.99863C13.1987 2.72953 13.1234 2.46585 12.9817 2.23709L12.1316 2.76366L11.2815 3.29023C11.2277 3.20346 11.1992 3.10345 11.199 3.00137L12.199 3ZM12.1316 2.76366L12.9817 2.23709C12.84 2.00832 12.6375 1.8235 12.3967 1.7033L11.95 2.598L11.5034 3.4927C11.412 3.44711 11.3352 3.377 11.2815 3.29023L12.1316 2.76366ZM11.95 2.598L12.3973 1.70357L9.39725 0.203574L8.95004 1.098L8.50283 1.99243L11.5028 3.49243L11.95 2.598ZM8.95004 1.098L9.39588 0.202891C9.30756 0.1589 9.21512 0.123729 9.11989 0.0978914L8.85804 1.063L8.59619 2.02811C8.56445 2.0195 8.53363 2.00777 8.50419 1.99311L8.95004 1.098ZM8.85804 1.063L9.10069 0.0928871L5.10269 -0.907113L4.86004 0.063001L4.61739 1.03311L8.61539 2.03312L8.85804 1.063ZM11.682 6.012L11.0821 6.81207L12.4251 7.81907L13.025 7.019L13.6249 6.21893L12.2819 5.21193L11.682 6.012ZM13.025 7.019L12.385 6.25066L9.822 8.38566L10.462 9.154L11.1021 9.92235L13.6651 7.78734L13.025 7.019ZM10.462 9.154L9.82178 8.38584C9.61413 8.55892 9.45899 8.7866 9.37389 9.04318L10.323 9.358L11.2722 9.67282C11.2399 9.77015 11.1811 9.85651 11.1023 9.92216L10.462 9.154ZM10.323 9.358L9.37447 9.04143L8.55447 11.4984L9.50304 11.815L10.4516 12.1316L11.2716 9.67458L10.323 9.358ZM9.50304 11.815L10.0331 10.967L8.51809 10.02L7.98804 10.868L7.45799 11.716L8.97299 12.663L9.50304 11.815ZM7.98804 10.868L8.51764 10.0198C8.35608 9.91889 8.17624 9.85083 7.98838 9.81946L7.8237 10.8058L7.65902 11.7922C7.58783 11.7803 7.51967 11.7545 7.45844 11.7162L7.98804 10.868ZM7.8237 10.8058L7.98838 9.81946C7.80052 9.7881 7.60832 9.79404 7.42275 9.83696L7.64807 10.8112L7.87339 11.7855C7.80306 11.8018 7.73022 11.804 7.65902 11.7922L7.8237 10.8058ZM7.64807 10.8112L7.42275 9.83696C7.23719 9.87987 7.06189 9.95891 6.90688 10.0696L7.48789 10.8835L8.0689 11.6974C8.01015 11.7393 7.94371 11.7693 7.87339 11.7855L7.64807 10.8112ZM7.48789 10.8835L6.90688 10.0696C6.75186 10.1802 6.62016 10.3203 6.51929 10.4819L7.36754 11.0115L8.21579 11.5411C8.17756 11.6023 8.12765 11.6554 8.0689 11.6974L7.48789 10.8835ZM7.36754 11.0115L6.51929 10.4819C6.41842 10.6435 6.35036 10.8233 6.319 11.0112L7.30535 11.1758L8.29169 11.3405C8.27981 11.4117 8.25401 11.4799 8.21579 11.5411L7.36754 11.0115ZM7.30535 11.1758L6.319 11.0112C6.28763 11.199 6.29358 11.3912 6.33649 11.5768L7.31078 11.3515L8.28506 11.1262C8.30133 11.1965 8.30358 11.2693 8.29169 11.3405L7.30535 11.1758ZM7.31078 11.3515L6.33649 11.5768C6.37941 11.7624 6.45846 11.9377 6.56911 12.0927L7.38301 11.5117L8.19691 10.9306C8.23884 10.9894 8.2688 11.0558 8.28506 11.1262L7.31078 11.3515ZM7.38301 11.5117L6.56911 12.0927C6.67977 12.2477 6.81988 12.3794 6.98144 12.4802L7.51104 11.632L8.04064 10.7838C8.10187 10.822 8.15497 10.8719 8.19691 10.9306L7.38301 11.5117ZM7.51104 11.632L6.98144 12.4802L8.12344 13.1932L8.65304 12.345L9.18264 11.4968L8.04064 10.7838L7.51104 11.632ZM8.65304 12.345L8.37809 11.3835L6.16809 12.0155L6.44304 12.977L6.71799 13.9385L8.92799 13.3065L8.65304 12.345ZM6.44304 12.977L7.2747 12.4217L5.9547 10.4447L5.12304 11L4.29138 11.5553L5.61138 13.5323L6.44304 12.977ZM5.12304 11L5.95466 10.4447C5.79666 10.2081 5.57254 10.0232 5.31022 9.913L4.92304 10.835L4.53586 11.757C4.43636 11.7152 4.35135 11.6451 4.29141 11.5553L5.12304 11ZM4.92304 10.835L5.30758 9.91189L2.66458 8.81089L2.28004 9.734L1.8955 10.6571L4.5385 11.7581L4.92304 10.835ZM2.28004 9.734L3.25018 9.97654L4.07118 6.69254L3.10104 6.45L2.1309 6.20747L1.3099 9.49147L2.28004 9.734ZM3.10104 6.45V7.45H5.25004V6.45V5.45H3.10104V6.45ZM5.25004 6.45V7.45C5.44045 7.45 5.62901 7.4125 5.80493 7.33963L5.42225 6.41575L5.03956 5.49187C5.10629 5.46423 5.17781 5.45 5.25004 5.45V6.45ZM5.42225 6.41575L5.80493 7.33963C5.98085 7.26676 6.1407 7.15995 6.27534 7.02531L5.56824 6.3182L4.86113 5.61109C4.91221 5.56002 4.97284 5.51951 5.03956 5.49187L5.42225 6.41575ZM5.56824 6.3182L6.27534 7.02531C6.40999 6.89066 6.5168 6.73081 6.58966 6.55489L5.66578 6.17221L4.74191 5.78953C4.76954 5.7228 4.81006 5.66217 4.86113 5.61109L5.56824 6.3182ZM5.66578 6.17221L6.58966 6.55489C6.66253 6.37897 6.70004 6.19042 6.70004 6H5.70004H4.70004C4.70004 5.92777 4.71426 5.85626 4.74191 5.78953L5.66578 6.17221ZM5.70004 6H6.70004C6.70004 5.80959 6.66253 5.62103 6.58966 5.44511L5.66578 5.82779L4.74191 6.21048C4.71426 6.14375 4.70004 6.07223 4.70004 6H5.70004ZM5.66578 5.82779L6.58966 5.44511C6.5168 5.26919 6.40999 5.10934 6.27534 4.9747L5.56824 5.6818L4.86113 6.38891C4.81006 6.33783 4.76954 6.2772 4.74191 6.21048L5.66578 5.82779ZM5.56824 5.6818L6.27534 4.9747C6.1407 4.84005 5.98085 4.73324 5.80493 4.66038L5.42225 5.58426L5.03956 6.50813C4.97284 6.4805 4.91221 6.43998 4.86113 6.38891L5.56824 5.6818ZM5.42225 5.58426L5.80493 4.66038C5.62901 4.58751 5.44045 4.55 5.25004 4.55V5.55V6.55C5.17781 6.55 5.10629 6.53578 5.03956 6.50813L5.42225 5.58426ZM5.25004 5.55V4.55H2.97504V5.55V6.55H5.25004V5.55ZM2.97504 5.55L3.7749 4.94981L2.7619 3.59981L1.96204 4.2L1.16218 4.80019L2.17518 6.15019L2.97504 5.55ZM1.96204 4.2L2.33352 5.12844L4.13552 4.40744L3.76404 3.479L3.39256 2.55056L1.59056 3.27156L1.96204 4.2ZM3.76404 3.479L3.44781 4.42768L6.29181 5.37568L6.60804 4.427L6.92427 3.47832L4.08027 2.53032L3.76404 3.479ZM6.60804 4.427L6.29332 5.37618C6.57446 5.4694 6.8774 5.47429 7.1614 5.39018L6.87744 4.43134L6.59349 3.47251C6.70121 3.44061 6.81612 3.44246 6.92276 3.47782L6.60804 4.427ZM6.87744 4.43134L7.1614 5.39018C7.4454 5.30608 7.69683 5.13702 7.88187 4.90574L7.10104 4.281L6.32021 3.65626C6.39039 3.56854 6.48576 3.50441 6.59349 3.47251L6.87744 4.43134ZM7.10104 4.281L7.88187 4.90574L9.65487 2.68974L8.87404 2.065L8.0932 1.44026L6.3202 3.65626L7.10104 4.281ZM8.87404 2.065L8.42683 2.95943L10.8528 4.17243L11.3 3.278L11.7473 2.38357L9.32125 1.17057L8.87404 2.065ZM11.3 3.278H10.3V5.195H11.3H12.3V3.278H11.3ZM11.3 5.195L10.9286 4.26655L8.71158 5.15355L9.08304 6.082L9.4545 7.01045L11.6715 6.12345L11.3 5.195ZM9.08304 6.082L8.71179 5.15347C8.51584 5.23181 8.33936 5.35198 8.19466 5.50559L8.92255 6.19128L9.65044 6.87697C9.59556 6.93524 9.52861 6.98082 9.45429 7.01053L9.08304 6.082ZM8.92255 6.19128L8.19466 5.50559C8.04996 5.65919 7.94053 5.84253 7.87401 6.0428L8.82304 6.358L9.77206 6.6732C9.74683 6.74917 9.70532 6.81871 9.65044 6.87697L8.92255 6.19128ZM8.82304 6.358L7.87436 6.04177L7.37436 7.54177L8.32304 7.858L9.27172 8.17423L9.77172 6.67423L8.82304 6.358ZM8.32304 7.858L7.37601 7.53687C7.31462 7.71788 7.28964 7.90924 7.30248 8.09994L8.30022 8.03275L9.29796 7.96556C9.30283 8.03789 9.29336 8.11047 9.27007 8.17914L8.32304 7.858ZM8.30022 8.03275L7.30248 8.09994C7.31532 8.29064 7.36574 8.47692 7.45084 8.64807L8.34626 8.20286L9.24169 7.75765C9.27397 7.82257 9.29309 7.89322 9.29796 7.96556L8.30022 8.03275ZM8.34626 8.20286L7.45084 8.64807C7.53593 8.81921 7.65402 8.97185 7.79832 9.09719L8.4541 8.34224L9.10988 7.58729C9.16462 7.63483 9.20941 7.69273 9.24169 7.75765L8.34626 8.20286ZM8.4541 8.34224L7.79832 9.09719C7.94262 9.22253 8.11027 9.31811 8.29164 9.37842L8.6072 8.42952L8.92276 7.48061C8.99156 7.50349 9.05515 7.53974 9.10988 7.58729L8.4541 8.34224ZM8.6072 8.42952L8.29164 9.37842C8.47301 9.43874 8.66451 9.4626 8.85514 9.44864L8.78208 8.45131L8.70902 7.45398C8.78133 7.44868 8.85397 7.45774 8.92276 7.48061L8.6072 8.42952ZM8.78208 8.45131L8.85514 9.44864C9.04576 9.43467 9.23174 9.38316 9.40238 9.29706L8.95191 8.40427L8.50145 7.51148C8.56617 7.47882 8.63672 7.45928 8.70902 7.45398L8.78208 8.45131ZM8.95191 8.40427L9.40238 9.29706C9.57303 9.21096 9.72497 9.09197 9.84945 8.94694L9.09066 8.29561L8.33187 7.64428C8.37909 7.58927 8.43672 7.54414 8.50145 7.51148L8.95191 8.40427ZM9.09066 8.29561L9.84945 8.94694C9.97394 8.80191 10.0685 8.6337 10.1278 8.45198L9.17704 8.142L8.22629 7.83202C8.24877 7.76309 8.28465 7.69929 8.33187 7.64428L9.09066 8.29561ZM9.17704 8.142L10.1259 8.45757L10.5589 7.15557L9.61004 6.84L8.66114 6.52443L8.22814 7.82643L9.17704 8.142ZM9.61004 6.84L9.98112 7.7686L12.0531 6.9406L11.682 6.012L11.311 5.0834L9.23896 5.9114L9.61004 6.84ZM7.96104 1.766L7.18008 1.14142L5.81408 2.84942L6.59504 3.474L7.376 4.09858L8.742 2.39058L7.96104 1.766ZM6.59504 3.474L6.91127 2.52532L4.66127 1.77532L4.34504 2.724L4.02881 3.67268L6.27881 4.42268L6.59504 3.474ZM4.34504 2.724L5.27348 3.09549L5.95048 1.40349L5.02204 1.032L4.0936 0.660516L3.4166 2.35252L4.34504 2.724ZM5.02204 1.032L4.77974 2.0022L7.71874 2.7362L7.96104 1.766L8.20334 0.7958L5.26434 0.0618002L5.02204 1.032ZM10.461 11.789L10.7773 12.7377L12.6823 12.1027L12.366 11.154L12.0498 10.2053L10.1448 10.8403L10.461 11.789ZM12.366 11.154L13.3422 11.371L14.0012 8.40704L13.025 8.19L12.0489 7.97297L11.3899 10.937L12.366 11.154ZM13.025 8.19L12.3849 7.42175L10.4959 8.99575L11.136 9.764L11.7762 10.5323L13.6652 8.95825L13.025 8.19ZM11.136 9.764L10.1874 9.44777L9.51236 11.4728L10.461 11.789L11.4097 12.1052L12.0847 10.0802L11.136 9.764Z" fill="#FF0000" mask="url(#path-1-inside-1_513_1185)"/>
</svg>
