<svg width="25" height="25" viewBox="0 0 25 25" fill="none" xmlns="http://www.w3.org/2000/svg">
<path d="M24.1455 12.5C24.1455 19.2013 19.2013 24.5849 12.5 24.5849C12.088 24.5849 11.6808 24.6132 11.2792 24.5731C5.15117 23.9609 0.366211 18.7892 0.366211 12.5C0.366211 6.2175 5.14087 1.05021 11.2594 0.428828C11.6673 0.387422 12.0812 0.41501 12.5 0.41501C19.2013 0.41501 24.1455 5.79865 24.1455 12.5Z" fill="#FFF0AF"/>
<path d="M12.5 0.366211C12.0879 0.366211 11.6808 0.386963 11.2793 0.4271C17.4074 1.03931 22.1924 6.21074 22.1924 12.5C22.1924 18.7893 17.4074 23.9607 11.2793 24.5729C11.6808 24.613 12.0879 24.6338 12.5 24.6338C19.2013 24.6338 24.6338 19.2013 24.6338 12.5C24.6338 5.79868 19.2013 0.366211 12.5 0.366211Z" fill="#FFE07D"/>
<path d="M5.57284 16.0759L7.18593 13.282L7.46278 12.9001C7.55673 12.7374 7.79169 12.7374 7.88563 12.9001L9.28724 16.0759C10.2212 17.6935 9.54203 19.6667 7.67421 19.6667C7.50536 19.6667 7.34223 19.6991 7.18588 19.6678C5.61244 19.3533 4.72333 17.5473 5.57284 16.0759Z" fill="#8AC9FE"/>
<path d="M9.77515 16.0759L7.88525 12.8025C7.79131 12.6397 7.55635 12.6397 7.4624 12.8025L7.18555 13.282L8.79858 16.0759C9.6481 17.5473 8.75889 19.353 7.18555 19.6675C7.34194 19.6988 7.50498 19.7155 7.67383 19.7155C9.5417 19.7156 10.7091 17.6935 9.77515 16.0759Z" fill="#60B7FF"/>
<path d="M7.67383 11.3244C7.2019 11.3244 6.81934 10.9419 6.81934 10.4699V8.91589C6.81934 8.44397 7.2019 8.0614 7.67383 8.0614C8.14575 8.0614 8.52832 8.44397 8.52832 8.91589V10.4699C8.52832 10.9419 8.14575 11.3244 7.67383 11.3244Z" fill="#685E68"/>
<path d="M17.3262 11.3244C16.8542 11.3244 16.4717 10.9419 16.4717 10.4699V8.91589C16.4717 8.44397 16.8542 8.0614 17.3262 8.0614C17.7981 8.0614 18.1807 8.44397 18.1807 8.91589V10.4699C18.1807 10.9419 17.7981 11.3244 17.3262 11.3244Z" fill="#685E68"/>
<path d="M0.732422 12.5C0.732422 9.35674 1.95645 6.40166 4.17905 4.17905C6.40166 1.95645 9.35674 0.732422 12.5 0.732422C15.2811 0.732422 17.9799 1.72051 20.0992 3.51475C20.2535 3.64541 20.4846 3.62622 20.6152 3.47187C20.7459 3.31748 20.7268 3.08643 20.5724 2.95576C18.321 1.04971 15.4542 0 12.5 0C9.16113 0 6.02207 1.3002 3.66113 3.66113C1.3002 6.02207 0 9.16113 0 12.5C0 15.444 1.04326 18.3032 2.93755 20.5509C3.00996 20.6369 3.11353 20.6811 3.21777 20.6811C3.30112 20.6811 3.38486 20.6528 3.45356 20.5949C3.6082 20.4646 3.62793 20.2335 3.49761 20.0789C1.71445 17.963 0.732422 15.2715 0.732422 12.5Z" fill="black"/>
<path d="M21.7566 4.0999C21.6206 3.95014 21.3891 3.93901 21.2393 4.07494C21.0896 4.21093 21.0784 4.44252 21.2144 4.59223C23.1831 6.76049 24.2673 9.56889 24.2673 12.5C24.2673 15.6433 23.0433 18.5984 20.8207 20.821C18.5981 23.0436 15.643 24.2676 12.4998 24.2676C9.56592 24.2676 6.75567 23.1817 4.58667 21.2099C4.43706 21.0738 4.20537 21.0848 4.06939 21.2345C3.9333 21.3841 3.94434 21.6157 4.094 21.7518C6.39815 23.8465 9.38335 25 12.4998 25C15.8386 25 18.9777 23.6998 21.3386 21.3389C23.6995 18.978 24.9998 15.8389 24.9998 12.5C24.9998 9.38642 23.848 6.40322 21.7566 4.0999Z" fill="black"/>
<path d="M7.20023 6.11251C6.70765 6.09278 6.14515 6.34947 5.69671 6.79786C5.24828 7.2463 4.99203 7.80836 5.01127 8.30143C5.01893 8.49864 5.18124 8.65333 5.37694 8.65333C5.38177 8.65333 5.38661 8.65323 5.39149 8.65304C5.59359 8.64518 5.75101 8.47496 5.74315 8.27281C5.73192 7.98453 5.91258 7.61778 6.21463 7.31573C6.51669 7.01368 6.88285 6.83287 7.17171 6.8443C7.37328 6.85245 7.54403 6.69479 7.55194 6.49264C7.55975 6.29064 7.40233 6.12042 7.20023 6.11251Z" fill="black"/>
<path d="M19.2573 8.27296C19.2494 8.47506 19.4068 8.64527 19.6089 8.65318C19.6138 8.65338 19.6186 8.65348 19.6234 8.65348C19.8191 8.65348 19.9814 8.49879 19.9891 8.30157C20.0084 7.80856 19.7522 7.24649 19.3037 6.79806C18.8553 6.34962 18.2941 6.09269 17.8001 6.11266C17.598 6.12057 17.4406 6.29078 17.4485 6.49288C17.4564 6.69498 17.6259 6.8525 17.8288 6.84454C18.115 6.83356 18.4837 7.01388 18.7858 7.31598C19.0879 7.61798 19.2685 7.98468 19.2573 8.27296Z" fill="black"/>
<path d="M16.9059 18.3479C16.9774 18.4194 17.0712 18.4552 17.1649 18.4552C17.2586 18.4552 17.3523 18.4194 17.4239 18.3479C17.5669 18.2049 17.5669 17.973 17.4239 17.83C15.5297 15.9359 12.7438 15.3042 10.2327 16.1695C10.1913 16.0758 10.1448 15.9834 10.0925 15.8929L8.20261 12.6195C8.09226 12.4283 7.89465 12.3143 7.674 12.3143C7.45339 12.3143 7.25579 12.4284 7.14548 12.6195L5.25554 15.8929C4.75076 16.7673 4.75076 17.8113 5.25554 18.6856C5.76033 19.5599 6.66448 20.0819 7.67405 20.0819C8.68362 20.0819 9.58777 19.5599 10.0926 18.6856C10.4182 18.1216 10.5334 17.487 10.4389 16.8729C12.6943 16.0822 15.2029 16.6448 16.9059 18.3479ZM9.45828 18.3193C9.08586 18.9643 8.41887 19.3494 7.67405 19.3494C6.92922 19.3494 6.26223 18.9643 5.88987 18.3193C5.51746 17.6743 5.51746 16.9041 5.88987 16.2591L7.67405 13.1688L9.45828 16.2591C9.83069 16.9041 9.83069 17.6743 9.45828 18.3193Z" fill="black"/>
<path d="M6.45312 8.91589V10.4699C6.45312 11.143 7.00073 11.6906 7.67383 11.6906C8.34692 11.6906 8.89453 11.143 8.89453 10.4699V8.91589C8.89453 8.2428 8.34692 7.69519 7.67383 7.69519C7.00073 7.69519 6.45312 8.2428 6.45312 8.91589ZM7.18555 8.91589C7.18555 8.64666 7.40459 8.42761 7.67383 8.42761C7.94307 8.42761 8.16211 8.64666 8.16211 8.91589V10.4699C8.16211 10.7392 7.94307 10.9582 7.67383 10.9582C7.40459 10.9582 7.18555 10.7392 7.18555 10.4699V8.91589Z" fill="black"/>
<path d="M18.5469 10.4699V8.91589C18.5469 8.2428 17.9993 7.69519 17.3262 7.69519C16.6531 7.69519 16.1055 8.2428 16.1055 8.91589V10.4699C16.1055 11.143 16.6531 11.6906 17.3262 11.6906C17.9993 11.6906 18.5469 11.143 18.5469 10.4699ZM17.8145 10.4699C17.8145 10.7392 17.5954 10.9582 17.3262 10.9582C17.0569 10.9582 16.8379 10.7392 16.8379 10.4699V8.91589C16.8379 8.64666 17.0569 8.42761 17.3262 8.42761C17.5954 8.42761 17.8145 8.64666 17.8145 8.91589V10.4699Z" fill="black"/>
</svg>
