<svg width="25" height="25" viewBox="0 0 25 25" fill="none" xmlns="http://www.w3.org/2000/svg">
<path d="M24.1455 12.5C24.1455 19.2013 19.2013 24.5849 12.5 24.5849C12.088 24.5849 11.6808 24.6132 11.2792 24.5731C5.83433 24.0292 1.44971 19.8856 0.539795 14.5569C0.425684 13.8883 0.366211 13.2011 0.366211 12.5C0.366211 6.2175 5.14087 2.51506 11.2594 1.89367C11.6673 1.85227 12.0812 1.87985 12.5 1.87985C19.2013 1.87985 24.1455 5.79865 24.1455 12.5Z" fill="#FFF0AF"/>
<path d="M12.5 0.854492C12.0879 0.854492 11.6808 0.875244 11.2793 0.915381C16.8231 1.46924 21.2677 5.26606 22.0649 10.7346C22.1489 11.3109 22.1924 11.9004 22.1924 12.5C22.1924 18.7893 17.4073 23.9607 11.2793 24.5729C11.6808 24.6131 12.0879 24.6338 12.5 24.6338C18.5002 24.6338 23.4832 20.2786 24.4602 14.5569C24.5743 13.8884 24.5361 13.2012 24.5361 12.5C24.5361 5.79868 19.2013 0.854492 12.5 0.854492Z" fill="#FFE07D"/>
<path d="M22.0651 10.7343C19.8445 8.72635 16.3857 7.43549 12.5 7.43549C6.49985 7.43549 1.51768 10.5134 0.540625 14.5568C0.426465 13.8882 0.366211 13.2012 0.366211 12.5C0.366211 6.21073 5.15122 1.03905 11.2793 0.426892C11.6808 0.386804 12.088 0.415075 12.5 0.415075C19.2013 0.415075 24.4385 5.79872 24.4385 12.5L22.0651 10.7343Z" fill="#8AC9FE"/>
<path d="M12.5 0.366211C12.0879 0.366211 11.6808 0.386963 11.2793 0.4271C16.823 0.980957 21.2674 5.26616 22.0646 10.7346C23.2729 11.8272 24.115 13.1319 24.4594 14.5568C24.5735 13.8882 24.6338 13.2012 24.6338 12.5C24.6338 5.79868 19.2013 0.366211 12.5 0.366211Z" fill="#60B7FF"/>
<path d="M15.3377 17.1644C15.3377 19.0947 14.0996 20.601 12.5 20.601C12.3 20.601 12.1048 20.6351 11.9163 20.5885C10.5965 20.2626 9.60376 18.8534 9.60376 17.1644C9.60376 15.4761 10.5956 14.0675 11.9145 13.7407C12.1036 13.6939 12.2994 13.7278 12.5 13.7278C14.0996 13.7278 15.3377 15.2341 15.3377 17.1644Z" fill="#FD8087"/>
<path d="M12.5 13.6692C12.2994 13.6692 12.1036 13.6938 11.9146 13.7407C13.2334 14.0674 14.2253 15.476 14.2253 17.1643C14.2253 18.8525 13.2334 20.2612 11.9146 20.5879C12.1037 20.6348 12.2995 20.6594 12.5 20.6594C14.0996 20.6594 15.3962 19.0946 15.3962 17.1643C15.3962 15.234 14.0996 13.6692 12.5 13.6692Z" fill="#EE6161"/>
<path d="M17.666 24.1063V21.4739C17.666 19.0382 18.5117 16.6779 20.0585 14.7964L20.6733 14.0487C20.758 13.9457 20.8547 13.859 20.9596 13.7888C21.4666 13.4499 22.0675 13.6918 22.5246 14.1458V14.0482C22.8603 14.3817 22.9917 14.7718 22.8689 15.2288L21.621 18.4194C21.56 18.6467 21.5291 18.8809 21.5291 19.1162V24.1063C21.5291 24.376 21.3104 24.5946 21.0408 24.5946H18.1543C17.8847 24.5946 17.666 24.376 17.666 24.1063Z" fill="#FFE07D"/>
<path d="M22.622 13.9506C22.1649 13.4966 21.4666 13.4504 20.9596 13.7893C21.0291 13.8358 21.0954 13.8893 21.1571 13.9506C21.4928 14.2841 21.6242 14.7719 21.5015 15.2289L20.6442 18.4195C20.5832 18.6467 20.5522 18.881 20.5522 19.1163V24.1064C20.5522 24.376 20.3336 24.5946 20.064 24.5946H21.5288C21.7985 24.5946 22.0171 24.376 22.0171 24.1064V19.1163C22.0171 18.881 22.048 18.6467 22.1091 18.4195L22.9663 15.2288C23.0891 14.7718 22.9577 14.2841 22.622 13.9506Z" fill="#FFC250"/>
<path d="M6.84573 24.1064V21.474C6.84573 19.0382 6.48836 16.7757 4.94148 14.8941L4.32674 14.1464C3.88816 13.6129 3.12645 13.4197 2.57508 13.7889C2.50564 13.8354 2.43953 13.8893 2.37781 13.9506C2.04212 14.2841 1.91072 14.7718 2.03348 15.2288L2.8907 18.4195C2.95174 18.6467 2.9827 18.881 2.9827 19.1163V24.1064C2.9827 24.3761 3.2013 24.5947 3.47098 24.5947H6.3574C6.62713 24.5947 6.84573 24.3761 6.84573 24.1064Z" fill="#FFE07D"/>
<path d="M4.9416 14.7965L4.32686 14.0487C3.88833 13.5153 3.12681 13.4201 2.57544 13.7893C2.68037 13.8594 2.77729 13.9457 2.86201 14.0487L3.47676 14.7965C5.02363 16.678 5.86929 19.0382 5.86929 21.474V24.1064C5.86929 24.376 5.65068 24.5947 5.38101 24.5947H6.84585C7.11553 24.5947 7.33413 24.376 7.33413 24.1064V21.474C7.33408 19.0382 6.48848 16.678 4.9416 14.7965Z" fill="#FFC250"/>
<path d="M20.0249 10.1324C20.0249 11.6769 18.8705 12.8802 17.3259 12.8802C17.1593 12.8802 16.9961 12.9145 16.8375 12.8865C15.5258 12.6555 14.5293 11.5103 14.5293 10.1324C14.5293 8.75445 15.5258 7.60928 16.8375 7.37828C16.9961 7.35035 17.1593 7.38458 17.3259 7.38458C18.8705 7.38458 20.0249 8.58785 20.0249 10.1324Z" fill="#F3F0F3"/>
<path d="M17.3262 7.33582C17.1595 7.33582 16.9965 7.35125 16.8379 7.37917C18.1495 7.61028 19.1462 8.75457 19.1462 10.1324C19.1462 11.5103 18.1495 12.6546 16.8379 12.8857C16.9965 12.9136 17.1595 12.929 17.3262 12.929C18.8707 12.929 20.1228 11.6769 20.1228 10.1324C20.1228 8.58787 18.8707 7.33582 17.3262 7.33582Z" fill="#E2DEE2"/>
<path d="M10.373 10.1324C10.373 11.6769 9.2186 12.8802 7.67407 12.8802C7.50747 12.8802 7.34424 12.9145 7.18564 12.8865C5.87397 12.6555 4.87744 11.5103 4.87744 10.1324C4.87744 8.75445 5.87397 7.60928 7.18564 7.37828C7.34424 7.35035 7.50747 7.38458 7.67407 7.38458C9.2186 7.38458 10.373 8.58785 10.373 10.1324Z" fill="#F3F0F3"/>
<path d="M7.67407 7.33582C7.50742 7.33582 7.34443 7.35125 7.18579 7.37917C8.49736 7.61028 9.49414 8.75457 9.49414 10.1324C9.49414 11.5103 8.49741 12.6546 7.18579 12.8857C7.34443 12.9136 7.50742 12.929 7.67407 12.929C9.2186 12.929 10.4707 11.6769 10.4707 10.1324C10.4707 8.58787 9.2186 7.33582 7.67407 7.33582Z" fill="#E2DEE2"/>
<path d="M12.5 21.0257C14.2989 21.0257 15.7624 19.2935 15.7624 17.1643C15.7624 15.0351 14.2989 13.303 12.5 13.303C10.7011 13.303 9.23755 15.0352 9.23755 17.1644C9.23755 19.2935 10.7011 21.0257 12.5 21.0257ZM12.5 14.0354C13.8951 14.0354 15.03 15.4391 15.03 17.1644C15.03 18.8896 13.8951 20.2933 12.5 20.2933C11.1049 20.2933 9.96997 18.8896 9.96997 17.1643C9.96997 15.439 11.1049 14.0354 12.5 14.0354Z" fill="black"/>
<path d="M20.489 10.1324C20.489 8.38845 19.0701 6.9696 17.3261 6.9696C15.5821 6.9696 14.1633 8.38845 14.1633 10.1324C14.1633 11.8764 15.5822 13.2952 17.3261 13.2952C19.0701 13.2952 20.489 11.8764 20.489 10.1324ZM14.8957 10.1324C14.8957 8.79231 15.986 7.70203 17.3261 7.70203C18.6662 7.70203 19.7565 8.79231 19.7565 10.1324C19.7565 11.4726 18.6662 12.5628 17.3261 12.5628C15.9859 12.5628 14.8957 11.4726 14.8957 10.1324Z" fill="black"/>
<path d="M7.67407 6.9696C5.93008 6.9696 4.51123 8.38845 4.51123 10.1324C4.51123 11.8764 5.93008 13.2952 7.67407 13.2952C9.41807 13.2952 10.8369 11.8764 10.8369 10.1324C10.8369 8.3885 9.41807 6.9696 7.67407 6.9696ZM7.67407 12.5628C6.33394 12.5628 5.24365 11.4725 5.24365 10.1324C5.24365 8.79236 6.33394 7.70203 7.67407 7.70203C9.01421 7.70203 10.1044 8.79231 10.1044 10.1324C10.1044 11.4726 9.01421 12.5628 7.67407 12.5628Z" fill="black"/>
<path d="M25 12.5C25 9.38638 23.8482 6.40317 21.7569 4.09985C21.6209 3.9501 21.3893 3.93892 21.2396 4.0749C21.0898 4.21089 21.0787 4.44248 21.2146 4.59219C23.1833 6.76045 24.2676 9.56885 24.2676 12.5C24.2676 14.7932 23.6241 16.9731 22.3979 18.8681C22.4108 18.7489 22.4317 18.6305 22.4629 18.5145L23.3201 15.3239C23.4766 14.7416 23.3081 14.1158 22.8802 13.6908C22.5443 13.3571 22.0805 13.1796 21.6076 13.2032C21.1347 13.2271 20.691 13.4504 20.3903 13.8162L19.7756 14.564C18.179 16.506 17.2998 18.9601 17.2998 21.4741V23.2465C15.7873 23.9234 14.1736 24.2676 12.5 24.2676C10.8267 24.2676 9.21289 23.9234 7.70029 23.2464V21.474C7.70029 18.96 6.82104 16.5059 5.22446 14.5639L4.60972 13.8161C4.30903 13.4504 3.86538 13.227 3.39248 13.2031C2.91943 13.1792 2.45571 13.357 2.11978 13.6908C1.69199 14.1158 1.52349 14.7416 1.67993 15.3238L2.53716 18.5144C2.56831 18.6304 2.58926 18.7488 2.6021 18.868C1.37593 16.9731 0.732422 14.7932 0.732422 12.5C0.732422 9.35679 1.95645 6.40166 4.17905 4.17905C6.40166 1.95645 9.35674 0.732422 12.5 0.732422C15.2811 0.732422 17.9798 1.72056 20.0991 3.51475C20.2535 3.64546 20.4846 3.62617 20.6152 3.47187C20.7459 3.31748 20.7267 3.08643 20.5724 2.95576C18.321 1.04971 15.4542 0 12.5 0C9.16113 0 6.02207 1.30024 3.66113 3.66118C1.3002 6.02212 0 9.16113 0 12.5C0 15.3027 0.904736 17.9463 2.61655 20.1528V21.0294C2.61655 21.2316 2.78052 21.3956 2.98276 21.3956C3.18501 21.3956 3.34897 21.2316 3.34897 21.0294V19.1163C3.34897 18.8491 3.31382 18.5827 3.24448 18.3245L2.38726 15.1339C2.29878 14.8046 2.39409 14.4508 2.63599 14.2104C2.82876 14.019 3.08408 13.9208 3.35566 13.9347C3.627 13.9484 3.87144 14.0715 4.04395 14.2813L4.65869 15.0291C6.1478 16.8404 6.96787 19.1292 6.96787 21.4741V24.1064C6.96787 24.1737 6.91309 24.2285 6.8458 24.2285H3.47104C3.40376 24.2285 3.34897 24.1737 3.34897 24.1064V22.6949C3.34897 22.4927 3.18501 22.3287 2.98276 22.3287C2.78052 22.3287 2.61655 22.4927 2.61655 22.6949V24.1064C2.61655 24.5776 2.9999 24.9609 3.47104 24.9609H6.8458C7.31694 24.9609 7.70029 24.5776 7.70029 24.1064V24.0442C9.22051 24.678 10.8326 25 12.5 25C14.1677 25 15.7796 24.6779 17.2997 24.0441V24.1063C17.2997 24.5775 17.6831 24.9608 18.1542 24.9608H21.529C22.0001 24.9608 22.3834 24.5775 22.3834 24.1063V20.1528C24.0953 17.9463 25 15.3027 25 12.5ZM21.651 24.1063C21.651 24.1737 21.5962 24.2284 21.529 24.2284H18.1542C18.0869 24.2284 18.0321 24.1737 18.0321 24.1063V21.474C18.0321 19.1292 18.8522 16.8403 20.3413 15.0291L20.9561 14.2813C21.1286 14.0715 21.373 13.9484 21.6443 13.9347C21.661 13.9338 21.6777 13.9334 21.6942 13.9334C21.9469 13.9334 22.1832 14.0308 22.364 14.2104C22.6059 14.4507 22.7012 14.8046 22.6127 15.1339L21.7555 18.3245C21.6861 18.5827 21.651 18.8491 21.651 19.1163V24.1063H21.651Z" fill="black"/>
</svg>
