<svg width="25" height="25" viewBox="0 0 25 25" fill="none" xmlns="http://www.w3.org/2000/svg">
<path d="M24.1455 12.5C24.1455 19.2013 19.2013 24.5849 12.5 24.5849C12.088 24.5849 11.6808 24.6132 11.2792 24.5731C5.15122 23.9609 0.366211 18.7892 0.366211 12.5C0.366211 6.2175 5.14087 1.05021 11.2594 0.428828C11.6673 0.387422 12.0812 0.41501 12.5 0.41501C19.2013 0.41501 24.1455 5.79865 24.1455 12.5Z" fill="#FFF0AF"/>
<path d="M12.5 0.366211C12.0879 0.366211 11.6808 0.386963 11.2793 0.4271C17.4074 1.03931 22.1924 6.21074 22.1924 12.5C22.1924 18.7893 17.4074 23.9607 11.2793 24.5729C11.6808 24.613 12.0879 24.6338 12.5 24.6338C19.2013 24.6338 24.6338 19.2013 24.6338 12.5C24.6338 5.79868 19.2013 0.366211 12.5 0.366211Z" fill="#FFE07D"/>
<path d="M10.4908 18.1056C10.9415 18.1056 11.3068 18.4709 11.3068 18.9216C11.3068 19.3723 10.9415 19.7376 10.4908 19.7376H7.95913C8.41968 19.7376 8.79111 20.1192 8.77461 20.5834C8.75889 21.0256 8.38203 21.3696 7.93955 21.3696H7.17417C7.62485 21.3696 7.99019 21.735 7.99019 22.1857C7.99019 22.6363 7.62485 23.0017 7.17417 23.0017H6.36187C6.82241 23.0017 7.19385 23.3832 7.17734 23.8475C7.16162 24.2897 6.78477 24.6338 6.34229 24.6338H1.34741C0.805518 24.6338 0.366211 24.1945 0.366211 23.6526V18.6584C0.366211 18.3153 0.545508 17.997 0.839063 17.8192L1.18926 17.607C1.48281 17.4293 1.66211 17.111 1.66211 16.7678V14.3133C1.66211 13.8708 2.0062 13.4939 2.44839 13.4782C2.91265 13.4617 3.29419 13.8331 3.29419 14.2937V17.5168C3.29419 17.842 3.55776 18.1055 3.88291 18.1055H10.4908V18.1056Z" fill="#FFE07D"/>
<path d="M8.44741 19.7377H7.47085C7.9314 19.7377 8.30283 20.1192 8.28633 20.5834C8.27061 21.0256 7.89375 21.3697 7.45127 21.3697H6.68589C7.13657 21.3697 7.5019 21.735 7.5019 22.1857C7.5019 22.6364 7.13657 23.0017 6.68589 23.0017H5.87358C6.33413 23.0017 6.70557 23.3833 6.68906 23.8475C6.67334 24.2897 6.29648 24.6338 5.854 24.6338H6.83057C7.27305 24.6338 7.6499 24.2897 7.66562 23.8475C7.68213 23.3832 7.31069 23.0017 6.85015 23.0017H7.66245C8.11313 23.0017 8.47847 22.6364 8.47847 22.1857C8.47847 21.735 8.11313 21.3697 7.66245 21.3697H8.42783C8.87031 21.3697 9.24717 21.0256 9.26289 20.5834C9.27939 20.1192 8.90796 19.7377 8.44741 19.7377Z" fill="#FFC250"/>
<path d="M10.979 18.1056H10.0024C10.4531 18.1056 10.8185 18.4709 10.8185 18.9216C10.8185 19.3723 10.4531 19.7376 10.0024 19.7376H10.979C11.4297 19.7376 11.795 19.3723 11.795 18.9216C11.7951 18.4709 11.4297 18.1056 10.979 18.1056Z" fill="#FFC250"/>
<path d="M6.20923 10.7873C5.7373 10.7873 5.35474 10.4048 5.35474 9.93284V8.37878C5.35474 7.90686 5.7373 7.52429 6.20923 7.52429C6.68115 7.52429 7.06372 7.90686 7.06372 8.37878V9.93284C7.06372 10.4048 6.68115 10.7873 6.20923 10.7873Z" fill="#685E68"/>
<path d="M15.8611 10.7873C15.3892 10.7873 15.0066 10.4048 15.0066 9.93284V8.37878C15.0066 7.90686 15.3892 7.52429 15.8611 7.52429C16.333 7.52429 16.7156 7.90686 16.7156 8.37878V9.93284C16.7156 10.4048 16.333 10.7873 15.8611 10.7873Z" fill="#685E68"/>
<path d="M17.4222 5.15836C17.3418 4.97276 17.1262 4.88756 16.9406 4.96783L14.617 5.97408C14.4314 6.05445 14.3461 6.27008 14.4265 6.45567C14.4864 6.59386 14.6211 6.67642 14.7627 6.67642C14.8113 6.67642 14.8607 6.66671 14.9081 6.6462L17.2317 5.63995C17.4173 5.55953 17.5026 5.3439 17.4222 5.15836Z" fill="black"/>
<path d="M5.68096 6.17112C6.06846 5.99133 6.4749 5.94792 6.7418 6.05749C6.92881 6.1344 7.14282 6.04509 7.21973 5.85803C7.29663 5.67097 7.20732 5.45696 7.02026 5.3801C6.56387 5.19245 5.94795 5.23982 5.3727 5.50671C4.79746 5.77361 4.36357 6.2133 4.21211 6.68288C4.15005 6.87536 4.25571 7.08176 4.44819 7.14382C4.48555 7.15588 4.52344 7.16159 4.56069 7.16159C4.71533 7.16159 4.85913 7.06286 4.90913 6.90774C4.9977 6.63313 5.29346 6.35085 5.68096 6.17112Z" fill="black"/>
<path d="M13.0649 14.8399C11.663 14.3958 10.1719 14.5244 8.86653 15.2019C8.68704 15.2951 8.61702 15.5162 8.71018 15.6957C8.8034 15.8752 9.02449 15.9451 9.20393 15.852C10.3356 15.2647 11.6282 15.1531 12.8438 15.5381C14.0594 15.923 15.0523 16.7582 15.6396 17.8899C15.7048 18.0154 15.8325 18.0875 15.9649 18.0875C16.0218 18.0875 16.0794 18.0742 16.1333 18.0462C16.3128 17.953 16.3828 17.732 16.2897 17.5525C15.6122 16.2472 14.467 15.2838 13.0649 14.8399Z" fill="black"/>
<path d="M6.82134 21.0035C6.61909 21.0035 6.45513 21.1674 6.45513 21.3697C6.45513 21.572 6.61909 21.7359 6.82134 21.7359H7.6625C7.91055 21.7359 8.1123 21.9377 8.1123 22.1857C8.1123 22.4337 7.9105 22.6355 7.6625 22.6355H6.8502C6.64795 22.6355 6.48398 22.7994 6.48398 23.0017C6.48398 23.204 6.64795 23.3679 6.8502 23.3679C6.97334 23.3679 7.08833 23.4167 7.17393 23.5054C7.25942 23.594 7.30415 23.7109 7.29976 23.8345C7.29126 24.0733 7.08081 24.2675 6.83066 24.2675H1.34741C1.0083 24.2676 0.732422 23.9917 0.732422 23.6526V18.6584C0.732422 18.4446 0.845996 18.2431 1.02876 18.1324L1.379 17.9203C1.77949 17.6776 2.02827 17.236 2.02827 16.7678V14.3132C2.02827 14.0631 2.22256 13.8526 2.46133 13.8441C2.58506 13.8395 2.70176 13.8844 2.79038 13.9699C2.87905 14.0555 2.92788 14.1705 2.92788 14.2937V17.5168C2.92788 18.0434 3.35625 18.4718 3.88281 18.4718H4.89873C5.10098 18.4718 5.26494 18.3079 5.26494 18.1056C5.26494 17.9033 5.10098 17.7394 4.89873 17.7394H3.88286C3.76016 17.7394 3.66035 17.6396 3.66035 17.5168V14.2937C3.66035 13.9699 3.53203 13.6678 3.29902 13.4429C3.06611 13.2182 2.76006 13.1001 2.43535 13.1122C1.79639 13.135 1.2959 13.6625 1.2959 14.3133V16.1085C0.921875 14.9486 0.732422 13.7395 0.732422 12.5C0.732422 9.35674 1.95645 6.40166 4.17905 4.17905C6.40166 1.95645 9.35674 0.732422 12.5 0.732422C15.2811 0.732422 17.9799 1.72051 20.0991 3.5147C20.2535 3.64546 20.4846 3.62622 20.6152 3.47183C20.7459 3.31748 20.7267 3.08638 20.5724 2.95576C18.321 1.04971 15.4542 0 12.5 0C9.16113 0 6.02207 1.30024 3.66113 3.66113C1.3002 6.02207 0 9.16113 0 12.5C0 14.1707 0.324414 15.7897 0.962695 17.3161L0.649365 17.506C0.248828 17.7485 0 18.1901 0 18.6584V23.6526C0 24.3956 0.604443 25 1.34741 25H6.83062C7.37622 25 7.83511 24.648 7.98257 24.1577C9.42095 24.7163 10.938 25 12.5 25C15.8389 25 18.9779 23.6998 21.3389 21.3389C23.6998 18.9779 25 15.8389 25 12.5C25 9.38643 23.8482 6.40322 21.7569 4.09985C21.6208 3.95015 21.3893 3.93901 21.2396 4.0749C21.0898 4.21084 21.0787 4.44243 21.2146 4.59224C23.1833 6.7605 24.2676 9.5689 24.2676 12.5C24.2676 15.6433 23.0436 18.5984 20.8209 20.8209C18.5983 23.0436 15.6433 24.2676 12.5 24.2676C10.916 24.2676 9.38145 23.958 7.93599 23.3489C7.93433 23.345 7.93286 23.341 7.93115 23.3372C8.454 23.2152 8.84473 22.7452 8.84473 22.1857C8.84473 22.0114 8.80679 21.8457 8.73872 21.6965C9.23926 21.5667 9.60996 21.1298 9.62891 20.5964C9.63501 20.4246 9.60483 20.2575 9.5416 20.1039H10.9791C11.631 20.1039 12.1613 19.5735 12.1613 18.9216C12.1613 18.2698 11.631 17.7394 10.9791 17.7394H6.49478C6.29253 17.7394 6.12856 17.9033 6.12856 18.1056C6.12856 18.3079 6.29253 18.4718 6.49478 18.4718H10.9791C11.2271 18.4718 11.4289 18.6736 11.4289 18.9216C11.4289 19.1696 11.2271 19.3714 10.9791 19.3714H6.85015C6.6479 19.3714 6.48394 19.5354 6.48394 19.7376C6.48394 19.9399 6.6479 20.1039 6.85015 20.1039H8.44741C8.57061 20.1039 8.6856 20.1527 8.77114 20.2414C8.85664 20.3299 8.90132 20.4468 8.89692 20.5704C8.88843 20.8092 8.67803 21.0035 8.42783 21.0035H6.82134Z" fill="black"/>
<path d="M6.20923 11.1535C6.88232 11.1535 7.42993 10.6059 7.42993 9.93284V8.37878C7.42993 7.70569 6.88232 7.15808 6.20923 7.15808C5.53613 7.15808 4.98853 7.70569 4.98853 8.37878V9.93284C4.98853 10.6059 5.53613 11.1535 6.20923 11.1535ZM5.72095 8.37878C5.72095 8.10955 5.93999 7.8905 6.20923 7.8905C6.47847 7.8905 6.69751 8.10955 6.69751 8.37878V9.93284C6.69751 10.2021 6.47847 10.4211 6.20923 10.4211C5.93999 10.4211 5.72095 10.2021 5.72095 9.93284V8.37878Z" fill="black"/>
<path d="M17.0818 9.93284V8.37878C17.0818 7.70569 16.5342 7.15808 15.8611 7.15808C15.188 7.15808 14.6404 7.70569 14.6404 8.37878V9.93284C14.6404 10.6059 15.188 11.1535 15.8611 11.1535C16.5342 11.1535 17.0818 10.6059 17.0818 9.93284ZM16.3494 9.93284C16.3494 10.2021 16.1303 10.4211 15.8611 10.4211C15.5918 10.4211 15.3728 10.2021 15.3728 9.93284V8.37878C15.3728 8.10955 15.5918 7.8905 15.8611 7.8905C16.1303 7.8905 16.3494 8.10955 16.3494 8.37878V9.93284Z" fill="black"/>
</svg>
