<svg width="16" height="16" viewBox="0 0 16 16" fill="none" xmlns="http://www.w3.org/2000/svg">
<path d="M8 4.875V8.625" stroke="black" stroke-opacity="0.51" stroke-width="1.5" stroke-linecap="round"/>
<path d="M8 11.125C8.34518 11.125 8.625 10.8452 8.625 10.5C8.625 10.1548 8.34518 9.875 8 9.875C7.65482 9.875 7.375 10.1548 7.375 10.5C7.375 10.8452 7.65482 11.125 8 11.125Z" fill="black" fill-opacity="0.51"/>
<path d="M4.875 2.58626C5.82466 2.03671 6.9028 1.7482 8 1.75001C11.4519 1.75001 14.25 4.54813 14.25 8.00001C14.25 11.4519 11.4519 14.25 8 14.25C4.54813 14.25 1.75 11.4519 1.75 8.00001C1.75 6.86188 2.05438 5.79376 2.58625 4.87501" stroke="black" stroke-opacity="0.51" stroke-width="1.5" stroke-linecap="round"/>
</svg>
